<svg width="710" height="244" viewBox="0 0 710 244" fill="none" xmlns="http://www.w3.org/2000/svg">
<g filter="url(#filter0_d_14_148)">
<path d="M155.78 202.105C156.95 202.105 158.015 202.24 158.975 202.51C159.965 202.75 160.775 203.065 161.405 203.455C162.185 203.935 162.785 204.535 163.205 205.255C163.655 205.945 163.88 206.755 163.88 207.685C163.88 208.735 163.55 209.605 162.89 210.295C162.23 210.955 161.375 211.285 160.325 211.285C159.275 211.285 158.435 210.985 157.805 210.385C157.175 209.785 156.86 208.975 156.86 207.955C156.86 206.995 157.16 206.2 157.76 205.57C158.36 204.91 159.05 204.475 159.83 204.265C159.59 203.965 159.23 203.71 158.75 203.5C158.27 203.29 157.73 203.185 157.13 203.185C156.2 203.185 155.375 203.455 154.655 203.995C153.965 204.535 153.38 205.285 152.9 206.245C152.42 207.205 152.045 208.33 151.775 209.62C151.535 210.91 151.415 212.32 151.415 213.85C151.415 216.16 151.7 217.975 152.27 219.295C152.87 220.615 153.62 221.545 154.52 222.085C155.45 222.625 156.41 222.895 157.4 222.895C157.97 222.895 158.585 222.805 159.245 222.625C159.935 222.445 160.625 222.085 161.315 221.545C162.035 221.005 162.695 220.24 163.295 219.25L164.06 219.52C163.73 220.63 163.19 221.74 162.44 222.85C161.69 223.96 160.715 224.875 159.515 225.595C158.315 226.285 156.845 226.63 155.105 226.63C153.155 226.63 151.385 226.21 149.795 225.37C148.235 224.5 146.975 223.18 146.015 221.41C145.085 219.61 144.62 217.3 144.62 214.48C144.62 211.78 145.1 209.515 146.06 207.685C147.05 205.825 148.385 204.43 150.065 203.5C151.745 202.57 153.65 202.105 155.78 202.105ZM178.734 190.765V221.815C178.734 223.075 178.944 223.93 179.364 224.38C179.814 224.83 180.564 225.055 181.614 225.055V226C181.044 225.97 180.189 225.94 179.049 225.91C177.909 225.85 176.754 225.82 175.584 225.82C174.414 225.82 173.229 225.85 172.029 225.91C170.859 225.94 169.974 225.97 169.374 226V225.055C170.424 225.055 171.159 224.83 171.579 224.38C172.029 223.93 172.254 223.075 172.254 221.815V196.165C172.254 194.815 172.044 193.825 171.624 193.195C171.234 192.535 170.484 192.205 169.374 192.205V191.26C170.334 191.35 171.264 191.395 172.164 191.395C173.394 191.395 174.564 191.35 175.674 191.26C176.784 191.14 177.804 190.975 178.734 190.765ZM197.849 202.105C200.489 202.105 202.559 202.885 204.059 204.445C205.559 206.005 206.309 208.555 206.309 212.095H191.504L191.414 211.24H200.639C200.669 209.77 200.579 208.42 200.369 207.19C200.159 205.93 199.829 204.925 199.379 204.175C198.929 203.425 198.329 203.05 197.579 203.05C196.529 203.05 195.629 203.71 194.879 205.03C194.159 206.35 193.724 208.54 193.574 211.6L193.709 211.87C193.679 212.23 193.649 212.605 193.619 212.995C193.619 213.385 193.619 213.79 193.619 214.21C193.619 216.28 193.904 217.96 194.474 219.25C195.074 220.54 195.824 221.485 196.724 222.085C197.624 222.655 198.539 222.94 199.469 222.94C200.099 222.94 200.744 222.85 201.404 222.67C202.094 222.46 202.784 222.1 203.474 221.59C204.164 221.05 204.809 220.3 205.409 219.34L206.219 219.61C205.859 220.75 205.289 221.86 204.509 222.94C203.729 224.02 202.739 224.905 201.539 225.595C200.339 226.285 198.899 226.63 197.219 226.63C195.179 226.63 193.379 226.195 191.819 225.325C190.259 224.455 189.029 223.135 188.129 221.365C187.259 219.595 186.824 217.345 186.824 214.615C186.824 211.825 187.289 209.5 188.219 207.64C189.179 205.78 190.484 204.4 192.134 203.5C193.814 202.57 195.719 202.105 197.849 202.105ZM218.275 226.315C216.925 226.315 215.8 226.06 214.9 225.55C214 225.04 213.34 224.365 212.92 223.525C212.5 222.655 212.29 221.71 212.29 220.69C212.29 219.4 212.575 218.35 213.145 217.54C213.745 216.73 214.51 216.07 215.44 215.56C216.37 215.05 217.345 214.63 218.365 214.3C219.415 213.97 220.405 213.655 221.335 213.355C222.295 213.025 223.06 212.65 223.63 212.23C224.23 211.78 224.53 211.21 224.53 210.52V207.01C224.53 206.23 224.395 205.54 224.125 204.94C223.885 204.31 223.495 203.83 222.955 203.5C222.445 203.17 221.77 203.005 220.93 203.005C220.33 203.005 219.73 203.095 219.13 203.275C218.53 203.425 218.035 203.695 217.645 204.085C218.485 204.385 219.13 204.85 219.58 205.48C220.06 206.08 220.3 206.77 220.3 207.55C220.3 208.57 219.94 209.38 219.22 209.98C218.53 210.58 217.705 210.88 216.745 210.88C215.665 210.88 214.84 210.55 214.27 209.89C213.73 209.2 213.46 208.375 213.46 207.415C213.46 206.545 213.67 205.825 214.09 205.255C214.54 204.685 215.155 204.145 215.935 203.635C216.775 203.155 217.78 202.78 218.95 202.51C220.15 202.24 221.44 202.105 222.82 202.105C224.2 202.105 225.445 202.255 226.555 202.555C227.665 202.825 228.595 203.335 229.345 204.085C230.035 204.775 230.485 205.63 230.695 206.65C230.905 207.64 231.01 208.9 231.01 210.43V222.67C231.01 223.42 231.085 223.945 231.235 224.245C231.385 224.515 231.64 224.65 232 224.65C232.27 224.65 232.525 224.575 232.765 224.425C233.035 224.275 233.32 224.095 233.62 223.885L234.07 224.65C233.44 225.19 232.705 225.61 231.865 225.91C231.055 226.18 230.14 226.315 229.12 226.315C228.01 226.315 227.125 226.165 226.465 225.865C225.805 225.535 225.325 225.1 225.025 224.56C224.755 224.02 224.62 223.39 224.62 222.67C223.9 223.81 223.03 224.71 222.01 225.37C220.99 226 219.745 226.315 218.275 226.315ZM221.47 223.435C222.07 223.435 222.61 223.3 223.09 223.03C223.6 222.73 224.08 222.25 224.53 221.59V212.365C224.26 212.815 223.885 213.22 223.405 213.58C222.925 213.94 222.415 214.315 221.875 214.705C221.335 215.065 220.81 215.47 220.3 215.92C219.82 216.37 219.43 216.925 219.13 217.585C218.83 218.245 218.68 219.04 218.68 219.97C218.68 221.14 218.935 222.01 219.445 222.58C219.955 223.15 220.63 223.435 221.47 223.435ZM255.246 202.105C256.506 202.105 257.526 202.27 258.306 202.6C259.116 202.9 259.746 203.32 260.196 203.86C260.676 204.43 261.021 205.165 261.231 206.065C261.471 206.965 261.591 208.18 261.591 209.71V221.815C261.591 223.075 261.801 223.93 262.221 224.38C262.671 224.83 263.421 225.055 264.471 225.055V226C263.901 225.97 263.046 225.94 261.906 225.91C260.766 225.85 259.641 225.82 258.531 225.82C257.391 225.82 256.266 225.85 255.156 225.91C254.076 225.94 253.251 225.97 252.681 226V225.055C253.581 225.055 254.211 224.83 254.571 224.38C254.931 223.93 255.111 223.075 255.111 221.815V207.82C255.111 207.07 255.036 206.425 254.886 205.885C254.736 205.315 254.466 204.88 254.076 204.58C253.686 204.25 253.101 204.085 252.321 204.085C251.511 204.085 250.761 204.31 250.071 204.76C249.411 205.21 248.871 205.84 248.451 206.65C248.061 207.43 247.866 208.315 247.866 209.305V221.815C247.866 223.075 248.046 223.93 248.406 224.38C248.796 224.83 249.426 225.055 250.296 225.055V226C249.756 225.97 248.961 225.94 247.911 225.91C246.891 225.85 245.826 225.82 244.716 225.82C243.576 225.82 242.406 225.85 241.206 225.91C240.006 225.94 239.106 225.97 238.506 226V225.055C239.556 225.055 240.291 224.83 240.711 224.38C241.161 223.93 241.386 223.075 241.386 221.815V207.64C241.386 206.29 241.176 205.3 240.756 204.67C240.366 204.01 239.616 203.68 238.506 203.68V202.735C239.466 202.825 240.396 202.87 241.296 202.87C242.556 202.87 243.726 202.825 244.806 202.735C245.916 202.615 246.936 202.45 247.866 202.24V206.29C248.616 204.76 249.636 203.68 250.926 203.05C252.216 202.42 253.656 202.105 255.246 202.105ZM275.148 191.125C276.408 191.125 277.398 191.44 278.118 192.07C278.868 192.67 279.243 193.51 279.243 194.59C279.243 195.67 278.868 196.525 278.118 197.155C277.398 197.755 276.408 198.055 275.148 198.055C273.888 198.055 272.883 197.755 272.133 197.155C271.413 196.525 271.053 195.67 271.053 194.59C271.053 193.51 271.413 192.67 272.133 192.07C272.883 191.44 273.888 191.125 275.148 191.125ZM278.658 202.24V221.815C278.658 223.075 278.868 223.93 279.288 224.38C279.738 224.83 280.488 225.055 281.538 225.055V226C280.998 225.97 280.158 225.94 279.018 225.91C277.878 225.85 276.723 225.82 275.553 225.82C274.383 225.82 273.198 225.85 271.998 225.91C270.798 225.94 269.898 225.97 269.298 226V225.055C270.348 225.055 271.083 224.83 271.503 224.38C271.953 223.93 272.178 223.075 272.178 221.815V207.64C272.178 206.29 271.968 205.3 271.548 204.67C271.158 204.01 270.408 203.68 269.298 203.68V202.735C270.258 202.825 271.188 202.87 272.088 202.87C273.348 202.87 274.518 202.825 275.598 202.735C276.708 202.615 277.728 202.45 278.658 202.24ZM303.382 202.105C304.642 202.105 305.662 202.27 306.442 202.6C307.252 202.9 307.882 203.32 308.332 203.86C308.812 204.43 309.157 205.165 309.367 206.065C309.607 206.965 309.727 208.18 309.727 209.71V221.815C309.727 223.075 309.937 223.93 310.357 224.38C310.807 224.83 311.557 225.055 312.607 225.055V226C312.037 225.97 311.182 225.94 310.042 225.91C308.902 225.85 307.777 225.82 306.667 225.82C305.527 225.82 304.402 225.85 303.292 225.91C302.212 225.94 301.387 225.97 300.817 226V225.055C301.717 225.055 302.347 224.83 302.707 224.38C303.067 223.93 303.247 223.075 303.247 221.815V207.82C303.247 207.07 303.172 206.425 303.022 205.885C302.872 205.315 302.602 204.88 302.212 204.58C301.822 204.25 301.237 204.085 300.457 204.085C299.647 204.085 298.897 204.31 298.207 204.76C297.547 205.21 297.007 205.84 296.587 206.65C296.197 207.43 296.002 208.315 296.002 209.305V221.815C296.002 223.075 296.182 223.93 296.542 224.38C296.932 224.83 297.562 225.055 298.432 225.055V226C297.892 225.97 297.097 225.94 296.047 225.91C295.027 225.85 293.962 225.82 292.852 225.82C291.712 225.82 290.542 225.85 289.342 225.91C288.142 225.94 287.242 225.97 286.642 226V225.055C287.692 225.055 288.427 224.83 288.847 224.38C289.297 223.93 289.522 223.075 289.522 221.815V207.64C289.522 206.29 289.312 205.3 288.892 204.67C288.502 204.01 287.752 203.68 286.642 203.68V202.735C287.602 202.825 288.532 202.87 289.432 202.87C290.692 202.87 291.862 202.825 292.942 202.735C294.052 202.615 295.072 202.45 296.002 202.24V206.29C296.752 204.76 297.772 203.68 299.062 203.05C300.352 202.42 301.792 202.105 303.382 202.105ZM325.856 234.46C323.996 234.46 322.331 234.295 320.861 233.965C319.421 233.665 318.281 233.185 317.441 232.525C316.631 231.895 316.226 231.115 316.226 230.185C316.226 229.255 316.646 228.415 317.486 227.665C318.326 226.945 319.571 226.375 321.221 225.955L321.626 226.675C321.056 227.125 320.636 227.605 320.366 228.115C320.126 228.655 320.006 229.21 320.006 229.78C320.006 231.04 320.576 232 321.716 232.66C322.886 233.35 324.461 233.695 326.441 233.695C327.791 233.695 328.991 233.515 330.041 233.155C331.121 232.795 331.961 232.255 332.561 231.535C333.191 230.815 333.506 229.93 333.506 228.88C333.506 227.98 333.176 227.215 332.516 226.585C331.856 225.985 330.536 225.685 328.556 225.685H325.766C324.536 225.685 323.456 225.55 322.526 225.28C321.626 225.01 320.921 224.59 320.411 224.02C319.901 223.42 319.646 222.67 319.646 221.77C319.646 220.51 320.141 219.4 321.131 218.44C322.121 217.48 323.591 216.58 325.541 215.74L325.991 216.1C325.421 216.46 324.881 216.85 324.371 217.27C323.891 217.66 323.651 218.17 323.651 218.8C323.651 219.76 324.251 220.24 325.451 220.24H330.356C332.006 220.24 333.476 220.435 334.766 220.825C336.086 221.215 337.121 221.86 337.871 222.76C338.651 223.63 339.041 224.77 339.041 226.18C339.041 227.65 338.561 229.015 337.601 230.275C336.671 231.535 335.231 232.54 333.281 233.29C331.331 234.07 328.856 234.46 325.856 234.46ZM326.306 216.415C324.596 216.415 323.066 216.16 321.716 215.65C320.366 215.14 319.301 214.36 318.521 213.31C317.741 212.26 317.351 210.91 317.351 209.26C317.351 207.61 317.741 206.26 318.521 205.21C319.301 204.13 320.366 203.35 321.716 202.87C323.066 202.36 324.596 202.105 326.306 202.105C328.016 202.105 329.546 202.36 330.896 202.87C332.246 203.35 333.311 204.13 334.091 205.21C334.871 206.26 335.261 207.61 335.261 209.26C335.261 210.91 334.871 212.26 334.091 213.31C333.311 214.36 332.246 215.14 330.896 215.65C329.546 216.16 328.016 216.415 326.306 216.415ZM326.306 215.605C327.116 215.605 327.746 215.155 328.196 214.255C328.646 213.325 328.871 211.66 328.871 209.26C328.871 206.86 328.646 205.21 328.196 204.31C327.746 203.38 327.116 202.915 326.306 202.915C325.526 202.915 324.896 203.38 324.416 204.31C323.966 205.21 323.741 206.86 323.741 209.26C323.741 211.66 323.966 213.325 324.416 214.255C324.896 215.155 325.526 215.605 326.306 215.605ZM333.326 205.975L332.426 205.66C332.876 204.49 333.596 203.515 334.586 202.735C335.606 201.955 336.701 201.565 337.871 201.565C338.831 201.565 339.551 201.835 340.031 202.375C340.541 202.885 340.796 203.56 340.796 204.4C340.796 205.3 340.556 205.975 340.076 206.425C339.596 206.845 339.056 207.055 338.456 207.055C337.946 207.055 337.466 206.875 337.016 206.515C336.596 206.155 336.356 205.615 336.296 204.895C336.236 204.145 336.491 203.185 337.061 202.015L337.376 202.285C336.236 202.705 335.381 203.2 334.811 203.77C334.241 204.31 333.746 205.045 333.326 205.975Z" fill="#177D7D"/>
<path d="M84.705 234.883C71.8733 231.17 70.7281 211.323 83.0093 205.495C88.1909 203.036 93.7493 203.972 97.9077 208.002C106.124 215.966 104.101 229.487 94.0073 234.071C89.4122 236.158 89.1807 236.178 84.705 234.883ZM95.4667 227.062C103.01 219.519 94.6347 205.704 85.4108 210.474C81.7631 212.36 80.3898 214.794 80.3898 219.372C80.3898 229.052 89.056 233.472 95.4667 227.062ZM2.87389 229.959C2.52523 229.395 1.99755 226.582 1.70128 223.709C1.26285 219.457 1.53301 218.027 3.153 216.028C5.07236 213.658 5.76346 213.54 22.5166 212.711L39.8898 211.851L42.8121 208.168C48.8682 200.535 58.8255 191.896 65.1609 188.777C75.9371 183.472 87.625 183.618 93.9111 189.138C99.0383 193.639 98.369 196.983 93.0396 193.491C86.1332 188.966 74.7045 191.199 66.3555 198.705C61.8435 202.762 61.4318 203.455 62.7513 204.775C64.0707 206.094 64.83 205.832 69.399 202.478C78.4545 195.831 85.4987 194.489 93.1398 197.958C95.4802 199.02 97.3898 200.583 97.3898 201.436C97.3898 203.252 96.2287 203.345 91.1553 201.936C86.0329 200.514 80.5959 202.126 76.7247 206.215C72.4056 210.778 71.3225 213.268 71.2785 218.737C71.2152 226.595 70.924 226.983 65.0724 227C62.222 227.008 48.1898 227.902 33.8898 228.985C3.40946 231.293 3.69314 231.285 2.87389 229.959ZM406.651 196.443C401.019 195.719 395.466 194.826 394.31 194.459C391.59 193.596 389.348 188.177 389.926 183.866C390.176 182.006 391.316 171.71 392.46 160.985C394.763 139.388 397.202 126.634 401.37 114.379C403.939 106.827 405.963 102.671 415.732 84.8939C418.242 80.3279 419.437 76.795 419.622 73.3939L419.89 68.4847L433.042 68.2064L446.195 67.928L446.542 77.2064C446.97 88.6239 450.803 99.2393 456.64 105.173C459.813 108.398 461.041 108.985 464.625 108.985C474.292 108.985 488.138 97.5929 492.465 86.0796C495.45 78.1347 494.911 67.882 491.214 62.2956C488.146 57.6599 480.774 52.4512 474.937 50.7957C469.681 49.3046 469.009 48.6376 469.758 45.6525C470.328 43.3833 470.74 43.2191 474.635 43.71C476.975 44.0049 480.407 44.8624 482.262 45.6155C486.141 47.1905 488.765 47.4003 487.942 46.0697C486.953 44.4689 473.768 39.9023 472.045 40.5636C470.894 41.0052 470.39 40.6666 470.39 39.4524C470.39 37.9385 471.073 37.7871 475.525 38.3143C478.349 38.6488 483.411 40.2184 486.775 41.8024C500.003 48.0324 507.794 57.1961 511.037 70.3398C515.202 87.2157 506.629 105.637 489.425 116.781L483.96 120.321L486.898 122.403C493.974 127.416 501.281 135.305 503.392 140.21C513.495 163.696 501.19 186.644 474.39 194.298C467.442 196.282 451.835 198.369 449.796 197.587C447.909 196.863 448.353 195.192 453.147 184.985C455.084 180.86 457.218 175.464 457.888 172.994C459.041 168.743 459.341 168.461 463.498 167.717C468.752 166.776 472.889 167.401 478.626 170.005C484.609 172.721 489.635 172.511 495.086 169.317C502.088 165.214 505.57 155.542 501.921 150.333C500.115 147.754 495.428 145.8 459.203 132.524C424.973 119.979 422.377 119.214 419.108 120.704C416.343 121.963 412.387 129.637 412.395 133.724C412.404 137.973 414.322 143.916 416.333 145.927C417.33 146.925 421.013 148.7 424.518 149.873C428.763 151.294 432.303 153.358 435.125 156.057L439.361 160.108L437.001 164.796C435.703 167.375 432.064 175.56 428.914 182.985C425.765 190.41 422.671 196.815 422.039 197.219C420.604 198.137 419.314 198.071 406.651 196.443ZM473.659 181.735C474.368 179.701 473.308 177.985 471.342 177.985C469.137 177.985 468.007 179.544 468.77 181.533C469.452 183.31 473.058 183.459 473.659 181.735ZM411.743 178.147C413.3 176.427 413.278 176.193 411.398 174.492C409.457 172.736 409.322 172.736 407.382 174.492C405.502 176.193 405.48 176.427 407.037 178.147C407.951 179.158 409.01 179.985 409.39 179.985C409.769 179.985 410.828 179.158 411.743 178.147ZM425.202 163.72C425.587 161.723 422.735 160.24 421.29 161.685C419.89 163.084 421.358 166.138 423.254 165.772C424.141 165.602 425.018 164.678 425.202 163.72ZM415.277 106.215C419.829 94.8483 420.354 92.2333 417.331 95.9847C411.44 103.295 405.061 120.958 403.913 133.137L403.314 139.485L407.239 127.985C409.398 121.66 413.015 111.863 415.277 106.215ZM125.89 184.582C119.612 181.811 116.39 175.308 116.39 165.411C116.39 144.217 128.114 127.261 145.134 123.842C150.861 122.691 151.954 122.773 158.346 124.831C164.932 126.952 165.486 126.986 168.467 125.445C170.244 124.526 171.997 124.192 172.486 124.681C172.974 125.169 172.487 131.205 171.368 138.516C165.737 175.318 165.914 173.706 167.33 175.412C168.319 176.604 169.574 176.853 172.157 176.369C176.943 175.471 176.149 177.549 170.153 181.609C160.5 188.147 153.447 186.7 150.053 177.485C149.85 176.935 147.749 178.024 145.383 179.905C138.224 185.599 131.726 187.158 125.89 184.582ZM144.555 174.235C149.574 171.28 151.13 167.448 153.336 152.604C155.821 135.886 155.87 133.173 153.735 130.813C149.661 126.312 142.254 130.313 138.055 139.281C134.799 146.237 133.39 153.424 133.39 163.079C133.39 170.236 133.648 171.333 135.844 173.53C138.756 176.441 140.558 176.587 144.555 174.235ZM250.765 185C246.298 183.196 246.113 179.222 249.525 158.274C253.161 135.953 252.948 133.985 246.897 133.985C244.294 133.985 242.433 134.843 239.848 137.235C236.54 140.296 236.227 141.154 234.46 151.985C233.428 158.31 232.021 167.535 231.333 172.485C229.598 184.959 229.58 184.985 222.055 184.985C218.609 184.985 215.335 184.53 214.779 183.974C214.099 183.294 214.642 177.173 216.444 165.224C217.916 155.467 219.432 145.353 219.814 142.748C220.43 138.548 220.229 137.733 218.039 135.543C215.903 133.407 215.13 133.199 212.319 134.005C208.398 135.13 204.911 138.238 203.538 141.833C202.981 143.292 201.348 152.585 199.909 162.485C198.47 172.385 196.874 181.497 196.363 182.735C195.535 184.737 194.727 184.985 189.034 184.985C185.12 184.985 182.242 184.499 181.624 183.735C180.642 182.519 181.074 178.95 185.853 148.78C187.971 135.407 187.869 132.547 185.215 130.784C181.29 128.179 183.538 126.361 192.812 124.64C197.532 123.765 202.067 123.307 202.891 123.624C203.868 123.998 204.39 125.555 204.39 128.092C204.39 132.607 205.18 132.867 209.063 129.625C218.765 121.527 230.859 121.19 234.849 128.906C235.725 130.599 236.876 131.985 237.407 131.985C237.938 131.985 240.412 130.428 242.905 128.525C247.211 125.238 252.772 123.002 256.672 122.99C260.249 122.979 265.291 125.893 266.823 128.856C268.969 133.005 268.804 137.337 265.831 154.949C264.424 163.285 263.411 171.541 263.581 173.295C263.872 176.305 264.1 176.472 267.64 176.265C269.702 176.144 271.39 176.403 271.39 176.84C271.39 178.333 266.898 181.857 262.39 183.901C257.602 186.071 254.212 186.392 250.765 185ZM286.303 185.088C278.31 182.482 274.324 176.316 273.615 165.458C272.206 143.907 284.882 125.372 302.451 123.291C308.448 122.581 315.432 124.951 318.379 128.698C320.795 131.769 321.11 139.705 318.979 143.784C315.723 150.017 308.152 154.766 297.011 157.565L290.39 159.228V164.156C290.39 175.71 297.525 179.945 307.794 174.485C312.377 172.048 315.39 171.316 315.39 172.64C315.39 174.598 309.963 179.899 305.439 182.362C299.895 185.379 291.056 186.638 286.303 185.088ZM297.372 150.994C303.217 148.012 306.648 142.916 307.187 136.414C308.581 119.601 294.141 130.243 291.827 147.735C291.031 153.749 291.468 154.006 297.372 150.994ZM330.665 185.076C320.481 182.459 316.453 172.556 323.549 167.586C328.488 164.126 332.39 166.693 332.39 173.401C332.39 178.646 334.626 180.985 339.642 180.985C344.753 180.985 349.39 176.925 349.39 172.452C349.39 168.225 346.913 165.373 337.918 159.239C333.502 156.227 330.117 153.018 328.684 150.485C326.058 145.839 325.695 139.23 327.839 135.083C334.03 123.111 355.525 118.966 364.561 128.002C368.285 131.726 368.443 137.022 364.935 140.53C360.391 145.075 355.39 142.772 355.39 136.136C355.39 128.038 348.964 125.256 343.313 130.908C339.726 134.494 339.473 138.71 342.64 142.106C343.877 143.433 348.126 146.666 352.082 149.29C360.691 155.001 363.621 159.21 363.621 165.866C363.621 173.618 358.914 180.197 351.006 183.501C346.46 185.4 335.289 186.265 330.665 185.076ZM525.482 184.755C511.022 179.875 506.972 157.398 517.173 138.637C524.608 124.961 543.304 119.056 555.863 126.416C563.432 130.852 567.631 142.821 565.555 154.047C561.999 173.275 551.329 184.37 535.341 185.464C531.793 185.706 527.356 185.388 525.482 184.755ZM540.687 177.62C544.705 173.602 547.832 164.458 549.452 151.985C551.872 133.348 546.617 123.299 537.997 130.079C532.945 134.053 529.161 144.695 527.829 158.672C526.009 177.764 531.885 186.422 540.687 177.62ZM607.025 183.912C604.784 182.15 604.39 181.064 604.39 176.66C604.39 173.811 605.287 166.77 606.384 161.012C610.586 138.96 610.188 133.985 604.223 133.985C600.626 133.985 595.244 137.033 593.122 140.271C591.693 142.451 590.034 151.202 586.933 172.909C586.096 178.771 584.885 183.688 584.167 184.144C582.49 185.208 572.261 185.19 570.574 184.12C569.508 183.444 569.972 178.578 573.019 158.501L576.779 133.717L574.085 131.399C572.602 130.124 571.39 128.644 571.39 128.11C571.39 126.899 576.001 125.412 584.217 123.975C591.708 122.665 593.39 123.514 593.39 128.607C593.39 132.604 594.266 132.795 598.063 129.625C608.469 120.94 620.342 121.267 624.782 130.361L626.675 134.237L623.369 153.963C621.55 164.812 620.368 174.485 620.741 175.459C621.259 176.808 622.12 177.089 624.366 176.639C628.763 175.76 628.874 177.44 624.649 180.925C618.351 186.12 611.342 187.308 607.025 183.912ZM643.813 183.965C637.388 180.784 634.89 175.472 634.89 164.985C634.89 150.558 640.26 138.342 650.125 130.324C656.447 125.186 661.705 123.483 670.574 123.7C678.25 123.888 677.31 125.371 679.513 109.59L680.755 100.695L678.072 98.388C673.287 94.2721 673.614 94.0522 688.084 91.6555C692.591 90.9089 696.712 90.566 697.242 90.8935C698.172 91.4682 695.062 115.107 688.903 154.268C687.451 163.499 686.404 172.274 686.577 173.768C686.87 176.309 687.17 176.467 691.233 176.206C696.772 175.851 696.439 177.353 690.016 181.701C681.365 187.557 673.613 187.01 671.213 180.374C670.539 178.51 669.575 176.985 669.071 176.985C668.566 176.985 666.638 178.315 664.786 179.942C661.698 182.653 653.244 185.986 649.458 185.984C648.596 185.983 646.055 185.075 643.813 183.965ZM667.074 171.806C668.919 170.018 670.826 166.964 671.311 165.02C672.901 158.655 675.733 134.323 675.082 132.625C674.167 130.24 669.984 128.619 666.805 129.417C665.302 129.794 662.64 131.539 660.891 133.294C652.677 141.532 648.57 168.165 654.585 174.179C657.433 177.028 662.724 176.022 667.074 171.806ZM90.3898 182.498C89.0148 181.705 87.1288 181.04 86.1988 181.02C85.2688 181.001 84.2301 180.535 83.8906 179.986C82.4492 177.654 86.9486 165.291 95.3548 148.485C105.191 128.819 107.28 122.004 105.498 115.387C103.248 107.03 94.5907 97.4235 92.4422 100.9C91.9926 101.627 89.2532 110.606 86.3546 120.854C83.4561 131.101 80.6481 140.047 80.1147 140.735C78.7712 142.466 66.4988 142.432 65.8322 140.695C65.4209 139.623 73.6377 110.858 86.0108 70.0535C87.608 64.7861 88.345 60.5109 87.9749 58.6603C87.0621 54.0961 88.7179 52.9846 96.4304 52.9846C100.168 52.9846 103.938 53.2578 104.808 53.5916C106.922 54.4029 106.808 57.5732 104.547 60.8302C103.534 62.2902 101.413 68.1656 99.8338 73.8869L96.9627 84.2891L99.4262 85.8731C104.032 88.8345 113.589 98.4698 115.902 102.485C117.169 104.685 118.719 109.022 119.346 112.123C121.053 120.569 118.918 128.077 109.924 145.258C101.949 160.492 99.0194 167.786 96.9783 177.485C95.6138 183.968 94.46 184.846 90.3898 182.498ZM423.836 62.8976C423.466 62.2997 423.665 61.3097 424.277 60.6976C427.875 57.0994 423.616 50.6806 416.779 49.398C414.34 48.9405 413.207 48.104 412.793 46.4564C411.999 43.2901 414.99 37.4062 418.763 34.715C421.621 32.6762 423.006 32.4884 434.89 32.5273C442.04 32.5507 449.598 32.9126 451.686 33.3313L455.482 34.0927L455.186 40.2811L454.89 46.4694L448.633 49.9771C442.126 53.625 440.095 56.7193 442.39 59.485C443.063 60.2958 443.352 61.64 443.033 62.472C442.575 63.6668 440.567 63.9847 433.48 63.9847C428.098 63.9847 424.239 63.5497 423.836 62.8976ZM399.348 61.4345C398.285 60.154 398.351 59.5949 399.726 58.2203C401.278 56.6681 401.502 56.6681 403.054 58.2203C404.429 59.5949 404.494 60.154 403.431 61.4345C402.724 62.2871 401.805 62.9847 401.39 62.9847C400.974 62.9847 400.056 62.2871 399.348 61.4345ZM388.5 49.6174C387.637 48.5774 387.727 47.9496 388.877 46.995C390.996 45.2369 393.996 47.5494 392.28 49.6174C391.656 50.3694 390.805 50.9847 390.39 50.9847C389.974 50.9847 389.124 50.3694 388.5 49.6174ZM94.032 46.2148C93.2818 45.001 104.236 9.76803 106.229 6.98472C107.213 5.60972 109.703 3.64807 111.761 2.62549C115.457 0.788595 115.697 0.797994 131.696 3.40873C140.603 4.8621 149.29 6.27006 151.002 6.53753C155.23 7.19798 157.807 10.1854 156.983 13.4696C156.173 16.6963 150.281 23.2756 144.862 27.0037C138.838 31.1484 122.303 39.3339 111.677 43.4319C103.086 46.7453 95.1348 47.9992 94.032 46.2148ZM127.395 30.3929C142.821 22.378 148.642 17.0782 143.64 15.6037C142.677 15.3199 136.593 14.7779 130.12 14.3991C115.838 13.5634 115.602 13.7045 112.383 25.0093C110.543 31.4715 110.355 33.238 111.377 34.4699C113.433 36.9466 116.075 36.2741 127.395 30.3929ZM458.788 44.5799C458.491 43.8073 458.393 41.6698 458.569 39.8299C458.993 35.4049 462.477 34.6616 464.968 38.4644C466.339 40.5561 466.454 41.5491 465.553 43.5257C464.3 46.2751 459.713 46.99 458.788 44.5799ZM398.747 35.472C398.427 34.64 398.731 33.2786 399.421 32.4468C400.537 31.1025 400.883 31.1208 402.53 32.6113C403.939 33.8866 404.115 34.6113 403.264 35.6365C401.774 37.432 399.466 37.348 398.747 35.472Z" fill="#177D7D"/>
<path d="M82.2831 232.545C77.9962 230.121 76.0565 226.183 76.0565 219.904C76.0565 212.929 78.5905 208.922 84.4943 206.56C89.542 204.54 93.6737 205.584 97.8392 209.932C102.812 215.122 102.329 225.875 96.8935 230.981C93.8256 233.863 86.08 234.693 82.2831 232.545ZM96.5551 228.326C101.579 223.513 101.443 216.192 96.2328 210.981C93.847 208.596 92.3723 207.985 89 207.985C83.1088 207.985 79.2645 211.982 78.7053 218.688C78.2096 224.633 79.829 227.926 84.4038 230.274C88.756 232.508 92.8808 231.847 96.5551 228.326ZM3.98541 228.139C2.49449 225.727 2.34376 219.359 3.73341 217.493C5.0555 215.717 7.1442 215.38 22.9448 214.386L40.6728 213.271L44.2272 208.878C53.5647 197.337 63.6888 189.871 73.3385 187.411C80.5801 185.565 86.9276 186.008 91.4409 188.674C95.797 191.247 96.0936 193.177 91.8613 191.408C83.5228 187.924 72.4402 190.717 64.0287 198.421C56.5966 205.229 62.0319 210.268 69.9427 203.904C72.1136 202.158 75.3379 200.112 77.1077 199.357C81.3007 197.569 90.2144 197.659 93.3898 199.522C95.7533 200.908 95.6091 200.955 90.7507 200.373C83.9518 199.557 79.3293 201.202 75.0224 205.97C71.3064 210.083 69.4046 215.191 69.3954 221.084L69.3894 224.684L58.6394 225.351C52.7269 225.718 38.4394 226.676 26.8894 227.48C15.3394 228.284 5.57849 228.952 5.19845 228.964C4.81841 228.975 4.27277 228.604 3.98541 228.139ZM409.39 195.507C391.206 193.138 390.798 192.828 391.807 182.108C393.8 160.938 395.869 154.184 398.261 161.045C399.503 164.607 401.058 164.806 402.523 161.591C403.49 159.47 404.395 159.154 410.479 158.81C416.631 158.462 417.695 158.081 420.735 155.135C424.065 151.907 424.187 151.875 427.508 153.355C429.368 154.183 432.447 156.192 434.349 157.818C437.355 160.388 437.632 160.988 436.46 162.4C435.719 163.293 432.134 171.322 428.495 180.242C424.308 190.502 421.328 196.512 420.384 196.602C419.562 196.68 414.615 196.187 409.39 195.507ZM412.938 179.339C415.758 176.296 415.985 175.15 413.928 174.361C413.124 174.052 412.194 172.941 411.861 171.892C411.054 169.351 407.351 169.417 406.68 171.985C406.392 173.085 405.745 173.985 405.242 173.985C403.16 173.985 403.327 177.14 405.533 179.466C408.539 182.634 409.905 182.611 412.938 179.339ZM426.075 166.81C428.813 164.239 428.995 162.31 426.735 159.813C424.659 157.52 422.001 157.481 419.401 159.707C416.802 161.932 416.862 163.645 419.64 166.576C422.425 169.515 423.168 169.542 426.075 166.81ZM450.404 194.735C450.412 194.047 452.662 188.819 455.404 183.117C458.146 177.415 460.39 171.902 460.39 170.867C460.39 169.238 461.179 168.985 466.263 168.985C470.134 168.985 473.798 169.727 477.013 171.161C483.275 173.956 489.696 173.936 495.019 171.104C500.173 168.364 501.964 166.405 503.875 161.418L505.382 157.485L504.821 161.985C504.01 168.49 499.013 178.189 494.259 182.484C488.791 187.424 477.67 192.519 468.182 194.431C458.675 196.347 450.384 196.489 450.404 194.735ZM474.494 182.865C476.44 180.621 475.972 178.543 472.957 176.041C470.952 174.376 469.193 175.116 467.46 178.354C466.218 180.674 466.265 181.189 467.881 182.975C470.214 185.553 472.191 185.52 474.494 182.865ZM125.814 183.124C120.808 180.808 118.54 176.485 117.754 167.759C116.374 152.453 124.432 135.146 136.133 128.289C142.165 124.754 153.31 123.919 160.059 126.496C163.999 128.001 165.229 128.083 168.124 127.036C170.002 126.357 171.664 125.955 171.815 126.143C171.967 126.331 171.044 133.01 169.764 140.985C164.225 175.496 164.235 176.979 169.99 177.993L172.876 178.502L169.883 180.63C162.59 185.814 153.83 185.438 152.721 179.893C151.725 174.909 149.87 174.356 145.887 177.853C138.489 184.348 132.092 186.028 125.814 183.124ZM146.893 173.848C148.858 172.122 150.916 169.87 151.466 168.842C152.016 167.814 153.557 159.688 154.89 150.785C157.562 132.932 157.293 130.664 152.223 128.233C149.273 126.82 145.349 127.809 142.032 130.804C135.519 136.685 130.198 157.283 132.294 168.502C133.929 177.252 140.342 179.6 146.893 173.848ZM251.39 183.697C247.849 181.914 247.743 177.111 250.83 158.166C254.102 138.082 254.093 136.683 250.683 134.001C247.653 131.618 244.533 131.885 240.39 134.884C235.978 138.078 234.644 142.036 231.933 159.985C230.479 169.61 229.051 178.722 228.76 180.235C228.248 182.894 228.02 182.985 221.81 182.985C218.279 182.985 215.39 182.575 215.39 182.075C215.39 181.574 216.302 175.162 217.418 167.825C221.704 139.623 221.812 138.278 220.007 135.524C217.678 131.968 214.371 131.444 209.606 133.874C203.208 137.138 201.936 140.319 198.96 160.485C197.499 170.385 196.089 179.497 195.828 180.735C195.392 182.794 194.789 182.985 188.732 182.985H182.111L182.738 178.235C183.083 175.622 184.672 164.724 186.27 154.016C189.235 134.137 189.173 130.883 185.799 129.588C184.77 129.193 184.431 128.567 184.973 128.059C186.189 126.917 195.599 124.985 199.939 124.985C203.29 124.985 203.39 125.099 203.39 128.926C203.39 131.093 203.816 133.13 204.336 133.451C204.856 133.773 207.655 132.24 210.555 130.044C220.197 122.747 229.931 122.827 233.89 130.236C234.99 132.295 236.35 133.98 236.912 133.982C237.474 133.983 239.499 132.7 241.412 131.13C249.452 124.532 257.956 122.79 263.188 126.67C267.787 130.081 268.003 134.876 264.5 155.841C261.171 175.765 261.329 177.985 266.08 177.985C268.61 177.985 268.639 178.051 266.944 179.925C265.333 181.706 257.496 185.005 254.962 184.97C254.372 184.962 252.765 184.389 251.39 183.697ZM286.045 183.576C280.552 181.546 277.571 178.333 275.872 172.612C271.918 159.297 276.679 141.504 286.656 132.307C292.181 127.214 294.128 126.162 300.126 125.03C310.938 122.99 319.39 127.847 319.39 136.101C319.39 141.07 316.339 147.173 312.482 149.919C308.787 152.55 297.148 156.985 293.938 156.985C289.818 156.985 288.077 159.698 288.719 165.119C289.029 167.736 289.948 171.164 290.761 172.736C293.684 178.388 301.127 179.54 308.283 175.449C313.639 172.388 314.708 172.999 310.919 176.955C304.953 183.182 293.343 186.272 286.045 183.576ZM299.647 151.036C305.281 147.463 308.39 141.924 308.39 135.459C308.39 129.379 307.02 126.985 303.542 126.985C300.045 126.985 296.194 130.903 293.507 137.195C291.329 142.295 289.495 150.8 290.15 152.764C290.841 154.838 294.784 154.12 299.647 151.036ZM331.89 184.114C327.922 183.08 324.175 181.03 322.672 179.071C320.759 176.58 321.14 171.235 323.39 168.985C327.506 164.868 331.39 167.399 331.39 174.196C331.39 179.781 333.691 181.985 339.523 181.985C346.029 181.985 350.39 178.177 350.39 172.496C350.39 167.311 349.147 165.565 342.116 160.868C330.016 152.785 326.365 147.263 327.858 139.304C328.582 135.444 333.366 129.566 337.539 127.408C349.844 121.045 366.996 125.483 366.189 134.821C365.794 139.398 361.674 142.742 358.515 141.051C356.861 140.166 356.39 138.974 356.39 135.672C356.39 129.6 354.242 126.985 349.256 126.985C343.842 126.985 339.39 131.229 339.39 136.392C339.39 140.842 342.517 144.456 351.376 150.246C359.472 155.537 362.396 159.694 362.373 165.883C362.349 172.776 359.052 177.831 352.371 181.22C346.503 184.196 337.229 185.507 331.89 184.114ZM526.533 183.522C521.138 181.801 517.659 178.687 515.32 173.485C511.237 164.403 512.059 151.545 517.398 140.967C523.609 128.664 536.27 122.375 549.383 125.08C559.443 127.154 564.401 134.93 564.379 148.601C564.348 168.128 552.948 182.433 535.89 184.349C532.837 184.692 529.193 184.37 526.533 183.522ZM541.142 178.735C545.443 174.291 548.028 168.001 549.851 157.547C552.405 142.901 551.544 133.138 547.325 128.92C544.818 126.413 540.336 126.452 537.086 129.009C530.744 133.998 525.882 151.827 526.57 167.568C526.927 175.724 527.283 177.242 529.359 179.452C532.801 183.115 537.16 182.85 541.142 178.735ZM608.658 183.772C605.068 182.04 604.894 177.353 607.781 160.174C610.449 144.305 610.963 137.389 609.625 135.384C606.542 130.768 599.934 131.778 594.145 137.75C590.571 141.438 590.493 141.699 587.947 158.485C586.529 167.835 585.108 177.172 584.791 179.235L584.214 182.985H577.283C570.607 182.985 570.371 182.902 570.874 180.735C571.93 176.184 577.39 137.898 577.39 135.045C577.39 133.139 576.61 131.552 575.181 130.551C573.802 129.585 573.332 128.664 573.931 128.101C575.195 126.911 584.545 124.985 589.053 124.985H592.617L591.942 129.485C591.34 133.503 591.475 133.985 593.206 133.985C594.272 133.985 595.74 133.267 596.468 132.39C597.196 131.513 600.064 129.492 602.841 127.9C606.763 125.65 609.148 125.001 613.529 124.994C624.918 124.975 626.394 130.308 621.934 155.366C620.477 163.551 619.421 171.874 619.587 173.862C619.846 176.958 620.3 177.548 622.75 177.98C625.607 178.484 625.608 178.487 623.566 180.33C621.409 182.277 614.923 184.913 612.39 184.873C611.565 184.86 609.886 184.365 608.658 183.772ZM647.331 184.012C637.462 181.112 633.65 170.979 636.801 156.015C638.869 146.194 642.642 138.958 648.602 133.383C655.82 126.631 661.067 124.637 670.09 125.216C674.141 125.476 677.702 125.289 678.004 124.8C678.849 123.433 681.382 106.949 681.386 102.791C681.389 100.095 680.783 98.6704 679.14 97.5132C677.327 96.2364 677.162 95.7587 678.288 95.0556C680.165 93.8845 695.306 91.568 696.073 92.3346C696.762 93.0236 695.031 106.076 689.29 143.485C687.095 157.785 685.432 171.285 685.595 173.485C685.87 177.212 686.128 177.521 689.39 178.024L692.89 178.563L689.39 180.789C684.067 184.175 679.395 185.332 676.114 184.077C673.289 182.996 673.016 182.579 671.954 177.735C671.187 174.232 670.071 174.277 665.372 177.999C659.201 182.887 651.846 185.338 647.331 184.012ZM665.4 174.735C671.4 170.651 672.204 168.615 674.781 150.985C676.572 138.733 676.919 133.971 676.128 132.485C671.894 124.531 661.543 127.394 656.143 138.012C650.075 149.946 648.63 169.418 653.434 174.532C656.375 177.662 660.984 177.74 665.4 174.735ZM89.6398 180.8C87.3023 179.76 85.3898 178.218 85.3898 177.373C85.3898 173.62 91.012 159.737 98.4048 145.236C107.726 126.952 109.118 120.799 105.863 112.276C103.809 106.897 96.0057 97.9847 93.3504 97.9847C91.5838 97.9847 89.578 103.248 85.7284 117.985C84.9382 121.01 83.1358 127.197 81.7229 131.735L79.1541 139.985H73.272C70.0368 139.985 67.3898 139.561 67.3898 139.043C67.3898 138.525 68.9284 133.012 70.8088 126.793C72.6893 120.573 75.7991 110.085 77.7196 103.485C79.6401 96.8847 83.2438 84.5097 85.7277 75.9847C88.4481 66.6485 90.0344 59.4253 89.7168 57.8207C89.1899 55.1585 89.1944 55.1564 96.3119 54.8207C100.229 54.6359 103.874 54.6347 104.412 54.8177C105.931 55.3356 105.571 57.483 103.525 60.0995C101.52 62.6651 96.3898 79.3131 96.3898 83.2563C96.3898 85.0317 97.8014 86.6241 101.842 89.4072C107.58 93.3587 112.821 99.1297 115.988 104.984C117.447 107.68 117.883 110.557 117.886 117.506L117.89 126.527L108.122 146.006C101.164 159.881 97.7592 167.929 96.286 173.984C95.1486 178.659 94.1442 182.531 94.054 182.588C93.9638 182.644 91.9773 181.84 89.6398 180.8ZM95.3898 45.2595C95.3898 44.7357 96.4807 40.7472 97.814 36.396C99.1473 32.0448 101.644 23.8938 103.363 18.2827C108.172 2.57716 111.127 1.04171 129.89 4.4975C134.29 5.30791 141.228 6.42258 145.307 6.97454C157.197 8.5831 158.75 11.6746 151.531 19.3628C145.058 26.2572 130.392 34.6588 112.346 41.8106C104.205 45.0371 95.3898 46.83 95.3898 45.2595ZM127.225 31.9758C132.541 29.221 139.055 25.3716 141.701 23.4217C145.668 20.4985 146.458 19.4034 146.201 17.1805C145.905 14.6141 145.554 14.4526 138.89 13.8162C117.007 11.7264 118.828 11.697 116.039 14.1853C114.336 15.7045 112.719 19.0571 111.275 24.0661C107.063 38.6704 110.766 40.5065 127.225 31.9758Z" fill="#177D7D"/>
<path d="M406.39 194.378C394.274 192.648 392.39 191.821 392.39 188.229C392.39 185.6 392.616 185.453 396.14 185.784C398.203 185.978 401.24 185.608 402.89 184.962C407.505 183.155 425.39 183.224 425.39 185.049C425.39 185.634 424.435 188.334 423.267 191.049C420.836 196.699 421.599 196.549 406.39 194.378ZM451.39 194.8C451.39 194.148 452.329 191.675 453.478 189.303C455.374 185.386 455.81 185.059 458.228 185.737C459.692 186.148 465.782 186.395 471.761 186.287C481.562 186.11 483.01 185.839 486.489 183.537C488.611 182.133 491.102 180.984 492.024 180.984C494.863 180.984 490.67 184.813 484.39 187.954C476.813 191.745 470.262 193.706 461.068 194.937C451.35 196.238 451.39 196.238 451.39 194.8ZM124.791 182.087C114.885 176.047 116.716 149.446 127.957 136.086C132.263 130.97 138.568 127.232 145.211 125.86C150.79 124.708 152.07 124.782 158.321 126.623C164.298 128.383 165.67 128.486 168.323 127.37L171.399 126.077L170.794 130.281C170.462 132.592 168.885 142.674 167.29 152.685C165.695 162.695 164.39 171.963 164.39 173.28C164.39 175.675 166.568 178.271 169.39 179.237C171.425 179.934 162.749 183.933 159.14 183.962C155.718 183.989 152.39 180.795 152.39 177.484C152.39 173.868 149.142 174.234 144.026 178.426C136.815 184.335 130.461 185.544 124.791 182.087ZM147.729 174.105C152.228 169.952 153.247 167.012 155.383 152.034C157.968 133.903 157.939 132.442 154.935 129.439C148.406 122.909 139.384 129.187 134.214 143.859C131.287 152.168 130.65 168.344 133.069 172.955C136.001 178.545 142.379 179.045 147.729 174.105ZM249.897 181.635C248.284 179.173 248.355 178.086 251.376 158.916C254.029 142.085 254.352 138.305 253.343 135.871C251.987 132.598 248.951 131.442 244.103 132.352L240.89 132.956L244.087 130.032C248.954 125.579 256.773 123.835 261.733 126.094C267.109 128.544 267.559 134.7 263.881 155.484C260.503 174.574 260.559 176.731 264.475 178.378L267.561 179.675L263.765 181.476C261.678 182.467 258.085 183.49 255.781 183.749C252.115 184.162 251.38 183.898 249.897 181.635ZM284.805 182.626C277.835 179.449 274.873 171.946 275.67 159.484C276.422 147.722 279.374 140.815 286.802 133.441C293.292 126.998 297.703 124.984 305.322 124.984C309.865 124.984 312.623 126.08 316.14 129.283C319.137 132.013 319.266 139.831 316.391 144.483C312.807 150.282 307.752 152.758 289.64 157.588C287.779 158.084 288.066 168.236 290.059 172.416C291.822 176.114 296.447 178.984 300.642 178.984C301.99 178.984 305.297 177.816 307.991 176.388L312.89 173.793L310.39 176.486C304.66 182.659 291.701 185.768 284.805 182.626ZM298.419 152.47C304.806 149.233 308.349 144 308.999 136.843C310.365 121.823 298.304 122.851 292.56 138.244C290.067 144.925 288.893 151.246 289.737 153.446C290.567 155.608 292.697 155.369 298.419 152.47ZM330.332 183.101C325.635 181.557 323.674 180.084 322.482 177.206C320.91 173.412 322.48 169.25 325.798 168.418C329.384 167.518 330.073 168.334 330.632 174.15C331.415 182.297 336.59 185.016 344.791 181.59C350.945 179.018 353.043 173.082 349.927 167.057C349.123 165.501 345.861 162.532 342.677 160.458C331.575 153.226 328.385 149.056 328.397 141.784C328.407 134.709 333.527 128.951 342.101 126.371C355.629 122.299 368.345 128.078 365.269 136.9C364.219 139.914 360.648 141.88 358.564 140.591C358.047 140.272 357.314 137.533 356.936 134.504C356.437 130.508 355.658 128.585 354.096 127.491C348.008 123.226 338.39 129.268 338.39 137.358C338.39 140.79 342.445 145.265 349.361 149.467C360.662 156.331 364.171 163.033 360.92 171.544C359.299 175.789 355.93 179.162 350.513 181.962C347.589 183.473 333.827 184.25 330.332 183.101ZM526.304 183.09C521.816 181.623 518.846 179.138 516.329 174.743C514.175 170.982 513.897 169.314 513.948 160.484C514.023 147.354 516.487 140.602 523.835 133.39C531.628 125.742 541.55 123.154 551.572 126.157C561.474 129.123 566.764 143.605 563.016 157.484C559.903 169.014 555.345 175.513 546.847 180.54C542.4 183.171 530.913 184.597 526.304 183.09ZM541.881 178.655C546.835 173.484 549.745 165.141 551.43 151.275C552.26 144.445 552.256 140.657 551.416 136.608C550.196 130.731 546.526 125.984 543.204 125.984C535.096 125.984 528.361 137.904 526.252 155.984C524.881 167.745 525.871 176.214 529.061 180.005C532.838 184.493 536.674 184.09 541.881 178.655ZM608.05 182.76C605.694 180.992 606.042 173.07 609.302 154.194C611.761 139.959 611.539 134.669 608.413 132.996C603.804 130.53 597.715 132.572 592.723 138.258C590.089 141.257 589.559 143.021 587.971 154.059C586.988 160.893 585.649 170.084 584.996 174.484L583.809 182.484L577.6 182.782C574.184 182.946 571.39 182.874 571.39 182.622C571.39 182.37 572.295 176.161 573.402 168.824C574.509 161.487 576.16 150.351 577.071 144.078L578.728 132.671L576.091 130.404L573.455 128.136L578.399 127.075C581.119 126.492 585.2 125.718 587.469 125.355L591.595 124.696L591.242 129.571C590.793 135.793 592.885 136.513 598.103 131.931C608.081 123.17 619.998 122.795 623.451 131.132C624.642 134.007 624.42 136.611 621.496 154.09C619.682 164.933 618.476 174.681 618.816 175.751C619.156 176.822 620.421 178.139 621.628 178.677C623.82 179.655 623.819 179.657 621.091 181.444C617.446 183.833 610.423 184.541 608.05 182.76ZM644.39 182.233C633.004 176.545 633.986 151.124 646.158 136.484C652.969 128.291 664.391 123.723 672.75 125.85C678.26 127.252 679.144 126.225 680.409 116.948C682.866 98.9227 682.875 99.5108 680.106 97.3323L677.576 95.3428L685.233 94.1022C689.444 93.4199 693.737 92.615 694.772 92.3136C696.463 91.8213 696.581 92.1548 695.935 95.5982C695.539 97.7062 693.93 108.218 692.359 118.957C690.788 129.697 688.299 146.231 686.829 155.699C685.359 165.168 684.433 174.017 684.771 175.365C685.139 176.83 686.493 178.205 688.138 178.783L690.89 179.75L686.39 181.845C683.915 182.997 680.653 183.95 679.14 183.962C675.682 183.99 672.39 180.785 672.39 177.39C672.39 175.621 671.742 174.627 670.35 174.263C668.562 173.796 668.484 173.529 669.721 172.107C670.498 171.214 671.612 169.555 672.197 168.42C673.783 165.344 677.782 135.681 677.02 132.645C676.636 131.117 675.063 129.349 673.254 128.414C664.91 124.099 655.985 132.179 651.967 147.688C650.137 154.748 649.876 169.762 651.52 173.369C653.16 176.97 657.611 178.559 662.154 177.165C664.153 176.551 665.932 176.193 666.107 176.368C666.77 177.031 658.573 182.071 655.31 183.007C650.512 184.383 648.394 184.233 644.39 182.233ZM182.77 180.606C183.829 176.387 189.39 137.996 189.39 134.905C189.39 133.298 188.53 131.124 187.479 130.073C185.597 128.191 185.676 128.137 192.601 126.573C202.518 124.333 202.39 124.296 202.39 129.377C202.39 132.422 202.866 133.953 203.939 134.365C205.27 134.875 205.149 135.56 203.078 139.222C201.251 142.45 200.115 147.365 198.392 159.484C197.14 168.284 195.822 177.059 195.462 178.984L194.808 182.484L188.478 182.785C182.183 183.084 182.151 183.072 182.77 180.606ZM215.797 181.234C217.156 176.847 222.13 140.076 221.682 137.732C220.838 133.317 218.104 131.644 212.723 132.25L208.007 132.782L210.449 130.817C214.426 127.615 220.642 125.03 224.417 125.006C228.856 124.978 232.199 127.282 234.009 131.615C234.783 133.468 236.116 134.984 236.972 134.984C238.282 134.984 238.22 135.416 236.576 137.734C234.405 140.794 233.511 144.862 230.364 165.984C229.175 173.959 228.034 181.047 227.828 181.734C227.581 182.556 225.366 182.984 221.354 182.984C216.006 182.984 215.322 182.769 215.797 181.234ZM111.857 127.525C111.476 123.962 111.357 119.396 111.592 117.379C111.828 115.361 111.27 110.156 110.354 105.812L108.687 97.9144L111.174 100.199C114.948 103.666 117.493 110.266 117.586 116.83C117.665 122.401 115.149 132.397 113.394 133.482C112.93 133.768 112.239 131.088 111.857 127.525ZM94.4053 82.4008C94.4133 80.7966 94.851 78.8091 95.377 77.9841C96.0282 76.9626 96.1377 77.7601 95.7201 80.4841C94.9623 85.4273 94.385 86.2689 94.4053 82.4008ZM101.39 57.0674C101.39 55.8391 102.036 54.9841 102.963 54.9841C103.895 54.9841 104.405 55.6645 104.213 56.6512C103.727 59.16 101.39 59.5045 101.39 57.0674ZM136.39 28.5193C136.39 28.2636 137.403 27.515 138.64 26.8556C140.68 25.7684 140.762 25.8118 139.518 27.3204C138.24 28.8694 136.39 29.5785 136.39 28.5193ZM146.526 20.8474C147.826 18.9976 149.228 17.3341 149.64 17.1508C151.088 16.5074 150.368 15.2098 148.14 14.4464C146.903 14.0224 140.715 13.1391 134.39 12.4836C126.481 11.6638 124.504 11.2437 128.058 11.1379C134.248 10.9537 136.39 10.2439 136.39 8.37711C136.39 6.35871 138.072 6.66626 140.542 9.13626C142.589 11.183 142.758 11.2008 144.003 9.49903C145.019 8.10867 146.141 7.84425 149.031 8.31333C151.077 8.64536 153.458 9.63462 154.321 10.5117C155.748 11.9616 155.714 12.2369 153.949 13.5452C152.881 14.3366 152.365 14.9841 152.802 14.9841C153.788 14.9841 147.624 22.1635 145.622 23.3474C144.819 23.8223 145.226 22.6973 146.526 20.8474ZM126.202 5.301C126.924 5.01213 127.787 5.04764 128.119 5.37989C128.451 5.71218 127.861 5.94854 126.807 5.90511C125.642 5.85711 125.405 5.62022 126.202 5.301ZM120.659 4.29111C121.632 4.03757 122.982 4.05423 123.659 4.3282C124.336 4.60212 123.54 4.80957 121.89 4.78919C120.24 4.76879 119.686 4.54465 120.659 4.29111Z" fill="#177D7D"/>
</g>
<defs>
<filter id="filter0_d_14_148" x="1.51367" y="1.33594" width="707.891" height="242.429" filterUnits="userSpaceOnUse" color-interpolation-filters="sRGB">
<feFlood flood-opacity="0" result="BackgroundImageFix"/>
<feColorMatrix in="SourceAlpha" type="matrix" values="0 0 0 0 0 0 0 0 0 0 0 0 0 0 0 0 0 0 127 0" result="hardAlpha"/>
<feOffset dx="8" dy="4"/>
<feGaussianBlur stdDeviation="2"/>
<feComposite in2="hardAlpha" operator="out"/>
<feColorMatrix type="matrix" values="0 0 0 0 0.232 0 0 0 0 0.968 0 0 0 0 0.9312 0 0 0 0.5 0"/>
<feBlend mode="normal" in2="BackgroundImageFix" result="effect1_dropShadow_14_148"/>
<feBlend mode="normal" in="SourceGraphic" in2="effect1_dropShadow_14_148" result="shape"/>
</filter>
</defs>
</svg>
