<svg width="744" height="283" viewBox="0 0 744 283" fill="none" xmlns="http://www.w3.org/2000/svg">
<g filter="url(#filter0_d_15_2)">
<path d="M158.266 209.769C159.436 209.769 160.501 209.904 161.461 210.174C162.451 210.414 163.261 210.729 163.891 211.119C164.671 211.599 165.271 212.199 165.691 212.919C166.141 213.609 166.366 214.419 166.366 215.349C166.366 216.399 166.036 217.269 165.376 217.959C164.716 218.619 163.861 218.949 162.811 218.949C161.761 218.949 160.921 218.649 160.291 218.049C159.661 217.449 159.346 216.639 159.346 215.619C159.346 214.659 159.646 213.864 160.246 213.234C160.846 212.574 161.536 212.139 162.316 211.929C162.076 211.629 161.716 211.374 161.236 211.164C160.756 210.954 160.216 210.849 159.616 210.849C158.686 210.849 157.861 211.119 157.141 211.659C156.451 212.199 155.866 212.949 155.386 213.909C154.906 214.869 154.531 215.994 154.261 217.284C154.021 218.574 153.901 219.984 153.901 221.514C153.901 223.824 154.186 225.639 154.756 226.959C155.356 228.279 156.106 229.209 157.006 229.749C157.936 230.289 158.896 230.559 159.886 230.559C160.456 230.559 161.071 230.469 161.731 230.289C162.421 230.109 163.111 229.749 163.801 229.209C164.521 228.669 165.181 227.904 165.781 226.914L166.546 227.184C166.216 228.294 165.676 229.404 164.926 230.514C164.176 231.624 163.201 232.539 162.001 233.259C160.801 233.949 159.331 234.294 157.591 234.294C155.641 234.294 153.871 233.874 152.281 233.034C150.721 232.164 149.461 230.844 148.501 229.074C147.571 227.274 147.106 224.964 147.106 222.144C147.106 219.444 147.586 217.179 148.546 215.349C149.536 213.489 150.871 212.094 152.551 211.164C154.231 210.234 156.136 209.769 158.266 209.769ZM181.221 198.429V229.479C181.221 230.739 181.431 231.594 181.851 232.044C182.301 232.494 183.051 232.719 184.101 232.719V233.664C183.531 233.634 182.676 233.604 181.536 233.574C180.396 233.514 179.241 233.484 178.071 233.484C176.901 233.484 175.716 233.514 174.516 233.574C173.346 233.604 172.461 233.634 171.861 233.664V232.719C172.911 232.719 173.646 232.494 174.066 232.044C174.516 231.594 174.741 230.739 174.741 229.479V203.829C174.741 202.479 174.531 201.489 174.111 200.859C173.721 200.199 172.971 199.869 171.861 199.869V198.924C172.821 199.014 173.751 199.059 174.651 199.059C175.881 199.059 177.051 199.014 178.161 198.924C179.271 198.804 180.291 198.639 181.221 198.429ZM200.336 209.769C202.976 209.769 205.046 210.549 206.546 212.109C208.046 213.669 208.796 216.219 208.796 219.759H193.991L193.901 218.904H203.126C203.156 217.434 203.066 216.084 202.856 214.854C202.646 213.594 202.316 212.589 201.866 211.839C201.416 211.089 200.816 210.714 200.066 210.714C199.016 210.714 198.116 211.374 197.366 212.694C196.646 214.014 196.211 216.204 196.061 219.264L196.196 219.534C196.166 219.894 196.136 220.269 196.106 220.659C196.106 221.049 196.106 221.454 196.106 221.874C196.106 223.944 196.391 225.624 196.961 226.914C197.561 228.204 198.311 229.149 199.211 229.749C200.111 230.319 201.026 230.604 201.956 230.604C202.586 230.604 203.231 230.514 203.891 230.334C204.581 230.124 205.271 229.764 205.961 229.254C206.651 228.714 207.296 227.964 207.896 227.004L208.706 227.274C208.346 228.414 207.776 229.524 206.996 230.604C206.216 231.684 205.226 232.569 204.026 233.259C202.826 233.949 201.386 234.294 199.706 234.294C197.666 234.294 195.866 233.859 194.306 232.989C192.746 232.119 191.516 230.799 190.616 229.029C189.746 227.259 189.311 225.009 189.311 222.279C189.311 219.489 189.776 217.164 190.706 215.304C191.666 213.444 192.971 212.064 194.621 211.164C196.301 210.234 198.206 209.769 200.336 209.769ZM220.761 233.979C219.411 233.979 218.286 233.724 217.386 233.214C216.486 232.704 215.826 232.029 215.406 231.189C214.986 230.319 214.776 229.374 214.776 228.354C214.776 227.064 215.061 226.014 215.631 225.204C216.231 224.394 216.996 223.734 217.926 223.224C218.856 222.714 219.831 222.294 220.851 221.964C221.901 221.634 222.891 221.319 223.821 221.019C224.781 220.689 225.546 220.314 226.116 219.894C226.716 219.444 227.016 218.874 227.016 218.184V214.674C227.016 213.894 226.881 213.204 226.611 212.604C226.371 211.974 225.981 211.494 225.441 211.164C224.931 210.834 224.256 210.669 223.416 210.669C222.816 210.669 222.216 210.759 221.616 210.939C221.016 211.089 220.521 211.359 220.131 211.749C220.971 212.049 221.616 212.514 222.066 213.144C222.546 213.744 222.786 214.434 222.786 215.214C222.786 216.234 222.426 217.044 221.706 217.644C221.016 218.244 220.191 218.544 219.231 218.544C218.151 218.544 217.326 218.214 216.756 217.554C216.216 216.864 215.946 216.039 215.946 215.079C215.946 214.209 216.156 213.489 216.576 212.919C217.026 212.349 217.641 211.809 218.421 211.299C219.261 210.819 220.266 210.444 221.436 210.174C222.636 209.904 223.926 209.769 225.306 209.769C226.686 209.769 227.931 209.919 229.041 210.219C230.151 210.489 231.081 210.999 231.831 211.749C232.521 212.439 232.971 213.294 233.181 214.314C233.391 215.304 233.496 216.564 233.496 218.094V230.334C233.496 231.084 233.571 231.609 233.721 231.909C233.871 232.179 234.126 232.314 234.486 232.314C234.756 232.314 235.011 232.239 235.251 232.089C235.521 231.939 235.806 231.759 236.106 231.549L236.556 232.314C235.926 232.854 235.191 233.274 234.351 233.574C233.541 233.844 232.626 233.979 231.606 233.979C230.496 233.979 229.611 233.829 228.951 233.529C228.291 233.199 227.811 232.764 227.511 232.224C227.241 231.684 227.106 231.054 227.106 230.334C226.386 231.474 225.516 232.374 224.496 233.034C223.476 233.664 222.231 233.979 220.761 233.979ZM223.956 231.099C224.556 231.099 225.096 230.964 225.576 230.694C226.086 230.394 226.566 229.914 227.016 229.254V220.029C226.746 220.479 226.371 220.884 225.891 221.244C225.411 221.604 224.901 221.979 224.361 222.369C223.821 222.729 223.296 223.134 222.786 223.584C222.306 224.034 221.916 224.589 221.616 225.249C221.316 225.909 221.166 226.704 221.166 227.634C221.166 228.804 221.421 229.674 221.931 230.244C222.441 230.814 223.116 231.099 223.956 231.099ZM257.732 209.769C258.992 209.769 260.012 209.934 260.792 210.264C261.602 210.564 262.232 210.984 262.683 211.524C263.162 212.094 263.507 212.829 263.718 213.729C263.957 214.629 264.077 215.844 264.077 217.374V229.479C264.077 230.739 264.287 231.594 264.707 232.044C265.157 232.494 265.907 232.719 266.957 232.719V233.664C266.387 233.634 265.532 233.604 264.392 233.574C263.253 233.514 262.127 233.484 261.017 233.484C259.877 233.484 258.752 233.514 257.642 233.574C256.562 233.604 255.737 233.634 255.167 233.664V232.719C256.067 232.719 256.697 232.494 257.057 232.044C257.417 231.594 257.597 230.739 257.597 229.479V215.484C257.597 214.734 257.522 214.089 257.372 213.549C257.222 212.979 256.952 212.544 256.562 212.244C256.172 211.914 255.587 211.749 254.807 211.749C253.997 211.749 253.247 211.974 252.557 212.424C251.897 212.874 251.357 213.504 250.937 214.314C250.547 215.094 250.352 215.979 250.352 216.969V229.479C250.352 230.739 250.532 231.594 250.892 232.044C251.282 232.494 251.912 232.719 252.782 232.719V233.664C252.242 233.634 251.447 233.604 250.397 233.574C249.377 233.514 248.312 233.484 247.202 233.484C246.062 233.484 244.892 233.514 243.692 233.574C242.492 233.604 241.592 233.634 240.992 233.664V232.719C242.042 232.719 242.777 232.494 243.197 232.044C243.647 231.594 243.872 230.739 243.872 229.479V215.304C243.872 213.954 243.662 212.964 243.242 212.334C242.852 211.674 242.102 211.344 240.992 211.344V210.399C241.952 210.489 242.882 210.534 243.782 210.534C245.042 210.534 246.212 210.489 247.292 210.399C248.402 210.279 249.422 210.114 250.352 209.904V213.954C251.102 212.424 252.122 211.344 253.412 210.714C254.702 210.084 256.142 209.769 257.732 209.769ZM277.634 198.789C278.894 198.789 279.884 199.104 280.604 199.734C281.354 200.334 281.729 201.174 281.729 202.254C281.729 203.334 281.354 204.189 280.604 204.819C279.884 205.419 278.894 205.719 277.634 205.719C276.374 205.719 275.369 205.419 274.619 204.819C273.899 204.189 273.539 203.334 273.539 202.254C273.539 201.174 273.899 200.334 274.619 199.734C275.369 199.104 276.374 198.789 277.634 198.789ZM281.144 209.904V229.479C281.144 230.739 281.354 231.594 281.774 232.044C282.224 232.494 282.974 232.719 284.024 232.719V233.664C283.484 233.634 282.644 233.604 281.504 233.574C280.364 233.514 279.209 233.484 278.039 233.484C276.869 233.484 275.684 233.514 274.484 233.574C273.284 233.604 272.384 233.634 271.784 233.664V232.719C272.834 232.719 273.569 232.494 273.989 232.044C274.439 231.594 274.664 230.739 274.664 229.479V215.304C274.664 213.954 274.454 212.964 274.034 212.334C273.644 211.674 272.894 211.344 271.784 211.344V210.399C272.744 210.489 273.674 210.534 274.574 210.534C275.834 210.534 277.004 210.489 278.084 210.399C279.194 210.279 280.214 210.114 281.144 209.904ZM305.868 209.769C307.128 209.769 308.148 209.934 308.928 210.264C309.738 210.564 310.368 210.984 310.818 211.524C311.298 212.094 311.643 212.829 311.853 213.729C312.093 214.629 312.213 215.844 312.213 217.374V229.479C312.213 230.739 312.423 231.594 312.843 232.044C313.293 232.494 314.043 232.719 315.093 232.719V233.664C314.523 233.634 313.668 233.604 312.528 233.574C311.388 233.514 310.263 233.484 309.153 233.484C308.013 233.484 306.888 233.514 305.778 233.574C304.698 233.604 303.873 233.634 303.303 233.664V232.719C304.203 232.719 304.833 232.494 305.193 232.044C305.553 231.594 305.733 230.739 305.733 229.479V215.484C305.733 214.734 305.658 214.089 305.508 213.549C305.358 212.979 305.088 212.544 304.698 212.244C304.308 211.914 303.723 211.749 302.943 211.749C302.133 211.749 301.383 211.974 300.693 212.424C300.033 212.874 299.493 213.504 299.073 214.314C298.683 215.094 298.488 215.979 298.488 216.969V229.479C298.488 230.739 298.668 231.594 299.028 232.044C299.418 232.494 300.048 232.719 300.918 232.719V233.664C300.378 233.634 299.583 233.604 298.533 233.574C297.513 233.514 296.448 233.484 295.338 233.484C294.198 233.484 293.028 233.514 291.828 233.574C290.628 233.604 289.728 233.634 289.128 233.664V232.719C290.178 232.719 290.913 232.494 291.333 232.044C291.783 231.594 292.008 230.739 292.008 229.479V215.304C292.008 213.954 291.798 212.964 291.378 212.334C290.988 211.674 290.238 211.344 289.128 211.344V210.399C290.088 210.489 291.018 210.534 291.918 210.534C293.178 210.534 294.348 210.489 295.428 210.399C296.538 210.279 297.558 210.114 298.488 209.904V213.954C299.238 212.424 300.258 211.344 301.548 210.714C302.838 210.084 304.278 209.769 305.868 209.769ZM328.342 242.124C326.482 242.124 324.817 241.959 323.347 241.629C321.907 241.329 320.767 240.849 319.927 240.189C319.117 239.559 318.712 238.779 318.712 237.849C318.712 236.919 319.132 236.079 319.972 235.329C320.812 234.609 322.057 234.039 323.707 233.619L324.112 234.339C323.542 234.789 323.122 235.269 322.852 235.779C322.612 236.319 322.492 236.874 322.492 237.444C322.492 238.704 323.062 239.664 324.202 240.324C325.372 241.014 326.947 241.359 328.927 241.359C330.277 241.359 331.477 241.179 332.527 240.819C333.607 240.459 334.447 239.919 335.047 239.199C335.677 238.479 335.992 237.594 335.992 236.544C335.992 235.644 335.662 234.879 335.002 234.249C334.342 233.649 333.022 233.349 331.042 233.349H328.252C327.022 233.349 325.942 233.214 325.012 232.944C324.112 232.674 323.407 232.254 322.897 231.684C322.387 231.084 322.132 230.334 322.132 229.434C322.132 228.174 322.627 227.064 323.617 226.104C324.607 225.144 326.077 224.244 328.027 223.404L328.477 223.764C327.907 224.124 327.367 224.514 326.857 224.934C326.377 225.324 326.137 225.834 326.137 226.464C326.137 227.424 326.737 227.904 327.937 227.904H332.842C334.492 227.904 335.962 228.099 337.252 228.489C338.572 228.879 339.607 229.524 340.357 230.424C341.137 231.294 341.527 232.434 341.527 233.844C341.527 235.314 341.047 236.679 340.087 237.939C339.157 239.199 337.717 240.204 335.767 240.954C333.817 241.734 331.342 242.124 328.342 242.124ZM328.792 224.079C327.082 224.079 325.552 223.824 324.202 223.314C322.852 222.804 321.787 222.024 321.007 220.974C320.227 219.924 319.837 218.574 319.837 216.924C319.837 215.274 320.227 213.924 321.007 212.874C321.787 211.794 322.852 211.014 324.202 210.534C325.552 210.024 327.082 209.769 328.792 209.769C330.502 209.769 332.032 210.024 333.382 210.534C334.732 211.014 335.797 211.794 336.577 212.874C337.357 213.924 337.747 215.274 337.747 216.924C337.747 218.574 337.357 219.924 336.577 220.974C335.797 222.024 334.732 222.804 333.382 223.314C332.032 223.824 330.502 224.079 328.792 224.079ZM328.792 223.269C329.602 223.269 330.232 222.819 330.682 221.919C331.132 220.989 331.357 219.324 331.357 216.924C331.357 214.524 331.132 212.874 330.682 211.974C330.232 211.044 329.602 210.579 328.792 210.579C328.012 210.579 327.382 211.044 326.902 211.974C326.452 212.874 326.227 214.524 326.227 216.924C326.227 219.324 326.452 220.989 326.902 221.919C327.382 222.819 328.012 223.269 328.792 223.269ZM335.812 213.639L334.912 213.324C335.362 212.154 336.082 211.179 337.072 210.399C338.092 209.619 339.187 209.229 340.357 209.229C341.317 209.229 342.037 209.499 342.517 210.039C343.027 210.549 343.282 211.224 343.282 212.064C343.282 212.964 343.042 213.639 342.562 214.089C342.082 214.509 341.542 214.719 340.942 214.719C340.432 214.719 339.952 214.539 339.502 214.179C339.082 213.819 338.842 213.279 338.782 212.559C338.722 211.809 338.977 210.849 339.547 209.679L339.862 209.949C338.722 210.369 337.867 210.864 337.297 211.434C336.727 211.974 336.232 212.709 335.812 213.639Z" fill="#177D7D"/>
<path d="M87.1913 242.547C74.3597 238.834 73.2145 218.987 85.4957 213.159C90.6772 210.7 96.2356 211.636 100.394 215.666C108.611 223.63 106.588 237.151 96.4936 241.735C91.8986 243.822 91.667 243.842 87.1913 242.547ZM97.953 234.726C105.496 227.183 97.121 213.368 87.8971 218.138C84.2494 220.024 82.8761 222.458 82.8761 227.036C82.8761 236.716 91.5423 241.136 97.953 234.726ZM5.36021 237.623C5.01155 237.059 4.48388 234.246 4.18761 231.373C3.74918 227.121 4.01934 225.692 5.63933 223.692C7.55869 221.323 8.24978 221.204 25.0029 220.375L42.3761 219.515L45.2984 215.832C51.3545 208.199 61.3118 199.56 67.6473 196.441C78.4234 191.136 90.1113 191.282 96.3975 196.802C101.525 201.303 100.855 204.647 95.526 201.155C88.6195 196.63 77.1908 198.863 68.8418 206.37C64.3298 210.426 63.9182 211.119 65.2376 212.439C66.557 213.758 67.3163 213.496 71.8853 210.142C80.9409 203.495 87.985 202.153 95.6261 205.622C97.9665 206.684 99.8761 208.247 99.8761 209.1C99.8761 210.916 98.715 211.009 93.6416 209.6C88.5192 208.178 83.0822 209.79 79.211 213.879C74.8919 218.442 73.8088 220.932 73.7648 226.401C73.7015 234.259 73.4104 234.647 67.5587 234.664C64.7083 234.672 50.6761 235.566 36.3761 236.649C5.89579 238.958 6.17946 238.949 5.36021 237.623ZM409.137 204.107C403.506 203.383 397.952 202.49 396.796 202.123C394.077 201.26 391.834 195.841 392.413 191.53C392.662 189.67 393.802 179.374 394.946 168.649C397.25 147.052 399.688 134.298 403.856 122.043C406.425 114.491 408.449 110.335 418.219 92.558C420.728 87.992 421.923 84.459 422.108 81.058L422.376 76.1488L435.529 75.8705L448.681 75.5921L449.029 84.8705C449.456 96.288 453.289 106.903 459.126 112.837C462.299 116.063 463.528 116.649 467.112 116.649C476.779 116.649 490.624 105.257 494.951 93.7436C497.936 85.7988 497.397 75.5461 493.701 69.9596C490.633 65.324 483.26 60.1153 477.424 58.4597C472.167 56.9687 471.495 56.3017 472.245 53.3165C472.814 51.0474 473.226 50.8832 477.121 51.3741C479.461 51.669 482.894 52.5265 484.748 53.2796C488.627 54.8546 491.251 55.0643 490.429 53.7337C489.439 52.1329 476.254 47.5664 474.531 48.2276C473.38 48.6692 472.876 48.3306 472.876 47.1165C472.876 45.6025 473.559 45.4511 478.011 45.9784C480.835 46.3128 485.898 47.8825 489.261 49.4665C502.489 55.6965 510.28 64.8602 513.524 78.0039C517.688 94.8797 509.115 113.301 491.911 124.445L486.446 127.985L489.385 130.067C496.46 135.08 503.768 142.97 505.878 147.874C515.981 171.36 503.676 194.308 476.876 201.962C469.928 203.946 454.321 206.033 452.282 205.251C450.395 204.527 450.84 202.856 455.633 192.649C457.571 188.524 459.704 183.128 460.374 180.658C461.528 176.407 461.828 176.125 465.984 175.381C471.239 174.44 475.375 175.066 481.112 177.67C487.096 180.385 492.122 180.175 497.572 176.981C504.574 172.878 508.056 163.207 504.408 157.997C502.601 155.418 497.914 153.464 461.689 140.188C427.459 127.644 424.863 126.878 421.594 128.368C418.829 129.627 414.873 137.301 414.882 141.388C414.891 145.637 416.808 151.581 418.819 153.592C419.816 154.589 423.499 156.364 427.004 157.537C431.249 158.958 434.79 161.022 437.612 163.721L441.847 167.772L439.487 172.46C438.189 175.039 434.55 183.224 431.401 190.649C428.251 198.074 425.157 204.479 424.525 204.883C423.091 205.801 421.8 205.736 409.137 204.107ZM476.145 189.399C476.855 187.365 475.794 185.649 473.828 185.649C471.623 185.649 470.493 187.208 471.256 189.197C471.938 190.974 475.544 191.123 476.145 189.399ZM414.229 185.811C415.786 184.091 415.764 183.857 413.884 182.156C411.943 180.4 411.809 180.4 409.868 182.156C407.988 183.857 407.966 184.091 409.523 185.811C410.438 186.822 411.497 187.649 411.876 187.649C412.256 187.649 413.315 186.822 414.229 185.811ZM427.689 171.384C428.073 169.387 425.221 167.904 423.776 169.349C422.377 170.748 423.844 173.802 425.74 173.436C426.627 173.266 427.504 172.342 427.689 171.384ZM417.764 113.879C422.315 102.512 422.84 99.8974 419.817 103.649C413.927 110.959 407.547 128.622 406.399 140.801L405.8 147.149L409.726 135.649C411.885 129.324 415.502 119.527 417.764 113.879ZM128.376 192.246C122.099 189.475 118.876 182.972 118.876 173.075C118.876 151.881 130.6 134.925 147.62 131.506C153.347 130.355 154.441 130.437 160.832 132.495C167.418 134.617 167.973 134.65 170.953 133.109C172.73 132.19 174.484 131.856 174.972 132.345C175.461 132.833 174.973 138.869 173.854 146.18C168.224 182.982 168.4 181.37 169.816 183.077C170.805 184.269 172.061 184.517 174.643 184.033C179.43 183.135 178.635 185.213 172.639 189.274C162.986 195.811 155.933 194.364 152.539 185.149C152.336 184.599 150.235 185.688 147.87 187.569C140.71 193.263 134.212 194.822 128.376 192.246ZM147.041 181.899C152.061 178.944 153.616 175.112 155.822 160.268C158.307 143.55 158.357 140.837 156.221 138.478C152.148 133.976 144.74 137.977 140.541 146.945C137.285 153.901 135.876 161.088 135.876 170.743C135.876 177.9 136.134 178.997 138.331 181.194C141.242 184.105 143.044 184.251 147.041 181.899ZM253.251 192.664C248.784 190.86 248.6 186.887 252.011 165.938C255.647 143.617 255.434 141.649 249.383 141.649C246.78 141.649 244.919 142.507 242.335 144.899C239.027 147.96 238.713 148.818 236.946 159.649C235.915 165.974 234.507 175.199 233.819 180.149C232.085 192.623 232.066 192.649 224.541 192.649C221.095 192.649 217.821 192.194 217.266 191.638C216.585 190.958 217.129 184.837 218.931 172.888C220.402 163.132 221.919 153.017 222.3 150.413C222.916 146.212 222.715 145.397 220.525 143.207C218.389 141.071 217.616 140.863 214.806 141.669C210.884 142.794 207.397 145.902 206.024 149.498C205.468 150.956 203.835 160.249 202.396 170.149C200.957 180.049 199.361 189.161 198.849 190.399C198.022 192.401 197.214 192.649 191.52 192.649C187.606 192.649 184.729 192.163 184.111 191.399C183.128 190.184 183.56 186.614 188.339 156.444C190.457 143.071 190.356 140.211 187.701 138.448C183.776 135.843 186.025 134.025 195.299 132.304C200.018 131.429 204.553 130.971 205.378 131.288C206.354 131.662 206.876 133.219 206.876 135.756C206.876 140.272 207.666 140.531 211.549 137.289C221.252 129.191 233.345 128.854 237.335 136.57C238.211 138.263 239.362 139.649 239.893 139.649C240.424 139.649 242.898 138.092 245.391 136.189C249.697 132.902 255.258 130.667 259.158 130.654C262.735 130.643 267.777 133.557 269.31 136.52C271.455 140.669 271.291 145.001 268.317 162.613C266.91 170.949 265.897 179.205 266.067 180.959C266.359 183.97 266.587 184.136 270.126 183.929C272.189 183.808 273.876 184.067 273.876 184.504C273.876 185.997 269.384 189.521 264.876 191.565C260.088 193.735 256.698 194.056 253.251 192.664ZM288.79 192.753C280.796 190.146 276.81 183.98 276.101 173.122C274.693 151.571 287.368 133.036 304.938 130.955C310.935 130.245 317.918 132.616 320.865 136.362C323.281 139.433 323.597 147.369 321.465 151.448C318.209 157.681 310.638 162.43 299.498 165.229L292.876 166.892V171.82C292.876 183.374 300.012 187.609 310.28 182.149C314.863 179.712 317.876 178.98 317.876 180.304C317.876 182.262 312.45 187.563 307.925 190.026C302.382 193.043 293.543 194.302 288.79 192.753ZM299.858 158.658C305.704 155.676 309.134 150.58 309.674 144.078C311.068 127.265 296.628 137.908 294.313 155.399C293.517 161.413 293.955 161.67 299.858 158.658ZM333.151 192.741C322.968 190.123 318.939 180.22 326.036 175.25C330.975 171.79 334.876 174.357 334.876 181.065C334.876 186.31 337.112 188.649 342.128 188.649C347.239 188.649 351.876 184.589 351.876 180.116C351.876 175.89 349.4 173.037 340.404 166.903C335.988 163.891 332.603 160.683 331.171 158.149C328.544 153.503 328.181 146.894 330.325 142.748C336.516 130.775 358.011 126.63 367.047 135.666C370.772 139.39 370.93 144.686 367.422 148.194C362.877 152.739 357.876 150.436 357.876 143.8C357.876 135.702 351.451 132.921 345.799 138.572C342.213 142.158 341.959 146.374 345.126 149.77C346.364 151.097 350.613 154.33 354.568 156.954C363.177 162.665 366.107 166.874 366.107 173.53C366.107 181.282 361.401 187.861 353.492 191.165C348.947 193.064 337.775 193.929 333.151 192.741ZM527.969 192.419C513.508 187.539 509.458 165.062 519.659 146.301C527.095 132.625 545.79 126.72 558.349 134.08C565.919 138.516 570.117 150.485 568.041 161.711C564.486 180.939 553.815 192.034 537.827 193.128C534.279 193.371 529.843 193.052 527.969 192.419ZM543.174 185.284C547.192 181.266 550.318 172.122 551.938 159.649C554.358 141.012 549.103 130.963 540.483 137.743C535.432 141.717 531.647 152.359 530.315 166.336C528.495 185.428 534.372 194.087 543.174 185.284ZM609.511 191.576C607.27 189.814 606.876 188.729 606.876 184.324C606.876 181.476 607.774 174.434 608.871 168.676C613.073 146.624 612.675 141.649 606.709 141.649C603.112 141.649 597.73 144.697 595.608 147.935C594.18 150.115 592.52 158.866 589.42 180.573C588.582 186.435 587.372 191.352 586.653 191.808C584.976 192.872 574.748 192.854 573.06 191.784C571.994 191.108 572.458 186.242 575.505 166.165L579.266 141.381L576.571 139.063C575.089 137.788 573.876 136.308 573.876 135.774C573.876 134.563 578.487 133.076 586.704 131.639C594.195 130.329 595.876 131.178 595.876 136.271C595.876 140.268 596.752 140.459 600.549 137.289C610.956 128.604 622.828 128.931 627.269 138.025L629.161 141.901L625.855 161.627C624.036 172.476 622.854 182.149 623.228 183.123C623.746 184.473 624.606 184.753 626.853 184.303C631.249 183.424 631.36 185.104 627.135 188.589C620.838 193.784 613.828 194.972 609.511 191.576ZM646.3 191.629C639.874 188.449 637.376 183.136 637.376 172.649C637.376 158.222 642.746 146.006 652.611 137.988C658.934 132.85 664.191 131.147 673.06 131.364C680.736 131.552 679.796 133.036 681.999 117.254L683.241 108.359L680.559 106.052C675.774 101.936 676.101 101.716 690.571 99.3195C695.078 98.573 699.199 98.2301 699.729 98.5575C700.659 99.1323 697.548 122.771 691.389 161.932C689.938 171.164 688.891 179.939 689.063 181.432C689.356 183.973 689.657 184.131 693.719 183.87C699.258 183.515 698.926 185.017 692.502 189.365C683.851 195.221 676.099 194.674 673.7 188.038C673.026 186.174 672.062 184.649 671.557 184.649C671.053 184.649 669.125 185.979 667.272 187.606C664.184 190.317 655.73 193.65 651.945 193.648C651.082 193.647 648.542 192.739 646.3 191.629ZM669.561 179.47C671.405 177.682 673.312 174.628 673.798 172.684C675.387 166.32 678.22 141.987 677.568 140.289C676.653 137.904 672.47 136.283 669.291 137.081C667.788 137.458 665.127 139.203 663.377 140.958C655.164 149.196 651.056 175.829 657.071 181.844C659.919 184.692 665.21 183.687 669.561 179.47ZM92.8761 190.162C91.5011 189.369 89.6152 188.704 88.6851 188.684C87.7551 188.665 86.7164 188.199 86.377 187.65C84.9356 185.318 89.4349 172.955 97.8411 156.149C107.678 136.483 109.766 129.668 107.984 123.051C105.734 114.694 97.077 105.088 94.9286 108.564C94.4789 109.291 91.7395 118.271 88.841 128.518C85.9424 138.765 83.1344 147.711 82.601 148.399C81.2575 150.13 68.9852 150.097 68.3185 148.359C67.9072 147.287 76.124 118.522 88.4971 77.7176C90.0943 72.4501 90.8314 68.175 90.4612 66.3244C89.5484 61.7602 91.2042 60.6487 98.9168 60.6487C102.654 60.6487 106.424 60.9218 107.294 61.2557C109.409 62.067 109.294 65.2373 107.034 68.4943C106.02 69.9542 103.899 75.8297 102.32 81.5509L99.449 91.9532L101.913 93.5371C106.518 96.4986 116.075 106.134 118.388 110.149C119.656 112.349 121.206 116.686 121.832 119.787C123.539 128.233 121.404 135.741 112.41 152.922C104.435 168.156 101.506 175.45 99.4646 185.149C98.1002 191.632 96.9463 192.51 92.8761 190.162ZM426.322 70.5617C425.953 69.9637 426.151 68.9737 426.763 68.3617C430.361 64.7635 426.102 58.3446 419.265 57.062C416.827 56.6045 415.693 55.768 415.28 54.1205C414.485 50.9542 417.477 45.0703 421.249 42.3791C424.108 40.3402 425.492 40.1524 437.376 40.1914C444.526 40.2148 452.084 40.5766 454.172 40.9954L457.969 41.7568L457.672 47.9451L457.376 54.1334L451.12 57.6411C444.613 61.2891 442.581 64.3833 444.876 67.149C445.549 67.9599 445.839 69.304 445.519 70.1361C445.061 71.3308 443.053 71.6488 435.967 71.6488C430.584 71.6488 426.725 71.2138 426.322 70.5617ZM401.834 69.0986C400.772 67.818 400.837 67.259 402.212 65.8843C403.764 64.3322 403.988 64.3322 405.54 65.8843C406.915 67.259 406.981 67.818 405.918 69.0986C405.21 69.9512 404.291 70.6488 403.876 70.6488C403.461 70.6488 402.542 69.9512 401.834 69.0986ZM390.986 57.2815C390.123 56.2414 390.214 55.6137 391.364 54.659C393.482 52.901 396.482 55.2135 394.766 57.2815C394.142 58.0335 393.291 58.6488 392.876 58.6488C392.461 58.6488 391.61 58.0335 390.986 57.2815ZM96.5183 53.8788C95.7681 52.6651 106.722 17.4321 108.715 14.6488C109.7 13.2738 112.189 11.3121 114.247 10.2895C117.944 8.45266 118.183 8.46206 134.182 11.0728C143.089 12.5262 151.777 13.9341 153.489 14.2016C157.716 14.862 160.294 17.8495 159.469 21.1337C158.659 24.3603 152.767 30.9397 147.348 34.6678C141.324 38.8124 124.79 46.998 114.164 51.096C105.572 54.4093 97.6212 55.6633 96.5183 53.8788ZM129.881 38.0569C145.307 30.042 151.128 24.7422 146.126 23.2677C145.164 22.984 139.08 22.4419 132.606 22.0632C118.324 21.2274 118.088 21.3685 114.869 32.6734C113.029 39.1355 112.841 40.902 113.864 42.134C115.919 44.6107 118.562 43.9381 129.881 38.0569ZM461.274 52.244C460.978 51.4713 460.879 49.3338 461.056 47.494C461.48 43.069 464.963 42.3256 467.455 46.1285C468.825 48.2202 468.94 49.2131 468.039 51.1898C466.787 53.9391 462.199 54.654 461.274 52.244ZM401.233 43.1361C400.914 42.304 401.217 40.9427 401.908 40.1108C403.023 38.7666 403.369 38.7849 405.016 40.2754C406.425 41.5506 406.601 42.2753 405.75 43.3006C404.26 45.0961 401.953 45.012 401.233 43.1361Z" fill="#177D7D"/>
<path d="M84.7695 240.209C80.4825 237.785 78.5428 233.847 78.5428 227.568C78.5428 220.593 81.0768 216.586 86.9806 214.224C92.0283 212.204 96.16 213.248 100.326 217.596C105.298 222.786 104.815 233.539 99.3798 238.645C96.3119 241.527 88.5664 242.357 84.7695 240.209ZM99.0414 235.99C104.065 231.177 103.929 223.856 98.7191 218.645C96.3333 216.26 94.8586 215.649 91.4863 215.649C85.5951 215.649 81.7508 219.646 81.1916 226.352C80.6959 232.297 82.3153 235.59 86.8901 237.938C91.2423 240.172 95.3671 239.511 99.0414 235.99ZM6.47174 235.803C4.98082 233.391 4.83009 227.023 6.21974 225.157C7.54183 223.382 9.63053 223.044 25.4311 222.05L43.1591 220.935L46.7135 216.542C56.051 205.001 66.1751 197.535 75.8248 195.075C83.0665 193.229 89.4139 193.672 93.9273 196.338C98.2834 198.911 98.58 200.841 94.3476 199.072C86.0091 195.588 74.9265 198.381 66.515 206.085C59.0829 212.893 64.5182 217.932 72.429 211.568C74.6 209.822 77.8242 207.776 79.5941 207.021C83.787 205.233 92.7007 205.323 95.8762 207.186C98.2396 208.573 98.0955 208.619 93.237 208.037C86.4381 207.222 81.8156 208.867 77.5087 213.634C73.7927 217.747 71.8909 222.855 71.8818 228.748L71.8758 232.348L61.1258 233.015C55.2133 233.382 40.9258 234.34 29.3758 235.144C17.8258 235.948 8.06482 236.616 7.68478 236.628C7.30474 236.639 6.7591 236.268 6.47174 235.803ZM411.876 203.171C393.692 200.803 393.285 200.492 394.294 189.772C396.286 168.603 398.356 161.848 400.748 168.71C401.989 172.271 403.545 172.471 405.01 169.255C405.976 167.134 406.881 166.818 412.965 166.474C419.118 166.126 420.182 165.745 423.221 162.799C426.551 159.571 426.674 159.539 429.994 161.019C431.854 161.848 434.933 163.856 436.836 165.482C439.842 168.052 440.118 168.652 438.947 170.064C438.205 170.957 434.62 178.987 430.981 187.906C426.794 198.166 423.815 204.176 422.87 204.266C422.048 204.344 417.101 203.851 411.876 203.171ZM415.424 187.003C418.244 183.96 418.472 182.815 416.414 182.025C415.61 181.716 414.68 180.606 414.347 179.556C413.54 177.015 409.837 177.081 409.166 179.649C408.878 180.749 408.231 181.649 407.728 181.649C405.646 181.649 405.814 184.804 408.02 187.13C411.025 190.298 412.391 190.275 415.424 187.003ZM428.562 174.474C431.299 171.903 431.481 169.974 429.221 167.477C427.145 165.184 424.487 165.145 421.888 167.371C419.288 169.597 419.348 171.309 422.126 174.241C424.911 177.179 425.654 177.206 428.562 174.474ZM452.891 202.399C452.899 201.711 455.148 196.483 457.891 190.781C460.633 185.079 462.876 179.566 462.876 178.531C462.876 176.902 463.665 176.649 468.749 176.649C472.62 176.649 476.284 177.391 479.499 178.825C485.762 181.62 492.182 181.6 497.506 178.769C502.659 176.028 504.45 174.069 506.361 169.082L507.869 165.149L507.308 169.649C506.497 176.154 501.499 185.853 496.745 190.148C491.277 195.088 480.156 200.184 470.668 202.096C461.161 204.011 452.87 204.153 452.891 202.399ZM476.98 190.529C478.926 188.285 478.458 186.207 475.444 183.705C473.438 182.04 471.679 182.78 469.946 186.018C468.704 188.338 468.751 188.853 470.367 190.639C472.701 193.217 474.677 193.184 476.98 190.529ZM128.3 190.788C123.294 188.472 121.026 184.149 120.24 175.423C118.86 160.117 126.919 142.81 138.619 135.954C144.652 132.418 155.797 131.583 162.545 134.16C166.485 135.665 167.715 135.747 170.61 134.7C172.489 134.021 174.15 133.619 174.302 133.807C174.453 133.995 173.53 140.674 172.25 148.649C166.712 183.16 166.721 184.643 172.476 185.657L175.363 186.166L172.369 188.294C165.077 193.478 156.317 193.102 155.208 187.557C154.211 182.573 152.357 182.02 148.374 185.517C140.976 192.012 134.579 193.692 128.3 190.788ZM149.38 181.512C151.345 179.786 153.403 177.534 153.953 176.506C154.503 175.478 156.043 167.352 157.376 158.449C160.048 140.596 159.78 138.328 154.709 135.898C151.759 134.484 147.836 135.473 144.519 138.468C138.006 144.349 132.685 164.947 134.78 176.166C136.415 184.916 142.828 187.264 149.38 181.512ZM253.876 191.361C250.335 189.578 250.229 184.776 253.316 165.83C256.588 145.746 256.58 144.347 253.169 141.665C250.14 139.282 247.02 139.549 242.876 142.548C238.464 145.742 237.13 149.7 234.419 167.649C232.965 177.274 231.538 186.386 231.247 187.899C230.735 190.558 230.506 190.649 224.297 190.649C220.765 190.649 217.876 190.239 217.876 189.739C217.876 189.238 218.789 182.826 219.904 175.489C224.19 147.287 224.298 145.942 222.494 143.188C220.164 139.632 216.857 139.108 212.093 141.538C205.694 144.802 204.422 147.983 201.446 168.149C199.985 178.049 198.576 187.161 198.314 188.399C197.878 190.458 197.276 190.649 191.218 190.649H184.598L185.224 185.899C185.569 183.286 187.158 172.388 188.756 161.68C191.722 141.801 191.659 138.547 188.286 137.252C187.256 136.857 186.917 136.231 187.459 135.723C188.676 134.581 198.085 132.649 202.425 132.649C205.776 132.649 205.876 132.763 205.876 136.59C205.876 138.757 206.302 140.794 206.822 141.115C207.342 141.437 210.141 139.904 213.042 137.709C222.684 130.411 232.417 130.491 236.376 137.9C237.476 139.959 238.836 141.645 239.398 141.646C239.961 141.647 241.986 140.364 243.898 138.794C251.938 132.196 260.443 130.454 265.675 134.334C270.274 137.745 270.489 142.54 266.986 163.505C263.657 183.429 263.816 185.649 268.566 185.649C271.096 185.649 271.126 185.716 269.43 187.589C267.819 189.37 259.983 192.669 257.448 192.634C256.859 192.626 255.251 192.053 253.876 191.361ZM288.531 191.24C283.039 189.21 280.057 185.997 278.358 180.276C274.404 166.961 279.165 149.168 289.142 139.971C294.667 134.878 296.615 133.826 302.612 132.695C313.424 130.654 321.876 135.511 321.876 143.765C321.876 148.734 318.825 154.837 314.968 157.583C311.274 160.214 299.635 164.649 296.425 164.649C292.305 164.649 290.564 167.362 291.206 172.783C291.516 175.4 292.435 178.828 293.248 180.4C296.17 186.052 303.613 187.204 310.769 183.113C316.125 180.052 317.195 180.663 313.405 184.619C307.439 190.846 295.829 193.936 288.531 191.24ZM302.134 158.7C307.768 155.128 310.876 149.588 310.876 143.123C310.876 137.043 309.506 134.649 306.028 134.649C302.531 134.649 298.68 138.567 295.993 144.859C293.815 149.959 291.981 158.464 292.636 160.428C293.327 162.502 297.271 161.785 302.134 158.7ZM334.376 191.778C330.408 190.744 326.662 188.694 325.158 186.735C323.245 184.244 323.626 178.899 325.876 176.649C329.992 172.533 333.876 175.063 333.876 181.86C333.876 187.445 336.177 189.649 342.01 189.649C348.516 189.649 352.876 185.841 352.876 180.16C352.876 174.975 351.634 173.229 344.602 168.532C332.503 160.449 328.851 154.927 330.344 146.968C331.068 143.108 335.852 137.23 340.025 135.072C352.33 128.709 369.482 133.147 368.676 142.485C368.28 147.062 364.161 150.407 361.001 148.716C359.347 147.83 358.876 146.638 358.876 143.336C358.876 137.264 356.729 134.649 351.743 134.649C346.328 134.649 341.876 138.893 341.876 144.056C341.876 148.506 345.003 152.12 353.862 157.91C361.958 163.201 364.882 167.358 364.86 173.547C364.835 180.44 361.538 185.495 354.857 188.884C348.989 191.86 339.715 193.171 334.376 191.778ZM529.019 191.186C523.624 189.466 520.145 186.352 517.806 181.149C513.723 172.067 514.545 159.209 519.885 148.632C526.095 136.328 538.756 130.039 551.87 132.744C561.929 134.818 566.887 142.594 566.865 156.265C566.835 175.792 555.434 190.097 538.376 192.013C535.324 192.356 531.679 192.034 529.019 191.186ZM543.629 186.399C547.929 181.955 550.514 175.665 552.337 165.211C554.891 150.565 554.03 140.803 549.811 136.584C547.305 134.077 542.823 134.116 539.572 136.673C533.23 141.662 528.368 159.491 529.057 175.232C529.413 183.389 529.77 184.907 531.845 187.116C535.287 190.78 539.646 190.514 543.629 186.399ZM611.144 191.436C607.555 189.704 607.381 185.017 610.268 167.838C612.935 151.969 613.449 145.053 612.111 143.048C609.029 138.432 602.421 139.442 596.632 145.414C593.058 149.102 592.98 149.363 590.433 166.149C589.015 175.499 587.595 184.836 587.277 186.899L586.7 190.649H579.769C573.093 190.649 572.857 190.566 573.36 188.399C574.416 183.848 579.876 145.562 579.876 142.709C579.876 140.803 579.096 139.216 577.667 138.215C576.288 137.249 575.818 136.328 576.417 135.765C577.681 134.576 587.032 132.649 591.539 132.649H595.103L594.428 137.149C593.826 141.167 593.961 141.649 595.692 141.649C596.759 141.649 598.227 140.931 598.955 140.054C599.682 139.177 602.55 137.157 605.327 135.564C609.249 133.314 611.635 132.665 616.015 132.658C627.405 132.639 628.88 137.972 624.42 163.03C622.963 171.215 621.907 179.538 622.074 181.526C622.333 184.622 622.786 185.212 625.237 185.644C628.093 186.148 628.094 186.151 626.053 187.994C623.896 189.941 617.41 192.577 614.876 192.537C614.051 192.524 612.372 192.029 611.144 191.436ZM649.818 191.676C639.948 188.776 636.137 178.643 639.287 163.679C641.355 153.858 645.128 146.622 651.088 141.047C658.306 134.295 663.554 132.301 672.576 132.88C676.627 133.14 680.188 132.953 680.49 132.464C681.335 131.097 683.868 114.613 683.872 110.455C683.875 107.759 683.269 106.334 681.626 105.177C679.814 103.9 679.648 103.423 680.775 102.72C682.652 101.549 697.793 99.232 698.559 99.9987C699.248 100.688 697.517 113.74 691.776 151.149C689.582 165.449 687.919 178.949 688.081 181.149C688.356 184.876 688.614 185.185 691.876 185.688L695.376 186.227L691.876 188.453C686.553 191.839 681.881 192.996 678.601 191.741C675.776 190.66 675.502 190.243 674.441 185.399C673.673 181.896 672.558 181.941 667.858 185.663C661.687 190.551 654.332 193.002 649.818 191.676ZM667.886 182.399C673.886 178.315 674.691 176.279 677.268 158.649C679.059 146.397 679.405 141.635 678.614 140.149C674.38 132.195 664.029 135.058 658.63 145.676C652.561 157.61 651.116 177.082 655.92 182.196C658.861 185.326 663.471 185.404 667.886 182.399ZM92.1262 188.464C89.7887 187.424 87.8762 185.882 87.8762 185.037C87.8762 181.284 93.4984 167.401 100.891 152.9C110.212 134.616 111.605 128.463 108.35 119.94C106.296 114.561 98.492 105.649 95.8367 105.649C94.0701 105.649 92.0643 110.912 88.2148 125.649C87.4246 128.674 85.6221 134.861 84.2092 139.399L81.6405 147.649H75.7583C72.5231 147.649 69.8762 147.225 69.8762 146.707C69.8762 146.189 71.4147 140.676 73.2952 134.457C75.1756 128.237 78.2855 117.749 80.206 111.149C82.1265 104.549 85.7301 92.1737 88.2141 83.6487C90.9344 74.3125 92.5207 67.0894 92.2031 65.4847C91.6763 62.8225 91.6807 62.8205 98.7983 62.4847C102.716 62.2999 106.361 62.2987 106.898 62.4817C108.418 62.9997 108.057 65.1471 106.012 67.7635C104.006 70.3291 98.8762 86.9771 98.8762 90.9203C98.8762 92.6958 100.288 94.2882 104.329 97.0713C110.066 101.023 115.307 106.794 118.475 112.648C119.933 115.344 120.369 118.221 120.372 125.17L120.376 134.191L110.608 153.67C103.65 167.545 100.246 175.593 98.7724 181.648C97.6349 186.323 96.6305 190.195 96.5403 190.252C96.4501 190.308 94.4637 189.504 92.1262 188.464ZM97.8762 52.9236C97.8762 52.3998 98.967 48.4112 100.3 44.06C101.634 39.7088 104.13 31.5579 105.849 25.9468C110.659 10.2412 113.613 8.70577 132.376 12.1616C136.776 12.972 143.714 14.0866 147.794 14.6386C159.683 16.2472 161.236 19.3387 154.017 27.0268C147.544 33.9213 132.878 42.3229 114.832 49.4746C106.691 52.7011 97.8762 54.4941 97.8762 52.9236ZM129.712 39.6399C135.027 36.885 141.541 33.0357 144.187 31.0858C148.154 28.1626 148.944 27.0674 148.687 24.8446C148.391 22.2782 148.04 22.1167 141.376 21.4802C119.494 19.3905 121.314 19.3611 118.525 21.8493C116.822 23.3685 115.206 26.7212 113.761 31.7301C109.549 46.3345 113.252 48.1705 129.712 39.6399Z" fill="#177D7D"/>
<path d="M408.876 202.042C396.76 200.312 394.876 199.485 394.876 195.893C394.876 193.264 395.103 193.117 398.626 193.448C400.689 193.642 403.726 193.272 405.376 192.626C409.992 190.819 427.876 190.888 427.876 192.713C427.876 193.298 426.921 195.998 425.753 198.713C423.322 204.363 424.085 204.213 408.876 202.042ZM453.876 202.464C453.876 201.813 454.816 199.339 455.964 196.967C457.86 193.05 458.296 192.723 460.714 193.401C462.178 193.812 468.268 194.06 474.247 193.951C484.049 193.774 485.497 193.503 488.975 191.201C491.097 189.797 493.588 188.648 494.51 188.648C497.349 188.648 493.156 192.477 486.876 195.618C479.299 199.409 472.749 201.37 463.554 202.601C453.837 203.902 453.876 203.902 453.876 202.464ZM127.278 189.751C117.372 183.711 119.203 157.11 130.444 143.751C134.749 138.634 141.055 134.896 147.697 133.524C153.276 132.372 154.557 132.446 160.807 134.287C166.784 136.047 168.156 136.15 170.81 135.034L173.885 133.741L173.28 137.945C172.948 140.257 171.371 150.338 169.776 160.349C168.181 170.359 166.876 179.627 166.876 180.944C166.876 183.339 169.055 185.935 171.876 186.901C173.911 187.598 165.235 191.597 161.626 191.626C158.205 191.654 154.876 188.459 154.876 185.148C154.876 181.532 151.628 181.898 146.513 186.09C139.301 191.999 132.947 193.208 127.278 189.751ZM150.216 181.769C154.714 177.616 155.734 174.676 157.869 159.698C160.454 141.567 160.425 140.106 157.422 137.103C150.892 130.573 141.87 136.851 136.701 151.523C133.773 159.832 133.136 176.008 135.555 180.619C138.487 186.209 144.865 186.709 150.216 181.769ZM252.383 189.299C250.77 186.837 250.841 185.75 253.862 166.58C256.515 149.749 256.838 145.97 255.829 143.535C254.474 140.262 251.438 139.106 246.59 140.016L243.376 140.62L246.573 137.696C251.44 133.243 259.26 131.499 264.219 133.758C269.596 136.208 270.046 142.364 266.368 163.148C262.989 182.239 263.045 184.395 266.962 186.042L270.047 187.339L266.252 189.14C264.164 190.131 260.571 191.154 258.267 191.413C254.601 191.827 253.866 191.562 252.383 189.299ZM287.292 190.29C280.321 187.113 277.359 179.61 278.156 167.148C278.908 155.386 281.861 148.479 289.289 141.105C295.778 134.662 300.189 132.648 307.808 132.648C312.351 132.648 315.11 133.744 318.626 136.947C321.623 139.677 321.752 147.495 318.877 152.147C315.293 157.946 310.239 160.422 292.126 165.252C290.265 165.748 290.552 175.9 292.545 180.081C294.309 183.778 298.934 186.648 303.128 186.648C304.476 186.648 307.783 185.48 310.477 184.052L315.376 181.457L312.876 184.15C307.146 190.323 294.187 193.432 287.292 190.29ZM300.905 160.134C307.292 156.897 310.835 151.664 311.486 144.507C312.851 129.487 300.791 130.515 295.046 145.909C292.553 152.589 291.379 158.91 292.223 161.11C293.053 163.272 295.184 163.033 300.905 160.134ZM332.818 190.765C328.122 189.221 326.16 187.748 324.968 184.87C323.397 181.076 324.966 176.915 328.284 176.082C331.871 175.182 332.559 175.998 333.118 181.814C333.901 189.961 339.077 192.68 347.278 189.254C353.432 186.683 355.53 180.746 352.414 174.721C351.609 173.165 348.347 170.196 345.164 168.122C334.061 160.89 330.872 156.72 330.883 149.448C330.894 142.373 336.014 136.615 344.587 134.035C358.115 129.963 370.831 135.742 367.756 144.564C366.705 147.578 363.135 149.544 361.05 148.256C360.533 147.936 359.8 145.197 359.422 142.168C358.923 138.172 358.144 136.249 356.583 135.155C350.494 130.89 340.876 136.932 340.876 145.022C340.876 148.454 344.932 152.93 351.848 157.131C363.148 163.995 366.657 170.697 363.406 179.209C361.785 183.453 358.416 186.826 352.999 189.626C350.076 191.137 336.313 191.914 332.818 190.765ZM528.79 190.754C524.302 189.287 521.332 186.802 518.815 182.407C516.662 178.646 516.383 176.978 516.434 168.148C516.509 155.018 518.973 148.266 526.321 141.054C534.115 133.406 544.036 130.818 554.058 133.821C563.96 136.787 569.25 151.269 565.503 165.148C562.389 176.678 557.831 183.177 549.333 188.204C544.886 190.835 533.399 192.261 528.79 190.754ZM544.367 186.319C549.322 181.148 552.231 172.805 553.916 158.939C554.746 152.109 554.743 148.321 553.902 144.272C552.682 138.395 549.013 133.648 545.69 133.648C537.582 133.648 530.847 145.568 528.739 163.648C527.367 175.409 528.357 183.878 531.547 187.669C535.324 192.158 539.16 191.754 544.367 186.319ZM610.536 190.424C608.181 188.656 608.528 180.734 611.788 161.858C614.247 147.623 614.025 142.333 610.899 140.66C606.29 138.194 600.202 140.236 595.209 145.922C592.576 148.921 592.045 150.685 590.457 161.723C589.474 168.557 588.135 177.748 587.482 182.148L586.296 190.148L580.086 190.446C576.671 190.61 573.876 190.538 573.876 190.286C573.876 190.034 574.782 183.825 575.888 176.488C576.995 169.151 578.646 158.015 579.557 151.742L581.214 140.335L578.578 138.068L575.941 135.8L580.886 134.74C583.605 134.156 587.686 133.382 589.955 133.019L594.081 132.36L593.729 137.235C593.279 143.457 595.371 144.177 600.589 139.595C610.568 130.834 622.484 130.459 625.938 138.796C627.129 141.671 626.907 144.275 623.983 161.754C622.169 172.597 620.963 182.345 621.302 183.416C621.642 184.486 622.907 185.803 624.114 186.341C626.306 187.319 626.306 187.321 623.577 189.108C619.932 191.497 612.91 192.205 610.536 190.424ZM646.876 189.897C635.49 184.209 636.472 158.788 648.644 144.148C655.456 135.955 666.878 131.387 675.236 133.514C680.747 134.916 681.63 133.889 682.895 124.612C685.352 106.587 685.362 107.175 682.592 104.996L680.063 103.007L687.719 101.766C691.931 101.084 696.223 100.279 697.258 99.9777C698.949 99.4853 699.067 99.8188 698.421 103.262C698.025 105.37 696.416 115.882 694.845 126.622C693.274 137.361 690.786 153.895 689.315 163.363C687.845 172.832 686.919 181.681 687.257 183.029C687.625 184.494 688.979 185.869 690.624 186.447L693.376 187.414L688.876 189.509C686.401 190.662 683.139 191.614 681.626 191.626C678.168 191.654 674.876 188.449 674.876 185.055C674.876 183.285 674.228 182.291 672.836 181.927C671.048 181.46 670.971 181.193 672.208 179.771C672.984 178.878 674.098 177.219 674.684 176.084C676.269 173.008 680.268 143.345 679.506 140.309C679.123 138.781 677.549 137.013 675.74 136.078C667.396 131.763 658.472 139.843 654.453 155.352C652.624 162.412 652.362 177.426 654.006 181.033C655.647 184.634 660.097 186.223 664.64 184.829C666.639 184.215 668.418 183.857 668.594 184.032C669.256 184.695 661.059 189.735 657.796 190.671C652.998 192.047 650.88 191.897 646.876 189.897ZM185.256 188.27C186.315 184.051 191.876 145.66 191.876 142.569C191.876 140.962 191.016 138.788 189.965 137.737C188.083 135.855 188.162 135.801 195.088 134.237C205.005 131.997 204.876 131.96 204.876 137.041C204.876 140.086 205.352 141.617 206.426 142.029C207.757 142.54 207.635 143.224 205.564 146.886C203.738 150.114 202.601 155.029 200.878 167.148C199.627 175.948 198.309 184.723 197.949 186.648L197.294 190.148L190.964 190.449C184.67 190.748 184.637 190.736 185.256 188.27ZM218.283 188.898C219.642 184.511 224.616 147.74 224.168 145.396C223.324 140.981 220.59 139.308 215.209 139.914L210.493 140.446L212.935 138.481C216.912 135.279 223.128 132.694 226.904 132.67C231.342 132.643 234.685 134.946 236.495 139.279C237.27 141.132 238.603 142.648 239.458 142.648C240.768 142.648 240.706 143.08 239.062 145.398C236.892 148.458 235.997 152.526 232.85 173.648C231.662 181.623 230.521 188.711 230.314 189.398C230.067 190.22 227.853 190.648 223.84 190.648C218.492 190.648 217.808 190.433 218.283 188.898ZM114.344 135.189C113.962 131.626 113.843 127.061 114.078 125.043C114.314 123.025 113.757 117.82 112.84 113.476L111.173 105.578L113.661 107.863C117.435 111.33 119.979 117.93 120.072 124.494C120.151 130.065 117.635 140.061 115.88 141.146C115.417 141.432 114.725 138.752 114.344 135.189ZM96.8916 90.0648C96.8996 88.4607 97.3373 86.4732 97.8633 85.6482C98.5146 84.6267 98.624 85.4242 98.2064 88.1482C97.4486 93.0913 96.8713 93.9329 96.8916 90.0648ZM103.876 64.7315C103.876 63.5032 104.522 62.6482 105.45 62.6482C106.381 62.6482 106.891 63.3285 106.7 64.3153C106.213 66.8241 103.876 67.1686 103.876 64.7315ZM138.876 36.1834C138.876 35.9277 139.889 35.179 141.126 34.5196C143.167 33.4325 143.248 33.4758 142.004 34.9844C140.726 36.5335 138.876 37.2425 138.876 36.1834ZM149.013 28.5115C150.313 26.6617 151.714 24.9982 152.126 24.8148C153.574 24.1714 152.854 22.8739 150.626 22.1105C149.389 21.6865 143.201 20.8032 136.876 20.1476C128.967 19.3279 126.99 18.9077 130.545 18.8019C136.734 18.6178 138.876 17.908 138.876 16.0412C138.876 14.0228 140.558 14.3303 143.028 16.8003C145.075 18.8471 145.245 18.8648 146.489 17.1631C147.506 15.7727 148.627 15.5083 151.518 15.9774C153.564 16.3094 155.944 17.2987 156.807 18.1757C158.234 19.6257 158.2 19.901 156.435 21.2093C155.368 22.0007 154.852 22.6482 155.289 22.6482C156.274 22.6482 150.111 29.8276 148.109 31.0115C147.306 31.4863 147.713 30.3613 149.013 28.5115ZM128.689 12.9651C129.411 12.6762 130.273 12.7117 130.605 13.0439C130.938 13.3762 130.347 13.6126 129.293 13.5692C128.128 13.5212 127.891 13.2843 128.689 12.9651ZM123.145 11.9552C124.118 11.7016 125.468 11.7183 126.145 11.9923C126.822 12.2662 126.026 12.4736 124.376 12.4533C122.726 12.4329 122.172 12.2087 123.145 11.9552Z" fill="#177D7D"/>
</g>
<defs>
<filter id="filter0_d_15_2" x="0" y="0" width="743.891" height="282.429" filterUnits="userSpaceOnUse" color-interpolation-filters="sRGB">
<feFlood flood-opacity="0" result="BackgroundImageFix"/>
<feColorMatrix in="SourceAlpha" type="matrix" values="0 0 0 0 0 0 0 0 0 0 0 0 0 0 0 0 0 0 127 0" result="hardAlpha"/>
<feOffset dx="20" dy="15"/>
<feGaussianBlur stdDeviation="12"/>
<feColorMatrix type="matrix" values="0 0 0 0 0.380392 0 0 0 0 0.733333 0 0 0 0 0.886275 0 0 0 0.5 0"/>
<feBlend mode="normal" in2="BackgroundImageFix" result="effect1_dropShadow_15_2"/>
<feBlend mode="normal" in="SourceGraphic" in2="effect1_dropShadow_15_2" result="shape"/>
</filter>
</defs>
</svg>
