<svg width="704" height="255" viewBox="0 0 704 255" fill="none" xmlns="http://www.w3.org/2000/svg">
<g filter="url(#filter0_d_12_15)">
<path d="M151.222 203.066C152.782 203.066 154.202 203.246 155.482 203.606C156.802 203.926 157.882 204.346 158.722 204.866C159.762 205.506 160.562 206.306 161.122 207.266C161.722 208.186 162.022 209.266 162.022 210.506C162.022 211.906 161.582 213.066 160.702 213.986C159.822 214.866 158.682 215.306 157.282 215.306C155.882 215.306 154.762 214.906 153.922 214.106C153.082 213.306 152.662 212.226 152.662 210.866C152.662 209.586 153.062 208.526 153.862 207.686C154.662 206.806 155.582 206.226 156.622 205.946C156.302 205.546 155.822 205.206 155.182 204.926C154.542 204.646 153.822 204.506 153.022 204.506C151.782 204.506 150.682 204.866 149.722 205.586C148.802 206.306 148.022 207.306 147.382 208.586C146.742 209.866 146.242 211.366 145.882 213.086C145.562 214.806 145.402 216.686 145.402 218.726C145.402 221.806 145.782 224.226 146.542 225.986C147.342 227.746 148.342 228.986 149.542 229.706C150.782 230.426 152.062 230.786 153.382 230.786C154.142 230.786 154.962 230.666 155.842 230.426C156.762 230.186 157.682 229.706 158.602 228.986C159.562 228.266 160.442 227.246 161.242 225.926L162.262 226.286C161.822 227.766 161.102 229.246 160.102 230.726C159.102 232.206 157.802 233.426 156.202 234.386C154.602 235.306 152.642 235.766 150.322 235.766C147.722 235.766 145.362 235.206 143.242 234.086C141.162 232.926 139.482 231.166 138.202 228.806C136.962 226.406 136.342 223.326 136.342 219.566C136.342 215.966 136.982 212.946 138.262 210.506C139.582 208.026 141.362 206.166 143.602 204.926C145.842 203.686 148.382 203.066 151.222 203.066ZM181.827 187.946V229.346C181.827 231.026 182.107 232.166 182.667 232.766C183.267 233.366 184.267 233.666 185.667 233.666V234.926C184.907 234.886 183.767 234.846 182.247 234.806C180.727 234.726 179.187 234.686 177.627 234.686C176.067 234.686 174.487 234.726 172.887 234.806C171.327 234.846 170.147 234.886 169.347 234.926V233.666C170.747 233.666 171.727 233.366 172.287 232.766C172.887 232.166 173.187 231.026 173.187 229.346V195.146C173.187 193.346 172.907 192.026 172.347 191.186C171.827 190.306 170.827 189.866 169.347 189.866V188.606C170.627 188.726 171.867 188.786 173.067 188.786C174.707 188.786 176.267 188.726 177.747 188.606C179.227 188.446 180.587 188.226 181.827 187.946ZM207.314 203.066C210.834 203.066 213.594 204.106 215.594 206.186C217.594 208.266 218.594 211.666 218.594 216.386H198.854L198.734 215.246H211.034C211.074 213.286 210.954 211.486 210.674 209.846C210.394 208.166 209.954 206.826 209.354 205.826C208.754 204.826 207.954 204.326 206.954 204.326C205.554 204.326 204.354 205.206 203.354 206.966C202.394 208.726 201.814 211.646 201.614 215.726L201.794 216.086C201.754 216.566 201.714 217.066 201.674 217.586C201.674 218.106 201.674 218.646 201.674 219.206C201.674 221.966 202.054 224.206 202.814 225.926C203.614 227.646 204.614 228.906 205.814 229.706C207.014 230.466 208.234 230.846 209.474 230.846C210.314 230.846 211.174 230.726 212.054 230.486C212.974 230.206 213.894 229.726 214.814 229.046C215.734 228.326 216.594 227.326 217.394 226.046L218.474 226.406C217.994 227.926 217.234 229.406 216.194 230.846C215.154 232.286 213.834 233.466 212.234 234.386C210.634 235.306 208.714 235.766 206.474 235.766C203.754 235.766 201.354 235.186 199.274 234.026C197.194 232.866 195.554 231.106 194.354 228.746C193.194 226.386 192.614 223.386 192.614 219.746C192.614 216.026 193.234 212.926 194.474 210.446C195.754 207.966 197.494 206.126 199.694 204.926C201.934 203.686 204.474 203.066 207.314 203.066ZM234.549 235.346C232.749 235.346 231.249 235.006 230.049 234.326C228.849 233.646 227.969 232.746 227.409 231.626C226.849 230.466 226.569 229.206 226.569 227.846C226.569 226.126 226.949 224.726 227.709 223.646C228.509 222.566 229.529 221.686 230.769 221.006C232.009 220.326 233.309 219.766 234.669 219.326C236.069 218.886 237.389 218.466 238.629 218.066C239.909 217.626 240.929 217.126 241.689 216.566C242.489 215.966 242.889 215.206 242.889 214.286V209.606C242.889 208.566 242.709 207.646 242.349 206.846C242.029 206.006 241.509 205.366 240.789 204.926C240.109 204.486 239.209 204.266 238.089 204.266C237.289 204.266 236.489 204.386 235.689 204.626C234.889 204.826 234.229 205.186 233.709 205.706C234.829 206.106 235.689 206.726 236.289 207.566C236.929 208.366 237.249 209.286 237.249 210.326C237.249 211.686 236.769 212.766 235.809 213.566C234.889 214.366 233.789 214.766 232.509 214.766C231.069 214.766 229.969 214.326 229.209 213.446C228.489 212.526 228.129 211.426 228.129 210.146C228.129 208.986 228.409 208.026 228.969 207.266C229.569 206.506 230.389 205.786 231.429 205.106C232.549 204.466 233.889 203.966 235.449 203.606C237.049 203.246 238.769 203.066 240.609 203.066C242.449 203.066 244.109 203.266 245.589 203.666C247.069 204.026 248.309 204.706 249.309 205.706C250.229 206.626 250.829 207.766 251.109 209.126C251.389 210.446 251.529 212.126 251.529 214.166V230.486C251.529 231.486 251.629 232.186 251.829 232.586C252.029 232.946 252.369 233.126 252.849 233.126C253.209 233.126 253.549 233.026 253.869 232.826C254.229 232.626 254.609 232.386 255.009 232.106L255.609 233.126C254.769 233.846 253.789 234.406 252.669 234.806C251.589 235.166 250.369 235.346 249.009 235.346C247.529 235.346 246.349 235.146 245.469 234.746C244.589 234.306 243.949 233.726 243.549 233.006C243.189 232.286 243.009 231.446 243.009 230.486C242.049 232.006 240.889 233.206 239.529 234.086C238.169 234.926 236.509 235.346 234.549 235.346ZM238.809 231.506C239.609 231.506 240.329 231.326 240.969 230.966C241.649 230.566 242.289 229.926 242.889 229.046V216.746C242.529 217.346 242.029 217.886 241.389 218.366C240.749 218.846 240.069 219.346 239.349 219.866C238.629 220.346 237.929 220.886 237.249 221.486C236.609 222.086 236.089 222.826 235.689 223.706C235.289 224.586 235.089 225.646 235.089 226.886C235.089 228.446 235.429 229.606 236.109 230.366C236.789 231.126 237.689 231.506 238.809 231.506ZM283.843 203.066C285.523 203.066 286.883 203.286 287.923 203.726C289.003 204.126 289.843 204.686 290.443 205.406C291.083 206.166 291.543 207.146 291.823 208.346C292.143 209.546 292.303 211.166 292.303 213.206V229.346C292.303 231.026 292.583 232.166 293.143 232.766C293.743 233.366 294.743 233.666 296.143 233.666V234.926C295.383 234.886 294.243 234.846 292.723 234.806C291.203 234.726 289.703 234.686 288.223 234.686C286.703 234.686 285.203 234.726 283.723 234.806C282.283 234.846 281.183 234.886 280.423 234.926V233.666C281.623 233.666 282.463 233.366 282.943 232.766C283.423 232.166 283.663 231.026 283.663 229.346V210.686C283.663 209.686 283.563 208.826 283.363 208.106C283.163 207.346 282.803 206.766 282.283 206.366C281.763 205.926 280.983 205.706 279.943 205.706C278.863 205.706 277.863 206.006 276.943 206.606C276.063 207.206 275.343 208.046 274.783 209.126C274.263 210.166 274.003 211.346 274.003 212.666V229.346C274.003 231.026 274.243 232.166 274.723 232.766C275.243 233.366 276.083 233.666 277.243 233.666V234.926C276.523 234.886 275.463 234.846 274.063 234.806C272.703 234.726 271.283 234.686 269.803 234.686C268.283 234.686 266.723 234.726 265.123 234.806C263.523 234.846 262.323 234.886 261.523 234.926V233.666C262.923 233.666 263.903 233.366 264.463 232.766C265.063 232.166 265.363 231.026 265.363 229.346V210.446C265.363 208.646 265.083 207.326 264.523 206.486C264.003 205.606 263.003 205.166 261.523 205.166V203.906C262.803 204.026 264.043 204.086 265.243 204.086C266.923 204.086 268.483 204.026 269.923 203.906C271.403 203.746 272.763 203.526 274.003 203.246V208.646C275.003 206.606 276.363 205.166 278.083 204.326C279.803 203.486 281.723 203.066 283.843 203.066ZM310.379 188.426C312.059 188.426 313.379 188.846 314.339 189.686C315.339 190.486 315.839 191.606 315.839 193.046C315.839 194.486 315.339 195.626 314.339 196.466C313.379 197.266 312.059 197.666 310.379 197.666C308.699 197.666 307.359 197.266 306.359 196.466C305.399 195.626 304.919 194.486 304.919 193.046C304.919 191.606 305.399 190.486 306.359 189.686C307.359 188.846 308.699 188.426 310.379 188.426ZM315.059 203.246V229.346C315.059 231.026 315.339 232.166 315.899 232.766C316.499 233.366 317.499 233.666 318.899 233.666V234.926C318.179 234.886 317.059 234.846 315.539 234.806C314.019 234.726 312.479 234.686 310.919 234.686C309.359 234.686 307.779 234.726 306.179 234.806C304.579 234.846 303.379 234.886 302.579 234.926V233.666C303.979 233.666 304.959 233.366 305.519 232.766C306.119 232.166 306.419 231.026 306.419 229.346V210.446C306.419 208.646 306.139 207.326 305.579 206.486C305.059 205.606 304.059 205.166 302.579 205.166V203.906C303.859 204.026 305.099 204.086 306.299 204.086C307.979 204.086 309.539 204.026 310.979 203.906C312.459 203.746 313.819 203.526 315.059 203.246ZM348.025 203.066C349.705 203.066 351.065 203.286 352.105 203.726C353.185 204.126 354.025 204.686 354.625 205.406C355.265 206.166 355.725 207.146 356.005 208.346C356.325 209.546 356.485 211.166 356.485 213.206V229.346C356.485 231.026 356.765 232.166 357.325 232.766C357.925 233.366 358.925 233.666 360.325 233.666V234.926C359.565 234.886 358.425 234.846 356.905 234.806C355.385 234.726 353.885 234.686 352.405 234.686C350.885 234.686 349.385 234.726 347.905 234.806C346.465 234.846 345.365 234.886 344.605 234.926V233.666C345.805 233.666 346.645 233.366 347.125 232.766C347.605 232.166 347.845 231.026 347.845 229.346V210.686C347.845 209.686 347.745 208.826 347.545 208.106C347.345 207.346 346.985 206.766 346.465 206.366C345.945 205.926 345.165 205.706 344.125 205.706C343.045 205.706 342.045 206.006 341.125 206.606C340.245 207.206 339.525 208.046 338.965 209.126C338.445 210.166 338.185 211.346 338.185 212.666V229.346C338.185 231.026 338.425 232.166 338.905 232.766C339.425 233.366 340.265 233.666 341.425 233.666V234.926C340.705 234.886 339.645 234.846 338.245 234.806C336.885 234.726 335.465 234.686 333.985 234.686C332.465 234.686 330.905 234.726 329.305 234.806C327.705 234.846 326.505 234.886 325.705 234.926V233.666C327.105 233.666 328.085 233.366 328.645 232.766C329.245 232.166 329.545 231.026 329.545 229.346V210.446C329.545 208.646 329.265 207.326 328.705 206.486C328.185 205.606 327.185 205.166 325.705 205.166V203.906C326.985 204.026 328.225 204.086 329.425 204.086C331.105 204.086 332.665 204.026 334.105 203.906C335.585 203.746 336.945 203.526 338.185 203.246V208.646C339.185 206.606 340.545 205.166 342.265 204.326C343.985 203.486 345.905 203.066 348.025 203.066ZM377.99 246.206C375.51 246.206 373.29 245.986 371.33 245.546C369.41 245.146 367.89 244.506 366.77 243.626C365.69 242.786 365.15 241.746 365.15 240.506C365.15 239.266 365.71 238.146 366.83 237.146C367.95 236.186 369.61 235.426 371.81 234.866L372.35 235.826C371.59 236.426 371.03 237.066 370.67 237.746C370.35 238.466 370.19 239.206 370.19 239.966C370.19 241.646 370.95 242.926 372.47 243.806C374.03 244.726 376.13 245.186 378.77 245.186C380.57 245.186 382.17 244.946 383.57 244.466C385.01 243.986 386.13 243.266 386.93 242.306C387.77 241.346 388.19 240.166 388.19 238.766C388.19 237.566 387.75 236.546 386.87 235.706C385.99 234.906 384.23 234.506 381.59 234.506H377.87C376.23 234.506 374.79 234.326 373.55 233.966C372.35 233.606 371.41 233.046 370.73 232.286C370.05 231.486 369.71 230.486 369.71 229.286C369.71 227.606 370.37 226.126 371.69 224.846C373.01 223.566 374.97 222.366 377.57 221.246L378.17 221.726C377.41 222.206 376.69 222.726 376.01 223.286C375.37 223.806 375.05 224.486 375.05 225.326C375.05 226.606 375.85 227.246 377.45 227.246H383.99C386.19 227.246 388.15 227.506 389.87 228.026C391.63 228.546 393.01 229.406 394.01 230.606C395.05 231.766 395.57 233.286 395.57 235.166C395.57 237.126 394.93 238.946 393.65 240.626C392.41 242.306 390.49 243.646 387.89 244.646C385.29 245.686 381.99 246.206 377.99 246.206ZM378.59 222.146C376.31 222.146 374.27 221.806 372.47 221.126C370.67 220.446 369.25 219.406 368.21 218.006C367.17 216.606 366.65 214.806 366.65 212.606C366.65 210.406 367.17 208.606 368.21 207.206C369.25 205.766 370.67 204.726 372.47 204.086C374.27 203.406 376.31 203.066 378.59 203.066C380.87 203.066 382.91 203.406 384.71 204.086C386.51 204.726 387.93 205.766 388.97 207.206C390.01 208.606 390.53 210.406 390.53 212.606C390.53 214.806 390.01 216.606 388.97 218.006C387.93 219.406 386.51 220.446 384.71 221.126C382.91 221.806 380.87 222.146 378.59 222.146ZM378.59 221.066C379.67 221.066 380.51 220.466 381.11 219.266C381.71 218.026 382.01 215.806 382.01 212.606C382.01 209.406 381.71 207.206 381.11 206.006C380.51 204.766 379.67 204.146 378.59 204.146C377.55 204.146 376.71 204.766 376.07 206.006C375.47 207.206 375.17 209.406 375.17 212.606C375.17 215.806 375.47 218.026 376.07 219.266C376.71 220.466 377.55 221.066 378.59 221.066ZM387.95 208.226L386.75 207.806C387.35 206.246 388.31 204.946 389.63 203.906C390.99 202.866 392.45 202.346 394.01 202.346C395.29 202.346 396.25 202.706 396.89 203.426C397.57 204.106 397.91 205.006 397.91 206.126C397.91 207.326 397.59 208.226 396.95 208.826C396.31 209.386 395.59 209.666 394.79 209.666C394.11 209.666 393.47 209.426 392.87 208.946C392.31 208.466 391.99 207.746 391.91 206.786C391.83 205.786 392.17 204.506 392.93 202.946L393.35 203.306C391.83 203.866 390.69 204.526 389.93 205.286C389.17 206.006 388.51 206.986 387.95 208.226Z" fill="#177D7D"/>
<path d="M87.1913 234.883C74.3597 231.17 73.2145 211.323 85.4957 205.495C90.6772 203.036 96.2356 203.972 100.394 208.002C108.611 215.966 106.588 229.487 96.4936 234.071C91.8986 236.158 91.667 236.178 87.1913 234.883ZM97.953 227.062C105.496 219.519 97.121 205.704 87.8971 210.474C84.2494 212.36 82.8761 214.794 82.8761 219.372C82.8761 229.052 91.5423 233.472 97.953 227.062ZM5.36021 229.959C5.01155 229.395 4.48388 226.582 4.18761 223.709C3.74918 219.457 4.01934 218.028 5.63933 216.028C7.55869 213.658 8.24978 213.54 25.0029 212.711L42.3761 211.851L45.2984 208.168C51.3545 200.535 61.3118 191.896 67.6473 188.777C78.4234 183.472 90.1113 183.618 96.3975 189.138C101.525 193.639 100.855 196.983 95.526 193.491C88.6195 188.966 77.1908 191.199 68.8418 198.705C64.3298 202.762 63.9182 203.455 65.2376 204.775C66.557 206.094 67.3163 205.832 71.8853 202.478C80.9409 195.831 87.985 194.489 95.6261 197.958C97.9665 199.02 99.8761 200.583 99.8761 201.436C99.8761 203.252 98.715 203.345 93.6416 201.936C88.5192 200.514 83.0822 202.126 79.211 206.215C74.8919 210.778 73.8088 213.268 73.7648 218.737C73.7015 226.595 73.4104 226.983 67.5587 227C64.7083 227.008 50.6761 227.902 36.3761 228.985C5.89579 231.293 6.17946 231.285 5.36021 229.959ZM409.137 196.443C403.506 195.719 397.952 194.826 396.796 194.459C394.077 193.596 391.834 188.177 392.413 183.866C392.662 182.006 393.802 171.71 394.946 160.985C397.25 139.388 399.688 126.634 403.856 114.379C406.425 106.827 408.449 102.671 418.219 84.8939C420.728 80.3279 421.923 76.795 422.108 73.3939L422.376 68.4847L435.529 68.2064L448.681 67.928L449.029 77.2064C449.456 88.624 453.289 99.2393 459.126 105.173C462.299 108.399 463.528 108.985 467.112 108.985C476.779 108.985 490.624 97.5929 494.951 86.0796C497.936 78.1347 497.397 67.882 493.701 62.2956C490.633 57.6599 483.26 52.4512 477.424 50.7957C472.167 49.3046 471.495 48.6376 472.245 45.6525C472.814 43.3833 473.226 43.2191 477.121 43.71C479.461 44.0049 482.894 44.8624 484.748 45.6155C488.627 47.1905 491.251 47.4003 490.429 46.0697C489.439 44.4689 476.254 39.9023 474.531 40.5636C473.38 41.0052 472.876 40.6666 472.876 39.4524C472.876 37.9385 473.559 37.7871 478.011 38.3143C480.835 38.6488 485.898 40.2184 489.261 41.8024C502.489 48.0324 510.28 57.1961 513.524 70.3398C517.688 87.2157 509.115 105.637 491.911 116.781L486.446 120.321L489.385 122.403C496.46 127.416 503.768 135.305 505.878 140.21C515.981 163.696 503.676 186.644 476.876 194.298C469.928 196.282 454.321 198.369 452.282 197.587C450.395 196.863 450.84 195.192 455.633 184.985C457.571 180.86 459.704 175.464 460.374 172.994C461.528 168.743 461.828 168.461 465.984 167.717C471.239 166.776 475.375 167.401 481.112 170.005C487.096 172.721 492.122 172.511 497.572 169.317C504.574 165.214 508.056 155.542 504.408 150.333C502.601 147.754 497.914 145.8 461.689 132.524C427.459 119.979 424.863 119.214 421.594 120.704C418.829 121.963 414.873 129.637 414.882 133.724C414.891 137.973 416.808 143.916 418.819 145.927C419.816 146.925 423.499 148.7 427.004 149.873C431.249 151.294 434.79 153.358 437.612 156.057L441.847 160.108L439.487 164.796C438.189 167.375 434.55 175.56 431.401 182.985C428.251 190.41 425.157 196.815 424.525 197.219C423.091 198.137 421.8 198.071 409.137 196.443ZM476.145 181.735C476.855 179.701 475.794 177.985 473.828 177.985C471.623 177.985 470.493 179.544 471.256 181.533C471.938 183.31 475.544 183.459 476.145 181.735ZM414.229 178.147C415.786 176.427 415.764 176.193 413.884 174.492C411.943 172.736 411.809 172.736 409.868 174.492C407.988 176.193 407.966 176.427 409.523 178.147C410.438 179.158 411.497 179.985 411.876 179.985C412.256 179.985 413.315 179.158 414.229 178.147ZM427.689 163.72C428.073 161.723 425.221 160.24 423.776 161.685C422.377 163.084 423.844 166.138 425.74 165.772C426.627 165.602 427.504 164.678 427.689 163.72ZM417.764 106.215C422.315 94.8483 422.84 92.2333 419.817 95.9847C413.927 103.295 407.547 120.958 406.399 133.137L405.8 139.485L409.726 127.985C411.885 121.66 415.502 111.863 417.764 106.215ZM128.376 184.582C122.099 181.811 118.876 175.308 118.876 165.411C118.876 144.217 130.6 127.261 147.62 123.842C153.347 122.691 154.441 122.773 160.832 124.831C167.418 126.952 167.973 126.986 170.953 125.445C172.73 124.526 174.484 124.192 174.972 124.681C175.461 125.169 174.973 131.205 173.854 138.516C168.224 175.318 168.4 173.706 169.816 175.412C170.805 176.604 172.061 176.853 174.643 176.369C179.43 175.471 178.635 177.549 172.639 181.609C162.986 188.147 155.933 186.7 152.539 177.485C152.336 176.935 150.235 178.024 147.87 179.905C140.71 185.599 134.212 187.158 128.376 184.582ZM147.041 174.235C152.061 171.28 153.616 167.448 155.822 152.604C158.307 135.886 158.357 133.173 156.221 130.813C152.148 126.312 144.74 130.313 140.541 139.281C137.285 146.237 135.876 153.424 135.876 163.079C135.876 170.236 136.134 171.333 138.331 173.53C141.242 176.441 143.044 176.587 147.041 174.235ZM253.251 185C248.784 183.196 248.6 179.222 252.011 158.274C255.647 135.953 255.434 133.985 249.383 133.985C246.78 133.985 244.919 134.843 242.335 137.235C239.027 140.296 238.713 141.154 236.946 151.985C235.915 158.31 234.507 167.535 233.819 172.485C232.085 184.959 232.066 184.985 224.541 184.985C221.095 184.985 217.821 184.53 217.266 183.974C216.585 183.294 217.129 177.173 218.931 165.224C220.402 155.468 221.919 145.353 222.3 142.748C222.916 138.548 222.715 137.733 220.525 135.543C218.389 133.407 217.616 133.199 214.806 134.005C210.884 135.13 207.397 138.238 206.024 141.833C205.468 143.292 203.835 152.585 202.396 162.485C200.957 172.385 199.361 181.497 198.849 182.735C198.022 184.737 197.214 184.985 191.52 184.985C187.606 184.985 184.729 184.499 184.111 183.735C183.128 182.519 183.56 178.95 188.339 148.78C190.457 135.407 190.356 132.547 187.701 130.784C183.776 128.179 186.025 126.361 195.299 124.64C200.018 123.765 204.553 123.307 205.378 123.624C206.354 123.998 206.876 125.555 206.876 128.092C206.876 132.607 207.666 132.867 211.549 129.625C221.252 121.527 233.345 121.19 237.335 128.906C238.211 130.599 239.362 131.985 239.893 131.985C240.424 131.985 242.898 130.428 245.391 128.525C249.697 125.238 255.258 123.002 259.158 122.99C262.735 122.979 267.777 125.893 269.31 128.856C271.455 133.005 271.291 137.337 268.317 154.949C266.91 163.285 265.897 171.541 266.067 173.295C266.359 176.305 266.587 176.472 270.126 176.265C272.189 176.144 273.876 176.403 273.876 176.84C273.876 178.333 269.384 181.857 264.876 183.901C260.088 186.071 256.698 186.392 253.251 185ZM288.79 185.088C280.796 182.482 276.81 176.316 276.101 165.458C274.693 143.907 287.368 125.372 304.938 123.291C310.935 122.581 317.918 124.951 320.865 128.698C323.281 131.769 323.597 139.705 321.465 143.784C318.209 150.017 310.638 154.766 299.498 157.565L292.876 159.228V164.156C292.876 175.71 300.012 179.945 310.28 174.485C314.863 172.048 317.876 171.316 317.876 172.64C317.876 174.598 312.45 179.899 307.925 182.362C302.382 185.379 293.543 186.638 288.79 185.088ZM299.858 150.994C305.704 148.012 309.134 142.916 309.674 136.414C311.068 119.601 296.628 130.243 294.313 147.735C293.517 153.749 293.955 154.006 299.858 150.994ZM333.151 185.076C322.968 182.459 318.939 172.556 326.036 167.586C330.975 164.126 334.876 166.693 334.876 173.401C334.876 178.646 337.112 180.985 342.128 180.985C347.239 180.985 351.876 176.925 351.876 172.452C351.876 168.225 349.4 165.373 340.404 159.239C335.988 156.227 332.603 153.019 331.171 150.485C328.544 145.839 328.181 139.23 330.325 135.083C336.516 123.111 358.011 118.966 367.047 128.002C370.772 131.726 370.93 137.022 367.422 140.53C362.877 145.075 357.876 142.772 357.876 136.136C357.876 128.038 351.451 125.256 345.799 130.908C342.213 134.494 341.959 138.71 345.126 142.106C346.364 143.433 350.613 146.666 354.568 149.29C363.177 155.001 366.107 159.21 366.107 165.866C366.107 173.618 361.401 180.197 353.492 183.501C348.947 185.4 337.775 186.265 333.151 185.076ZM527.969 184.755C513.508 179.875 509.458 157.398 519.659 138.637C527.095 124.961 545.79 119.056 558.349 126.416C565.919 130.852 570.117 142.821 568.041 154.047C564.486 173.275 553.815 184.37 537.827 185.464C534.279 185.706 529.843 185.388 527.969 184.755ZM543.174 177.62C547.192 173.602 550.318 164.458 551.938 151.985C554.358 133.348 549.103 123.299 540.483 130.079C535.432 134.053 531.647 144.695 530.315 158.672C528.495 177.764 534.372 186.422 543.174 177.62ZM609.511 183.912C607.27 182.15 606.876 181.064 606.876 176.66C606.876 173.811 607.774 166.77 608.871 161.012C613.073 138.96 612.675 133.985 606.709 133.985C603.112 133.985 597.73 137.033 595.608 140.271C594.18 142.451 592.52 151.202 589.42 172.909C588.582 178.771 587.372 183.688 586.653 184.144C584.976 185.208 574.748 185.19 573.06 184.12C571.994 183.444 572.458 178.578 575.505 158.501L579.266 133.717L576.571 131.399C575.089 130.124 573.876 128.644 573.876 128.11C573.876 126.899 578.487 125.412 586.704 123.975C594.195 122.665 595.876 123.514 595.876 128.607C595.876 132.604 596.752 132.795 600.549 129.625C610.956 120.94 622.828 121.267 627.269 130.361L629.161 134.237L625.855 153.963C624.036 164.812 622.854 174.485 623.228 175.459C623.746 176.808 624.606 177.089 626.853 176.639C631.249 175.76 631.36 177.44 627.135 180.925C620.838 186.12 613.828 187.308 609.511 183.912ZM646.3 183.965C639.874 180.784 637.376 175.472 637.376 164.985C637.376 150.558 642.746 138.342 652.611 130.324C658.934 125.186 664.191 123.483 673.06 123.7C680.736 123.888 679.796 125.371 681.999 109.59L683.241 100.695L680.559 98.388C675.774 94.2721 676.101 94.0522 690.571 91.6555C695.078 90.9089 699.199 90.566 699.729 90.8935C700.659 91.4682 697.548 115.107 691.389 154.268C689.938 163.499 688.891 172.274 689.063 173.768C689.356 176.309 689.657 176.467 693.719 176.206C699.258 175.851 698.926 177.353 692.502 181.701C683.851 187.557 676.099 187.01 673.7 180.374C673.026 178.51 672.062 176.985 671.557 176.985C671.053 176.985 669.125 178.315 667.272 179.942C664.184 182.653 655.73 185.986 651.945 185.984C651.082 185.983 648.542 185.075 646.3 183.965ZM669.561 171.806C671.405 170.018 673.312 166.964 673.798 165.02C675.387 158.655 678.22 134.323 677.568 132.625C676.653 130.24 672.47 128.619 669.291 129.417C667.788 129.794 665.127 131.539 663.377 133.294C655.164 141.532 651.056 168.165 657.071 174.179C659.919 177.028 665.21 176.022 669.561 171.806ZM92.8761 182.498C91.5011 181.705 89.6152 181.04 88.6851 181.02C87.7551 181.001 86.7164 180.535 86.377 179.986C84.9356 177.654 89.4349 165.291 97.8411 148.485C107.678 128.819 109.766 122.004 107.984 115.387C105.734 107.03 97.077 97.4235 94.9286 100.9C94.4789 101.627 91.7395 110.606 88.841 120.854C85.9424 131.101 83.1344 140.047 82.601 140.735C81.2575 142.466 68.9852 142.432 68.3185 140.695C67.9072 139.623 76.124 110.858 88.4971 70.0535C90.0943 64.7861 90.8314 60.5109 90.4612 58.6603C89.5484 54.0961 91.2042 52.9846 98.9168 52.9846C102.654 52.9846 106.424 53.2578 107.294 53.5916C109.409 54.4029 109.294 57.5732 107.034 60.8302C106.02 62.2902 103.899 68.1656 102.32 73.8869L99.449 84.2891L101.913 85.8731C106.518 88.8345 116.075 98.4698 118.388 102.485C119.656 104.685 121.206 109.022 121.832 112.123C123.539 120.569 121.404 128.077 112.41 145.258C104.435 160.492 101.506 167.786 99.4646 177.485C98.1002 183.968 96.9463 184.846 92.8761 182.498ZM426.322 62.8976C425.953 62.2997 426.151 61.3097 426.763 60.6976C430.361 57.0994 426.102 50.6806 419.265 49.398C416.827 48.9405 415.693 48.104 415.28 46.4564C414.485 43.2901 417.477 37.4062 421.249 34.715C424.108 32.6762 425.492 32.4884 437.376 32.5273C444.526 32.5507 452.084 32.9126 454.172 33.3313L457.969 34.0927L457.672 40.2811L457.376 46.4694L451.12 49.9771C444.613 53.625 442.581 56.7193 444.876 59.485C445.549 60.2958 445.839 61.64 445.519 62.472C445.061 63.6668 443.053 63.9847 435.967 63.9847C430.584 63.9847 426.725 63.5497 426.322 62.8976ZM401.834 61.4345C400.772 60.154 400.837 59.5949 402.212 58.2203C403.764 56.6681 403.988 56.6681 405.54 58.2203C406.915 59.5949 406.981 60.154 405.918 61.4345C405.21 62.2871 404.291 62.9847 403.876 62.9847C403.461 62.9847 402.542 62.2871 401.834 61.4345ZM390.986 49.6174C390.123 48.5774 390.214 47.9496 391.364 46.995C393.482 45.2369 396.482 47.5494 394.766 49.6174C394.142 50.3694 393.291 50.9847 392.876 50.9847C392.461 50.9847 391.61 50.3694 390.986 49.6174ZM96.5183 46.2148C95.7681 45.001 106.722 9.76803 108.715 6.98472C109.7 5.60972 112.189 3.64807 114.247 2.62549C117.944 0.788595 118.183 0.797994 134.182 3.40873C143.089 4.8621 151.777 6.27006 153.489 6.53753C157.716 7.19798 160.294 10.1854 159.469 13.4696C158.659 16.6963 152.767 23.2756 147.348 27.0037C141.324 31.1484 124.79 39.3339 114.164 43.4319C105.572 46.7453 97.6212 47.9992 96.5183 46.2148ZM129.881 30.3929C145.307 22.378 151.128 17.0782 146.126 15.6037C145.164 15.3199 139.08 14.7779 132.606 14.3991C118.324 13.5634 118.088 13.7045 114.869 25.0093C113.029 31.4715 112.841 33.238 113.864 34.4699C115.919 36.9466 118.562 36.2741 129.881 30.3929ZM461.274 44.5799C460.978 43.8073 460.879 41.6698 461.056 39.8299C461.48 35.4049 464.963 34.6616 467.455 38.4644C468.825 40.5561 468.94 41.5491 468.039 43.5257C466.787 46.2751 462.199 46.99 461.274 44.5799ZM401.233 35.472C400.914 34.64 401.217 33.2786 401.908 32.4468C403.023 31.1025 403.369 31.1208 405.016 32.6113C406.425 33.8866 406.601 34.6113 405.75 35.6365C404.26 37.432 401.953 37.348 401.233 35.472Z" fill="#177D7D"/>
<path d="M84.7694 232.545C80.4825 230.121 78.5428 226.183 78.5428 219.904C78.5428 212.929 81.0767 208.922 86.9805 206.56C92.0283 204.54 96.1599 205.584 100.325 209.932C105.298 215.122 104.815 225.875 99.3797 230.981C96.3118 233.863 88.5663 234.693 84.7694 232.545ZM99.0413 228.326C104.065 223.513 103.929 216.192 98.719 210.981C96.3333 208.596 94.8586 207.985 91.4863 207.985C85.595 207.985 81.7507 211.982 81.1915 218.688C80.6958 224.633 82.3153 227.926 86.89 230.274C91.2422 232.508 95.367 231.847 99.0413 228.326ZM6.47166 228.139C4.98074 225.727 4.83001 219.359 6.21966 217.493C7.54175 215.717 9.63045 215.38 25.431 214.386L43.1591 213.271L46.7134 208.878C56.0509 197.337 66.175 189.871 75.8247 187.411C83.0664 185.565 89.4139 186.008 93.9272 188.674C98.2833 191.247 98.5799 193.177 94.3475 191.408C86.009 187.924 74.9264 190.717 66.5149 198.421C59.0828 205.229 64.5181 210.268 72.429 203.904C74.5999 202.158 77.8241 200.112 79.594 199.357C83.787 197.569 92.7007 197.659 95.8761 199.522C98.2395 200.908 98.0954 200.955 93.2369 200.373C86.438 199.557 81.8155 201.202 77.5086 205.97C73.7926 210.083 71.8908 215.191 71.8817 221.084L71.8757 224.684L61.1257 225.351C55.2132 225.718 40.9257 226.676 29.3757 227.48C17.8257 228.284 8.06474 228.952 7.6847 228.964C7.30466 228.975 6.75902 228.604 6.47166 228.139ZM411.876 195.507C393.692 193.138 393.285 192.828 394.294 182.108C396.286 160.938 398.356 154.184 400.747 161.045C401.989 164.607 403.545 164.806 405.01 161.591C405.976 159.47 406.881 159.154 412.965 158.81C419.118 158.462 420.182 158.081 423.221 155.135C426.551 151.907 426.674 151.875 429.994 153.355C431.854 154.183 434.933 156.192 436.836 157.818C439.842 160.388 440.118 160.988 438.947 162.4C438.205 163.293 434.62 171.322 430.981 180.242C426.794 190.502 423.815 196.512 422.87 196.602C422.048 196.68 417.101 196.187 411.876 195.507ZM415.424 179.339C418.244 176.296 418.472 175.15 416.414 174.361C415.61 174.052 414.68 172.941 414.347 171.892C413.54 169.351 409.837 169.417 409.166 171.985C408.878 173.085 408.231 173.985 407.728 173.985C405.646 173.985 405.814 177.14 408.02 179.466C411.025 182.634 412.391 182.611 415.424 179.339ZM428.562 166.81C431.299 164.239 431.481 162.31 429.221 159.813C427.145 157.52 424.487 157.481 421.888 159.707C419.288 161.932 419.348 163.645 422.126 166.576C424.911 169.515 425.654 169.542 428.562 166.81ZM452.89 194.735C452.898 194.047 455.148 188.819 457.89 183.117C460.633 177.415 462.876 171.902 462.876 170.867C462.876 169.238 463.665 168.985 468.749 168.985C472.62 168.985 476.284 169.727 479.499 171.161C485.761 173.956 492.182 173.936 497.506 171.104C502.659 168.364 504.45 166.405 506.361 161.418L507.869 157.485L507.308 161.985C506.497 168.49 501.499 178.189 496.745 182.484C491.277 187.424 480.156 192.519 470.668 194.431C461.161 196.347 452.87 196.489 452.89 194.735ZM476.98 182.865C478.926 180.621 478.458 178.543 475.443 176.041C473.438 174.376 471.679 175.116 469.946 178.354C468.704 180.674 468.751 181.189 470.367 182.975C472.7 185.553 474.677 185.52 476.98 182.865ZM128.3 183.124C123.294 180.808 121.026 176.485 120.24 167.759C118.86 152.453 126.919 135.146 138.619 128.289C144.651 124.754 155.797 123.919 162.545 126.496C166.485 128.001 167.715 128.083 170.61 127.036C172.489 126.357 174.15 125.955 174.301 126.143C174.453 126.331 173.53 133.01 172.25 140.985C166.712 175.496 166.721 176.979 172.476 177.993L175.363 178.502L172.369 180.63C165.077 185.814 156.317 185.438 155.208 179.893C154.211 174.909 152.357 174.356 148.374 177.853C140.976 184.348 134.579 186.028 128.3 183.124ZM149.38 173.848C151.345 172.122 153.403 169.87 153.953 168.842C154.503 167.814 156.043 159.688 157.376 150.785C160.048 132.932 159.78 130.664 154.709 128.233C151.759 126.82 147.836 127.809 144.519 130.804C138.006 136.685 132.684 157.283 134.78 168.502C136.415 177.252 142.828 179.6 149.38 173.848ZM253.876 183.697C250.335 181.914 250.229 177.111 253.316 158.166C256.588 138.082 256.58 136.683 253.169 134.001C250.14 131.618 247.02 131.885 242.876 134.884C238.464 138.078 237.13 142.036 234.419 159.985C232.965 169.61 231.538 178.722 231.246 180.235C230.735 182.894 230.506 182.985 224.297 182.985C220.765 182.985 217.876 182.575 217.876 182.075C217.876 181.574 218.789 175.162 219.904 167.825C224.19 139.623 224.298 138.278 222.494 135.524C220.164 131.968 216.857 131.444 212.093 133.874C205.694 137.138 204.422 140.319 201.446 160.485C199.985 170.385 198.576 179.497 198.314 180.735C197.878 182.794 197.276 182.985 191.218 182.985H184.598L185.224 178.235C185.569 175.622 187.158 164.724 188.756 154.016C191.722 134.137 191.659 130.883 188.286 129.588C187.256 129.193 186.917 128.567 187.459 128.059C188.676 126.917 198.085 124.985 202.425 124.985C205.776 124.985 205.876 125.099 205.876 128.926C205.876 131.093 206.302 133.13 206.822 133.451C207.342 133.773 210.141 132.24 213.041 130.044C222.684 122.747 232.417 122.827 236.376 130.236C237.476 132.295 238.836 133.98 239.398 133.982C239.96 133.983 241.985 132.7 243.898 131.13C251.938 124.532 260.443 122.79 265.675 126.67C270.274 130.081 270.489 134.876 266.986 155.841C263.657 175.765 263.815 177.985 268.566 177.985C271.096 177.985 271.126 178.051 269.43 179.925C267.819 181.706 259.983 185.005 257.448 184.97C256.858 184.962 255.251 184.389 253.876 183.697ZM288.531 183.576C283.039 181.546 280.057 178.333 278.358 172.612C274.404 159.297 279.165 141.504 289.142 132.307C294.667 127.214 296.615 126.162 302.612 125.03C313.424 122.99 321.876 127.847 321.876 136.101C321.876 141.07 318.825 147.173 314.968 149.919C311.274 152.55 299.634 156.985 296.425 156.985C292.305 156.985 290.564 159.698 291.206 165.119C291.516 167.736 292.434 171.164 293.248 172.736C296.17 178.388 303.613 179.54 310.769 175.449C316.125 172.388 317.195 172.999 313.405 176.955C307.439 183.182 295.829 186.272 288.531 183.576ZM302.134 151.036C307.768 147.463 310.876 141.924 310.876 135.459C310.876 129.379 309.506 126.985 306.028 126.985C302.531 126.985 298.68 130.903 295.993 137.195C293.815 142.295 291.981 150.8 292.636 152.764C293.327 154.838 297.27 154.12 302.134 151.036ZM334.376 184.114C330.408 183.08 326.662 181.03 325.158 179.071C323.245 176.58 323.626 171.235 325.876 168.985C329.992 164.868 333.876 167.399 333.876 174.196C333.876 179.781 336.177 181.985 342.01 181.985C348.516 181.985 352.876 178.177 352.876 172.496C352.876 167.311 351.634 165.565 344.602 160.868C332.503 152.785 328.851 147.263 330.344 139.304C331.068 135.444 335.852 129.566 340.025 127.408C352.33 121.045 369.482 125.483 368.675 134.821C368.28 139.398 364.161 142.742 361.001 141.051C359.347 140.166 358.876 138.974 358.876 135.672C358.876 129.6 356.729 126.985 351.742 126.985C346.328 126.985 341.876 131.229 341.876 136.392C341.876 140.842 345.003 144.456 353.862 150.246C361.958 155.537 364.882 159.694 364.86 165.883C364.835 172.776 361.538 177.831 354.857 181.22C348.989 184.196 339.715 185.507 334.376 184.114ZM529.019 183.522C523.624 181.802 520.145 178.687 517.806 173.485C513.723 164.403 514.545 151.545 519.885 140.967C526.095 128.664 538.756 122.375 551.87 125.08C561.929 127.154 566.887 134.93 566.865 148.601C566.835 168.128 555.434 182.433 538.376 184.349C535.323 184.692 531.679 184.37 529.019 183.522ZM543.629 178.735C547.929 174.291 550.514 168.001 552.337 157.547C554.891 142.901 554.03 133.138 549.811 128.92C547.304 126.413 542.823 126.452 539.572 129.009C533.23 133.998 528.368 151.827 529.057 167.568C529.413 175.724 529.77 177.242 531.845 179.452C535.287 183.115 539.646 182.85 543.629 178.735ZM611.144 183.772C607.555 182.04 607.381 177.353 610.268 160.174C612.935 144.305 613.449 137.389 612.111 135.384C609.028 130.768 602.421 131.778 596.632 137.75C593.057 141.438 592.979 141.699 590.433 158.485C589.015 167.835 587.595 177.172 587.277 179.235L586.7 182.985H579.769C573.093 182.985 572.857 182.902 573.36 180.735C574.416 176.184 579.876 137.898 579.876 135.045C579.876 133.139 579.096 131.552 577.667 130.551C576.288 129.585 575.818 128.664 576.417 128.101C577.681 126.911 587.031 124.985 591.539 124.985H595.103L594.428 129.485C593.826 133.503 593.961 133.985 595.692 133.985C596.759 133.985 598.227 133.267 598.955 132.39C599.682 131.513 602.55 129.492 605.327 127.9C609.249 125.65 611.635 125.001 616.015 124.994C627.405 124.975 628.88 130.308 624.42 155.366C622.963 163.551 621.907 171.874 622.074 173.862C622.333 176.958 622.786 177.548 625.236 177.98C628.093 178.484 628.094 178.487 626.053 180.33C623.896 182.277 617.41 184.913 614.876 184.873C614.051 184.86 612.372 184.365 611.144 183.772ZM649.818 184.012C639.948 181.112 636.137 170.979 639.287 156.015C641.355 146.194 645.128 138.958 651.088 133.383C658.306 126.631 663.554 124.637 672.576 125.216C676.627 125.476 680.188 125.289 680.49 124.8C681.335 123.433 683.868 106.949 683.872 102.791C683.875 100.095 683.269 98.6704 681.626 97.5132C679.813 96.2364 679.648 95.7587 680.775 95.0556C682.652 93.8845 697.793 91.568 698.559 92.3346C699.248 93.0236 697.517 106.076 691.776 143.485C689.582 157.785 687.919 171.285 688.081 173.485C688.356 177.212 688.614 177.521 691.876 178.024L695.376 178.563L691.876 180.789C686.553 184.175 681.881 185.332 678.6 184.077C675.776 182.996 675.502 182.579 674.441 177.735C673.673 174.232 672.558 174.277 667.858 177.999C661.687 182.887 654.332 185.338 649.818 184.012ZM667.886 174.735C673.886 170.651 674.691 168.615 677.268 150.985C679.058 138.733 679.405 133.971 678.614 132.485C674.38 124.531 664.029 127.394 658.63 138.012C652.561 149.946 651.116 169.418 655.92 174.532C658.861 177.662 663.471 177.74 667.886 174.735ZM92.1261 180.8C89.7886 179.76 87.8761 178.218 87.8761 177.373C87.8761 173.62 93.4983 159.737 100.891 145.236C110.212 126.952 111.605 120.799 108.35 112.276C106.295 106.897 98.492 97.9847 95.8367 97.9847C94.07 97.9847 92.0642 103.248 88.2147 117.985C87.4245 121.01 85.622 127.197 84.2092 131.735L81.6404 139.985H75.7582C72.5231 139.985 69.8761 139.561 69.8761 139.043C69.8761 138.525 71.4146 133.012 73.2951 126.793C75.1755 120.573 78.2854 110.085 80.2059 103.485C82.1264 96.8847 85.73 84.5097 88.214 75.9847C90.9343 66.6485 92.5206 59.4253 92.203 57.8207C91.6762 55.1585 91.6807 55.1564 98.7982 54.8207C102.715 54.6359 106.361 54.6347 106.898 54.8177C108.418 55.3356 108.057 57.483 106.012 60.0995C104.006 62.6651 98.8761 79.3131 98.8761 83.2563C98.8761 85.0317 100.288 86.6241 104.329 89.4072C110.066 93.3587 115.307 99.1297 118.475 104.984C119.933 107.68 120.369 110.557 120.372 117.506L120.376 126.527L110.608 146.006C103.65 159.881 100.245 167.929 98.7723 173.984C97.6348 178.659 96.6304 182.531 96.5403 182.588C96.4501 182.644 94.4636 181.84 92.1261 180.8ZM97.8761 45.2595C97.8761 44.7357 98.967 40.7472 100.3 36.396C101.634 32.0448 104.13 23.8938 105.849 18.2827C110.659 2.57716 113.613 1.04171 132.376 4.4975C136.776 5.30791 143.714 6.42258 147.794 6.97454C159.683 8.5831 161.236 11.6746 154.017 19.3628C147.544 26.2572 132.878 34.6588 114.832 41.8106C106.691 45.0371 97.8761 46.83 97.8761 45.2595ZM129.712 31.9758C135.027 29.221 141.541 25.3716 144.187 23.4217C148.154 20.4985 148.944 19.4034 148.687 17.1805C148.391 14.6141 148.04 14.4526 141.376 13.8162C119.494 11.7264 121.314 11.697 118.525 14.1853C116.822 15.7045 115.205 19.0571 113.761 24.0661C109.549 38.6704 113.252 40.5065 129.712 31.9758Z" fill="#177D7D"/>
<path d="M408.876 194.378C396.76 192.648 394.876 191.821 394.876 188.229C394.876 185.6 395.102 185.453 398.626 185.784C400.689 185.978 403.726 185.608 405.376 184.962C409.992 183.155 427.876 183.224 427.876 185.049C427.876 185.634 426.921 188.334 425.753 191.049C423.322 196.699 424.085 196.549 408.876 194.378ZM453.876 194.8C453.876 194.148 454.816 191.675 455.964 189.303C457.86 185.386 458.296 185.059 460.714 185.737C462.178 186.148 468.268 186.395 474.247 186.287C484.048 186.11 485.497 185.839 488.975 183.537C491.097 182.133 493.588 180.984 494.51 180.984C497.349 180.984 493.156 184.813 486.876 187.954C479.299 191.745 472.748 193.706 463.554 194.937C453.836 196.238 453.876 196.238 453.876 194.8ZM127.277 182.087C117.371 176.047 119.202 149.446 130.443 136.086C134.749 130.97 141.055 127.232 147.697 125.86C153.276 124.708 154.556 124.782 160.807 126.623C166.784 128.383 168.156 128.486 170.81 127.37L173.885 126.077L173.28 130.281C172.948 132.592 171.371 142.674 169.776 152.685C168.181 162.695 166.876 171.963 166.876 173.28C166.876 175.675 169.055 178.271 171.876 179.237C173.911 179.934 165.235 183.933 161.626 183.962C158.204 183.989 154.876 180.795 154.876 177.484C154.876 173.868 151.628 174.234 146.512 178.426C139.301 184.335 132.947 185.544 127.277 182.087ZM150.215 174.105C154.714 169.952 155.734 167.012 157.869 152.034C160.454 133.903 160.425 132.442 157.422 129.439C150.892 122.909 141.87 129.187 136.701 143.859C133.773 152.168 133.136 168.344 135.555 172.955C138.487 178.545 144.865 179.045 150.215 174.105ZM252.383 181.635C250.77 179.173 250.841 178.086 253.862 158.916C256.515 142.085 256.838 138.305 255.829 135.871C254.474 132.598 251.437 131.442 246.589 132.352L243.376 132.956L246.573 130.032C251.44 125.579 259.259 123.835 264.219 126.094C269.596 128.544 270.046 134.7 266.367 155.484C262.989 174.574 263.045 176.731 266.961 178.378L270.047 179.675L266.252 181.476C264.164 182.467 260.571 183.49 258.267 183.749C254.601 184.162 253.866 183.898 252.383 181.635ZM287.291 182.626C280.321 179.449 277.359 171.946 278.156 159.484C278.908 147.722 281.86 140.815 289.289 133.441C295.778 126.998 300.189 124.984 307.808 124.984C312.351 124.984 315.109 126.08 318.626 129.283C321.623 132.013 321.752 139.831 318.877 144.483C315.293 150.282 310.238 152.758 292.126 157.588C290.265 158.084 290.552 168.236 292.545 172.416C294.309 176.114 298.933 178.984 303.128 178.984C304.476 178.984 307.783 177.816 310.477 176.388L315.376 173.793L312.876 176.486C307.146 182.659 294.187 185.768 287.291 182.626ZM300.905 152.47C307.292 149.233 310.835 144 311.485 136.843C312.851 121.823 300.791 122.851 295.046 138.244C292.553 144.925 291.379 151.246 292.223 153.446C293.053 155.608 295.183 155.369 300.905 152.47ZM332.818 183.101C328.122 181.557 326.16 180.084 324.968 177.206C323.396 173.412 324.966 169.25 328.284 168.418C331.87 167.518 332.559 168.334 333.118 174.15C333.901 182.297 339.076 185.016 347.278 181.59C353.431 179.018 355.529 173.082 352.414 167.057C351.609 165.501 348.347 162.532 345.164 160.458C334.061 153.226 330.872 149.056 330.883 141.784C330.894 134.709 336.013 128.951 344.587 126.371C358.115 122.299 370.831 128.078 367.755 136.9C366.705 139.914 363.134 141.88 361.05 140.591C360.533 140.272 359.8 137.533 359.422 134.504C358.923 130.508 358.144 128.585 356.583 127.491C350.494 123.226 340.876 129.268 340.876 137.358C340.876 140.79 344.932 145.265 351.848 149.467C363.148 156.331 366.657 163.033 363.406 171.544C361.785 175.789 358.416 179.162 352.999 181.962C350.075 183.473 336.313 184.25 332.818 183.101ZM528.79 183.09C524.302 181.623 521.332 179.138 518.815 174.743C516.661 170.982 516.383 169.314 516.434 160.484C516.509 147.354 518.973 140.602 526.321 133.39C534.114 125.742 544.036 123.154 554.058 126.157C563.96 129.123 569.25 143.605 565.502 157.484C562.389 169.014 557.831 175.513 549.333 180.54C544.886 183.171 533.399 184.597 528.79 183.09ZM544.367 178.655C549.321 173.484 552.231 165.141 553.916 151.275C554.746 144.445 554.742 140.657 553.902 136.608C552.682 130.731 549.013 125.984 545.69 125.984C537.582 125.984 530.847 137.904 528.738 155.984C527.367 167.745 528.357 176.214 531.547 180.005C535.324 184.493 539.16 184.09 544.367 178.655ZM610.536 182.76C608.181 180.992 608.528 173.07 611.788 154.194C614.247 139.959 614.025 134.669 610.899 132.996C606.29 130.53 600.201 132.572 595.209 138.258C592.575 141.257 592.045 143.021 590.457 154.059C589.474 160.893 588.135 170.084 587.482 174.484L586.295 182.484L580.086 182.782C576.67 182.946 573.876 182.874 573.876 182.622C573.876 182.37 574.782 176.161 575.888 168.824C576.995 161.487 578.646 150.351 579.557 144.078L581.214 132.671L578.577 130.404L575.941 128.136L580.885 127.075C583.605 126.492 587.686 125.718 589.955 125.355L594.081 124.696L593.728 129.571C593.279 135.793 595.371 136.513 600.589 131.931C610.567 123.17 622.484 122.795 625.938 131.132C627.128 134.007 626.907 136.611 623.983 154.09C622.169 164.933 620.962 174.681 621.302 175.751C621.642 176.822 622.907 178.139 624.114 178.677C626.306 179.655 626.305 179.657 623.577 181.444C619.932 183.833 612.909 184.541 610.536 182.76ZM646.876 182.233C635.49 176.545 636.472 151.124 648.644 136.484C655.455 128.291 666.878 123.723 675.236 125.85C680.746 127.252 681.63 126.225 682.895 116.948C685.352 98.9227 685.361 99.5108 682.592 97.3323L680.062 95.3428L687.719 94.1022C691.931 93.4199 696.223 92.615 697.258 92.3136C698.949 91.8213 699.067 92.1548 698.421 95.5982C698.025 97.7062 696.416 108.218 694.845 118.957C693.274 129.697 690.786 146.231 689.315 155.699C687.845 165.168 686.919 174.017 687.257 175.365C687.625 176.83 688.979 178.205 690.624 178.783L693.376 179.75L688.876 181.845C686.401 182.997 683.139 183.95 681.626 183.962C678.168 183.99 674.876 180.785 674.876 177.39C674.876 175.621 674.228 174.627 672.836 174.263C671.048 173.796 670.971 173.529 672.208 172.107C672.984 171.214 674.098 169.555 674.684 168.42C676.269 165.344 680.268 135.681 679.506 132.645C679.122 131.117 677.549 129.349 675.74 128.414C667.396 124.099 658.472 132.179 654.453 147.688C652.623 154.748 652.362 169.762 654.006 173.369C655.646 176.97 660.097 178.559 664.64 177.165C666.639 176.551 668.418 176.193 668.593 176.368C669.256 177.031 661.059 182.071 657.796 183.007C652.998 184.383 650.88 184.233 646.876 182.233ZM185.256 180.606C186.315 176.387 191.876 137.996 191.876 134.905C191.876 133.298 191.016 131.124 189.965 130.073C188.083 128.191 188.162 128.137 195.087 126.573C205.005 124.333 204.876 124.296 204.876 129.377C204.876 132.422 205.352 133.953 206.426 134.365C207.757 134.875 207.635 135.56 205.564 139.222C203.737 142.45 202.601 147.365 200.878 159.484C199.627 168.284 198.308 177.059 197.948 178.984L197.294 182.484L190.964 182.785C184.669 183.084 184.637 183.072 185.256 180.606ZM218.283 181.234C219.642 176.847 224.616 140.076 224.168 137.732C223.324 133.317 220.59 131.644 215.209 132.25L210.493 132.782L212.935 130.817C216.912 127.615 223.128 125.03 226.904 125.006C231.342 124.978 234.685 127.282 236.495 131.615C237.269 133.468 238.603 134.984 239.458 134.984C240.768 134.984 240.706 135.416 239.062 137.734C236.892 140.794 235.997 144.862 232.85 165.984C231.661 173.959 230.52 181.047 230.314 181.734C230.067 182.556 227.852 182.984 223.84 182.984C218.492 182.984 217.808 182.769 218.283 181.234ZM114.344 127.525C113.962 123.962 113.843 119.396 114.078 117.379C114.314 115.361 113.757 110.156 112.84 105.812L111.173 97.9144L113.66 100.199C117.434 103.666 119.979 110.266 120.072 116.83C120.151 122.401 117.635 132.397 115.88 133.482C115.417 133.768 114.725 131.088 114.344 127.525ZM96.8914 82.4008C96.8994 80.7966 97.3371 78.8091 97.8631 77.9841C98.5143 76.9626 98.6238 77.7601 98.2062 80.4841C97.4484 85.4273 96.8711 86.2689 96.8914 82.4008ZM103.876 57.0674C103.876 55.8391 104.522 54.9841 105.449 54.9841C106.381 54.9841 106.891 55.6645 106.699 56.6512C106.213 59.16 103.876 59.5045 103.876 57.0674ZM138.876 28.5193C138.876 28.2636 139.889 27.515 141.126 26.8556C143.166 25.7684 143.248 25.8118 142.004 27.3204C140.726 28.8694 138.876 29.5785 138.876 28.5193ZM149.012 20.8474C150.312 18.9976 151.714 17.3341 152.126 17.1508C153.574 16.5074 152.854 15.2098 150.626 14.4464C149.389 14.0224 143.201 13.1391 136.876 12.4836C128.967 11.6638 126.99 11.2437 130.544 11.1379C136.734 10.9537 138.876 10.2439 138.876 8.37711C138.876 6.35871 140.558 6.66626 143.028 9.13626C145.075 11.183 145.244 11.2008 146.489 9.49903C147.506 8.10867 148.627 7.84425 151.517 8.31333C153.564 8.64536 155.944 9.63462 156.807 10.5117C158.234 11.9616 158.2 12.2369 156.435 13.5452C155.367 14.3366 154.851 14.9841 155.289 14.9841C156.274 14.9841 150.11 22.1635 148.108 23.3474C147.306 23.8223 147.712 22.6973 149.012 20.8474ZM128.689 5.301C129.41 5.01213 130.273 5.04764 130.605 5.37989C130.938 5.71218 130.347 5.94854 129.293 5.90511C128.128 5.85711 127.891 5.62022 128.689 5.301ZM123.145 4.29111C124.118 4.03757 125.468 4.05423 126.145 4.3282C126.822 4.60212 126.026 4.80957 124.376 4.78919C122.726 4.76879 122.172 4.54465 123.145 4.29111Z" fill="#177D7D"/>
</g>
<defs>
<filter id="filter0_d_12_15" x="0" y="1.33594" width="703.891" height="252.87" filterUnits="userSpaceOnUse" color-interpolation-filters="sRGB">
<feFlood flood-opacity="0" result="BackgroundImageFix"/>
<feColorMatrix in="SourceAlpha" type="matrix" values="0 0 0 0 0 0 0 0 0 0 0 0 0 0 0 0 0 0 127 0" result="hardAlpha"/>
<feOffset dy="4"/>
<feGaussianBlur stdDeviation="2"/>
<feComposite in2="hardAlpha" operator="out"/>
<feColorMatrix type="matrix" values="0 0 0 0 0.0899 0 0 0 0 0.4901 0 0 0 0 0.4901 0 0 0 1 0"/>
<feBlend mode="normal" in2="BackgroundImageFix" result="effect1_dropShadow_12_15"/>
<feBlend mode="normal" in="SourceGraphic" in2="effect1_dropShadow_12_15" result="shape"/>
</filter>
</defs>
</svg>
