<svg width="1024" height="682" viewBox="0 0 1024 682" fill="none" xmlns="http://www.w3.org/2000/svg">
<path d="M308.04 390.14C309.6 390.14 311.02 390.32 312.3 390.68C313.62 391 314.7 391.42 315.54 391.94C316.58 392.58 317.38 393.38 317.94 394.34C318.54 395.26 318.84 396.34 318.84 397.58C318.84 398.98 318.4 400.14 317.52 401.06C316.64 401.94 315.5 402.38 314.1 402.38C312.7 402.38 311.58 401.98 310.74 401.18C309.9 400.38 309.48 399.3 309.48 397.94C309.48 396.66 309.88 395.6 310.68 394.76C311.48 393.88 312.4 393.3 313.44 393.02C313.12 392.62 312.64 392.28 312 392C311.36 391.72 310.64 391.58 309.84 391.58C308.6 391.58 307.5 391.94 306.54 392.66C305.62 393.38 304.84 394.38 304.2 395.66C303.56 396.94 303.06 398.44 302.7 400.16C302.38 401.88 302.22 403.76 302.22 405.8C302.22 408.88 302.6 411.3 303.36 413.06C304.16 414.82 305.16 416.06 306.36 416.78C307.6 417.5 308.88 417.86 310.2 417.86C310.96 417.86 311.78 417.74 312.66 417.5C313.58 417.26 314.5 416.78 315.42 416.06C316.38 415.34 317.26 414.32 318.06 413L319.08 413.36C318.64 414.84 317.92 416.32 316.92 417.8C315.92 419.28 314.62 420.5 313.02 421.46C311.42 422.38 309.46 422.84 307.14 422.84C304.54 422.84 302.18 422.28 300.06 421.16C297.98 420 296.3 418.24 295.02 415.88C293.78 413.48 293.16 410.4 293.16 406.64C293.16 403.04 293.8 400.02 295.08 397.58C296.4 395.1 298.18 393.24 300.42 392C302.66 390.76 305.2 390.14 308.04 390.14ZM338.646 375.02V416.42C338.646 418.1 338.926 419.24 339.486 419.84C340.086 420.44 341.086 420.74 342.486 420.74V422C341.726 421.96 340.586 421.92 339.066 421.88C337.546 421.8 336.006 421.76 334.446 421.76C332.886 421.76 331.306 421.8 329.706 421.88C328.146 421.92 326.966 421.96 326.166 422V420.74C327.566 420.74 328.546 420.44 329.106 419.84C329.706 419.24 330.006 418.1 330.006 416.42V382.22C330.006 380.42 329.726 379.1 329.166 378.26C328.646 377.38 327.646 376.94 326.166 376.94V375.68C327.446 375.8 328.686 375.86 329.886 375.86C331.526 375.86 333.086 375.8 334.566 375.68C336.046 375.52 337.406 375.3 338.646 375.02ZM364.133 390.14C367.653 390.14 370.413 391.18 372.413 393.26C374.413 395.34 375.413 398.74 375.413 403.46H355.673L355.553 402.32H367.853C367.893 400.36 367.773 398.56 367.493 396.92C367.213 395.24 366.773 393.9 366.173 392.9C365.573 391.9 364.773 391.4 363.773 391.4C362.373 391.4 361.173 392.28 360.173 394.04C359.213 395.8 358.633 398.72 358.433 402.8L358.613 403.16C358.573 403.64 358.533 404.14 358.493 404.66C358.493 405.18 358.493 405.72 358.493 406.28C358.493 409.04 358.873 411.28 359.633 413C360.433 414.72 361.433 415.98 362.633 416.78C363.833 417.54 365.053 417.92 366.293 417.92C367.133 417.92 367.993 417.8 368.873 417.56C369.793 417.28 370.713 416.8 371.633 416.12C372.553 415.4 373.413 414.4 374.213 413.12L375.293 413.48C374.813 415 374.053 416.48 373.013 417.92C371.973 419.36 370.653 420.54 369.053 421.46C367.453 422.38 365.533 422.84 363.293 422.84C360.573 422.84 358.173 422.26 356.093 421.1C354.013 419.94 352.373 418.18 351.173 415.82C350.013 413.46 349.433 410.46 349.433 406.82C349.433 403.1 350.053 400 351.293 397.52C352.573 395.04 354.313 393.2 356.513 392C358.753 390.76 361.293 390.14 364.133 390.14ZM391.367 422.42C389.567 422.42 388.067 422.08 386.867 421.4C385.667 420.72 384.787 419.82 384.227 418.7C383.667 417.54 383.387 416.28 383.387 414.92C383.387 413.2 383.767 411.8 384.527 410.72C385.327 409.64 386.347 408.76 387.587 408.08C388.827 407.4 390.127 406.84 391.487 406.4C392.887 405.96 394.207 405.54 395.447 405.14C396.727 404.7 397.747 404.2 398.507 403.64C399.307 403.04 399.707 402.28 399.707 401.36V396.68C399.707 395.64 399.527 394.72 399.167 393.92C398.847 393.08 398.327 392.44 397.607 392C396.927 391.56 396.027 391.34 394.907 391.34C394.107 391.34 393.307 391.46 392.507 391.7C391.707 391.9 391.047 392.26 390.527 392.78C391.647 393.18 392.507 393.8 393.107 394.64C393.747 395.44 394.067 396.36 394.067 397.4C394.067 398.76 393.587 399.84 392.627 400.64C391.707 401.44 390.607 401.84 389.327 401.84C387.887 401.84 386.787 401.4 386.027 400.52C385.307 399.6 384.947 398.5 384.947 397.22C384.947 396.06 385.227 395.1 385.787 394.34C386.387 393.58 387.207 392.86 388.247 392.18C389.367 391.54 390.707 391.04 392.267 390.68C393.867 390.32 395.587 390.14 397.427 390.14C399.267 390.14 400.927 390.34 402.407 390.74C403.887 391.1 405.127 391.78 406.127 392.78C407.047 393.7 407.647 394.84 407.927 396.2C408.207 397.52 408.347 399.2 408.347 401.24V417.56C408.347 418.56 408.447 419.26 408.647 419.66C408.847 420.02 409.187 420.2 409.667 420.2C410.027 420.2 410.367 420.1 410.687 419.9C411.047 419.7 411.427 419.46 411.827 419.18L412.427 420.2C411.587 420.92 410.607 421.48 409.487 421.88C408.407 422.24 407.187 422.42 405.827 422.42C404.347 422.42 403.167 422.22 402.287 421.82C401.407 421.38 400.767 420.8 400.367 420.08C400.007 419.36 399.827 418.52 399.827 417.56C398.867 419.08 397.707 420.28 396.347 421.16C394.987 422 393.327 422.42 391.367 422.42ZM395.627 418.58C396.427 418.58 397.147 418.4 397.787 418.04C398.467 417.64 399.107 417 399.707 416.12V403.82C399.347 404.42 398.847 404.96 398.207 405.44C397.567 405.92 396.887 406.42 396.167 406.94C395.447 407.42 394.747 407.96 394.067 408.56C393.427 409.16 392.907 409.9 392.507 410.78C392.107 411.66 391.907 412.72 391.907 413.96C391.907 415.52 392.247 416.68 392.927 417.44C393.607 418.2 394.507 418.58 395.627 418.58ZM440.662 390.14C442.342 390.14 443.702 390.36 444.742 390.8C445.822 391.2 446.662 391.76 447.262 392.48C447.902 393.24 448.362 394.22 448.642 395.42C448.962 396.62 449.122 398.24 449.122 400.28V416.42C449.122 418.1 449.402 419.24 449.962 419.84C450.562 420.44 451.562 420.74 452.962 420.74V422C452.202 421.96 451.062 421.92 449.542 421.88C448.022 421.8 446.522 421.76 445.042 421.76C443.522 421.76 442.022 421.8 440.542 421.88C439.102 421.92 438.002 421.96 437.242 422V420.74C438.442 420.74 439.282 420.44 439.762 419.84C440.242 419.24 440.482 418.1 440.482 416.42V397.76C440.482 396.76 440.382 395.9 440.182 395.18C439.982 394.42 439.622 393.84 439.102 393.44C438.582 393 437.802 392.78 436.762 392.78C435.682 392.78 434.682 393.08 433.762 393.68C432.882 394.28 432.162 395.12 431.602 396.2C431.082 397.24 430.822 398.42 430.822 399.74V416.42C430.822 418.1 431.062 419.24 431.542 419.84C432.062 420.44 432.902 420.74 434.062 420.74V422C433.342 421.96 432.282 421.92 430.882 421.88C429.522 421.8 428.102 421.76 426.622 421.76C425.102 421.76 423.542 421.8 421.942 421.88C420.342 421.92 419.142 421.96 418.342 422V420.74C419.742 420.74 420.722 420.44 421.282 419.84C421.882 419.24 422.182 418.1 422.182 416.42V397.52C422.182 395.72 421.902 394.4 421.342 393.56C420.822 392.68 419.822 392.24 418.342 392.24V390.98C419.622 391.1 420.862 391.16 422.062 391.16C423.742 391.16 425.302 391.1 426.742 390.98C428.222 390.82 429.582 390.6 430.822 390.32V395.72C431.822 393.68 433.182 392.24 434.902 391.4C436.622 390.56 438.542 390.14 440.662 390.14ZM467.197 375.5C468.877 375.5 470.197 375.92 471.157 376.76C472.157 377.56 472.657 378.68 472.657 380.12C472.657 381.56 472.157 382.7 471.157 383.54C470.197 384.34 468.877 384.74 467.197 384.74C465.517 384.74 464.177 384.34 463.177 383.54C462.217 382.7 461.737 381.56 461.737 380.12C461.737 378.68 462.217 377.56 463.177 376.76C464.177 375.92 465.517 375.5 467.197 375.5ZM471.877 390.32V416.42C471.877 418.1 472.157 419.24 472.717 419.84C473.317 420.44 474.317 420.74 475.717 420.74V422C474.997 421.96 473.877 421.92 472.357 421.88C470.837 421.8 469.297 421.76 467.737 421.76C466.177 421.76 464.597 421.8 462.997 421.88C461.397 421.92 460.197 421.96 459.397 422V420.74C460.797 420.74 461.777 420.44 462.337 419.84C462.937 419.24 463.237 418.1 463.237 416.42V397.52C463.237 395.72 462.957 394.4 462.397 393.56C461.877 392.68 460.877 392.24 459.397 392.24V390.98C460.677 391.1 461.917 391.16 463.117 391.16C464.797 391.16 466.357 391.1 467.797 390.98C469.277 390.82 470.637 390.6 471.877 390.32ZM504.843 390.14C506.523 390.14 507.883 390.36 508.923 390.8C510.003 391.2 510.843 391.76 511.443 392.48C512.083 393.24 512.543 394.22 512.823 395.42C513.143 396.62 513.303 398.24 513.303 400.28V416.42C513.303 418.1 513.583 419.24 514.143 419.84C514.743 420.44 515.743 420.74 517.143 420.74V422C516.383 421.96 515.243 421.92 513.723 421.88C512.203 421.8 510.703 421.76 509.223 421.76C507.703 421.76 506.203 421.8 504.723 421.88C503.283 421.92 502.183 421.96 501.423 422V420.74C502.623 420.74 503.463 420.44 503.943 419.84C504.423 419.24 504.663 418.1 504.663 416.42V397.76C504.663 396.76 504.563 395.9 504.363 395.18C504.163 394.42 503.803 393.84 503.283 393.44C502.763 393 501.983 392.78 500.943 392.78C499.863 392.78 498.863 393.08 497.943 393.68C497.063 394.28 496.343 395.12 495.783 396.2C495.263 397.24 495.003 398.42 495.003 399.74V416.42C495.003 418.1 495.243 419.24 495.723 419.84C496.243 420.44 497.083 420.74 498.243 420.74V422C497.523 421.96 496.463 421.92 495.063 421.88C493.703 421.8 492.283 421.76 490.803 421.76C489.283 421.76 487.723 421.8 486.123 421.88C484.523 421.92 483.323 421.96 482.523 422V420.74C483.923 420.74 484.903 420.44 485.463 419.84C486.063 419.24 486.363 418.1 486.363 416.42V397.52C486.363 395.72 486.083 394.4 485.523 393.56C485.003 392.68 484.003 392.24 482.523 392.24V390.98C483.803 391.1 485.043 391.16 486.243 391.16C487.923 391.16 489.483 391.1 490.923 390.98C492.403 390.82 493.763 390.6 495.003 390.32V395.72C496.003 393.68 497.363 392.24 499.083 391.4C500.803 390.56 502.723 390.14 504.843 390.14ZM534.808 433.28C532.328 433.28 530.108 433.06 528.148 432.62C526.228 432.22 524.708 431.58 523.588 430.7C522.508 429.86 521.968 428.82 521.968 427.58C521.968 426.34 522.528 425.22 523.648 424.22C524.768 423.26 526.428 422.5 528.628 421.94L529.168 422.9C528.408 423.5 527.848 424.14 527.488 424.82C527.168 425.54 527.008 426.28 527.008 427.04C527.008 428.72 527.768 430 529.288 430.88C530.848 431.8 532.948 432.26 535.588 432.26C537.388 432.26 538.988 432.02 540.388 431.54C541.828 431.06 542.948 430.34 543.748 429.38C544.588 428.42 545.008 427.24 545.008 425.84C545.008 424.64 544.568 423.62 543.688 422.78C542.808 421.98 541.048 421.58 538.408 421.58H534.688C533.048 421.58 531.608 421.4 530.368 421.04C529.168 420.68 528.228 420.12 527.548 419.36C526.868 418.56 526.528 417.56 526.528 416.36C526.528 414.68 527.188 413.2 528.508 411.92C529.828 410.64 531.788 409.44 534.388 408.32L534.988 408.8C534.228 409.28 533.508 409.8 532.828 410.36C532.188 410.88 531.868 411.56 531.868 412.4C531.868 413.68 532.668 414.32 534.268 414.32H540.808C543.008 414.32 544.968 414.58 546.688 415.1C548.448 415.62 549.828 416.48 550.828 417.68C551.868 418.84 552.388 420.36 552.388 422.24C552.388 424.2 551.748 426.02 550.468 427.7C549.228 429.38 547.308 430.72 544.708 431.72C542.108 432.76 538.808 433.28 534.808 433.28ZM535.408 409.22C533.128 409.22 531.088 408.88 529.288 408.2C527.488 407.52 526.068 406.48 525.028 405.08C523.988 403.68 523.468 401.88 523.468 399.68C523.468 397.48 523.988 395.68 525.028 394.28C526.068 392.84 527.488 391.8 529.288 391.16C531.088 390.48 533.128 390.14 535.408 390.14C537.688 390.14 539.728 390.48 541.528 391.16C543.328 391.8 544.748 392.84 545.788 394.28C546.828 395.68 547.348 397.48 547.348 399.68C547.348 401.88 546.828 403.68 545.788 405.08C544.748 406.48 543.328 407.52 541.528 408.2C539.728 408.88 537.688 409.22 535.408 409.22ZM535.408 408.14C536.488 408.14 537.328 407.54 537.928 406.34C538.528 405.1 538.828 402.88 538.828 399.68C538.828 396.48 538.528 394.28 537.928 393.08C537.328 391.84 536.488 391.22 535.408 391.22C534.368 391.22 533.528 391.84 532.888 393.08C532.288 394.28 531.988 396.48 531.988 399.68C531.988 402.88 532.288 405.1 532.888 406.34C533.528 407.54 534.368 408.14 535.408 408.14ZM544.768 395.3L543.568 394.88C544.168 393.32 545.128 392.02 546.448 390.98C547.808 389.94 549.268 389.42 550.828 389.42C552.108 389.42 553.068 389.78 553.708 390.5C554.388 391.18 554.728 392.08 554.728 393.2C554.728 394.4 554.408 395.3 553.768 395.9C553.128 396.46 552.408 396.74 551.608 396.74C550.928 396.74 550.288 396.5 549.688 396.02C549.128 395.54 548.808 394.82 548.728 393.86C548.648 392.86 548.988 391.58 549.748 390.02L550.168 390.38C548.648 390.94 547.508 391.6 546.748 392.36C545.988 393.08 545.328 394.06 544.768 395.3Z" fill="#177D7D"/>
<path d="M244.01 421.957C231.178 418.244 230.033 398.397 242.314 392.569C247.496 390.11 253.054 391.046 257.212 395.076C265.429 403.04 263.406 416.561 253.312 421.145C248.717 423.232 248.485 423.252 244.01 421.957ZM254.771 414.136C262.314 406.593 253.939 392.778 244.715 397.548C241.068 399.434 239.694 401.868 239.694 406.446C239.694 416.127 248.361 420.547 254.771 414.136ZM162.179 417.033C161.83 416.469 161.302 413.657 161.006 410.783C160.568 406.531 160.838 405.102 162.458 403.102C164.377 400.733 165.068 400.614 181.821 399.785L199.194 398.925L202.117 395.242C208.173 387.609 218.13 378.97 224.466 375.851C235.242 370.546 246.93 370.693 253.216 376.212C258.343 380.714 257.674 384.057 252.344 380.565C245.438 376.04 234.009 378.273 225.66 385.78C221.148 389.836 220.737 390.53 222.056 391.849C223.375 393.168 224.135 392.906 228.704 389.552C237.759 382.905 244.803 381.564 252.444 385.032C254.785 386.094 256.694 387.657 256.694 388.51C256.694 390.326 255.533 390.42 250.46 389.011C245.338 387.588 239.901 389.2 236.029 393.29C231.71 397.852 230.627 400.342 230.583 405.811C230.52 413.669 230.229 414.057 224.377 414.074C221.527 414.082 207.494 414.976 193.194 416.059C162.714 418.368 162.998 418.359 162.179 417.033ZM565.956 383.517C560.324 382.793 554.771 381.9 553.614 381.533C550.895 380.67 548.653 375.251 549.231 370.94C549.481 369.081 550.621 358.784 551.765 348.059C554.068 326.462 556.506 313.708 560.675 301.453C563.243 293.901 565.268 289.745 575.037 271.968C577.546 267.402 578.741 263.869 578.927 260.468L579.194 255.559L592.347 255.281L605.499 255.002L605.847 264.281C606.275 275.698 610.107 286.314 615.944 292.247C619.118 295.473 620.346 296.059 623.93 296.059C633.597 296.059 647.443 284.667 651.769 273.154C654.755 265.209 654.216 254.956 650.519 249.37C647.451 244.734 640.079 239.525 634.242 237.87C628.985 236.379 628.314 235.712 629.063 232.727C629.633 230.458 630.045 230.293 633.94 230.784C636.28 231.079 639.712 231.937 641.567 232.69C645.446 234.265 648.069 234.475 647.247 233.144C646.258 231.543 633.073 226.977 631.35 227.638C630.199 228.079 629.694 227.741 629.694 226.527C629.694 225.013 630.378 224.861 634.829 225.389C637.654 225.723 642.716 227.293 646.079 228.877C659.307 235.107 667.099 244.27 670.342 257.414C674.507 274.29 665.934 292.711 648.73 303.855L643.265 307.395L646.203 309.477C653.279 314.49 660.586 322.38 662.696 327.285C672.799 350.77 660.495 373.718 633.694 381.372C626.746 383.356 611.139 385.444 609.1 384.661C607.214 383.937 607.658 382.266 612.452 372.059C614.389 367.934 616.522 362.538 617.193 360.068C618.346 355.818 618.646 355.535 622.803 354.791C628.057 353.85 632.194 354.476 637.931 357.08C643.914 359.796 648.94 359.585 654.39 356.391C661.392 352.288 664.875 342.617 661.226 337.407C659.419 334.828 654.732 332.874 618.507 319.598C584.278 307.054 581.681 306.288 578.412 307.778C575.648 309.037 571.692 316.711 571.7 320.798C571.709 325.047 573.626 330.991 575.637 333.002C576.634 333.999 580.318 335.774 583.822 336.947C588.068 338.368 591.608 340.432 594.43 343.131L598.666 347.182L596.306 351.87C595.008 354.449 591.369 362.634 588.219 370.059C585.069 377.484 581.975 383.89 581.343 384.294C579.909 385.211 578.618 385.146 565.956 383.517ZM632.964 368.809C633.673 366.776 632.612 365.059 630.647 365.059C628.442 365.059 627.311 366.618 628.074 368.607C628.757 370.384 632.362 370.533 632.964 368.809ZM571.048 365.221C572.604 363.501 572.582 363.267 570.703 361.566C568.762 359.81 568.627 359.81 566.686 361.566C564.807 363.267 564.785 363.501 566.341 365.221C567.256 366.232 568.315 367.059 568.694 367.059C569.074 367.059 570.133 366.232 571.048 365.221ZM584.507 350.794C584.891 348.798 582.04 347.314 580.594 348.759C579.195 350.158 580.662 353.212 582.559 352.847C583.446 352.676 584.322 351.752 584.507 350.794ZM574.582 293.289C579.133 281.922 579.658 279.308 576.636 283.059C570.745 290.369 564.366 308.032 563.217 320.211L562.619 326.559L566.544 315.059C568.703 308.734 572.32 298.937 574.582 293.289ZM285.194 371.656C278.917 368.886 275.694 362.382 275.694 352.485C275.694 331.291 287.419 314.335 304.438 310.916C310.165 309.765 311.259 309.847 317.65 311.906C324.236 314.027 324.791 314.06 327.771 312.519C329.549 311.6 331.302 311.267 331.791 311.755C332.279 312.243 331.791 318.279 330.673 325.59C325.042 362.392 325.218 360.78 326.634 362.487C327.624 363.679 328.879 363.927 331.461 363.443C336.248 362.545 335.454 364.623 329.458 368.684C319.804 375.221 312.751 373.774 309.357 364.559C309.155 364.009 307.054 365.098 304.688 366.98C297.529 372.674 291.031 374.233 285.194 371.656ZM303.859 361.309C308.879 358.354 310.435 354.523 312.641 339.678C315.125 322.96 315.175 320.247 313.039 317.888C308.966 313.387 301.558 317.387 297.36 326.355C294.103 333.311 292.694 340.498 292.694 350.154C292.694 357.31 292.952 358.408 295.149 360.604C298.06 363.516 299.862 363.661 303.859 361.309ZM410.07 372.074C405.602 370.27 405.418 366.297 408.83 345.349C412.465 323.028 412.252 321.059 406.201 321.059C403.599 321.059 401.738 321.917 399.153 324.309C395.845 327.37 395.532 328.228 393.765 339.059C392.733 345.384 391.326 354.609 390.637 359.559C388.903 372.033 388.884 372.059 381.359 372.059C377.914 372.059 374.64 371.604 374.084 371.048C373.403 370.368 373.947 364.247 375.749 352.298C377.221 342.542 378.737 332.428 379.119 329.823C379.734 325.622 379.533 324.807 377.343 322.617C375.207 320.481 374.434 320.273 371.624 321.079C367.703 322.204 364.216 325.313 362.843 328.908C362.286 330.366 360.653 339.659 359.214 349.559C357.775 359.459 356.179 368.571 355.668 369.809C354.84 371.811 354.032 372.059 348.338 372.059C344.425 372.059 341.547 371.573 340.929 370.809C339.947 369.594 340.378 366.024 345.157 335.854C347.276 322.481 347.174 319.621 344.519 317.859C340.595 315.253 342.843 313.435 352.117 311.714C356.836 310.839 361.372 310.382 362.196 310.698C363.172 311.073 363.694 312.63 363.694 315.166C363.694 319.682 364.484 319.941 368.368 316.7C378.07 308.602 390.164 308.264 394.154 315.98C395.029 317.673 396.18 319.059 396.712 319.059C397.243 319.059 399.717 317.502 402.209 315.599C406.515 312.313 412.077 310.077 415.977 310.065C419.553 310.053 424.596 312.967 426.128 315.931C428.274 320.08 428.109 324.412 425.136 342.023C423.728 350.359 422.716 358.615 422.886 360.369C423.177 363.38 423.405 363.547 426.944 363.339C429.007 363.218 430.694 363.477 430.694 363.915C430.694 365.407 426.203 368.931 421.694 370.975C416.907 373.146 413.517 373.466 410.07 372.074ZM445.608 372.163C437.614 369.556 433.629 363.39 432.919 352.532C431.511 330.981 444.187 312.446 461.756 310.365C467.753 309.655 474.737 312.026 477.684 315.772C480.099 318.843 480.415 326.779 478.284 330.859C475.028 337.091 467.456 341.84 456.316 344.639L449.694 346.302V351.23C449.694 362.784 456.83 367.019 467.098 361.559C471.682 359.122 474.694 358.39 474.694 359.715C474.694 361.672 469.268 366.973 464.743 369.436C459.2 372.453 450.361 373.712 445.608 372.163ZM456.676 338.068C462.522 335.086 465.953 329.99 466.492 323.488C467.886 306.675 453.446 317.318 451.132 334.809C450.336 340.823 450.773 341.08 456.676 338.068ZM489.97 372.151C479.786 369.533 475.757 359.63 482.854 354.66C487.793 351.2 491.694 353.767 491.694 360.475C491.694 365.721 493.931 368.059 498.947 368.059C504.057 368.059 508.694 364 508.694 359.526C508.694 355.3 506.218 352.447 497.223 346.313C492.806 343.302 489.422 340.093 487.989 337.559C485.362 332.913 484.999 326.304 487.143 322.158C493.335 310.185 514.83 306.04 523.866 315.076C527.59 318.801 527.748 324.096 524.24 327.604C519.695 332.149 514.694 329.847 514.694 323.21C514.694 315.112 508.269 312.331 502.618 317.982C499.031 321.568 498.778 325.784 501.944 329.18C503.182 330.507 507.431 333.74 511.387 336.364C519.995 342.075 522.925 346.284 522.925 352.94C522.925 360.693 518.219 367.272 510.31 370.575C505.765 372.474 494.593 373.339 489.97 372.151ZM684.787 371.829C670.327 366.949 666.277 344.472 676.477 325.711C683.913 312.036 702.608 306.13 715.167 313.49C722.737 317.926 726.936 329.895 724.86 341.121C721.304 360.349 710.634 371.444 694.646 372.538C691.098 372.781 686.661 372.462 684.787 371.829ZM699.992 364.695C704.01 360.677 707.137 351.532 708.756 339.059C711.177 320.422 705.922 310.373 697.301 317.153C692.25 321.127 688.465 331.769 687.133 345.746C685.314 364.838 691.19 373.497 699.992 364.695ZM766.329 370.986C764.089 369.224 763.694 368.139 763.694 363.734C763.694 360.886 764.592 353.844 765.689 348.087C769.891 326.035 769.493 321.059 763.527 321.059C759.93 321.059 754.548 324.107 752.426 327.345C750.998 329.525 749.339 338.277 746.238 359.983C745.401 365.845 744.19 370.762 743.472 371.218C741.795 372.282 731.566 372.264 729.878 371.194C728.812 370.518 729.277 365.652 732.323 345.575L736.084 320.791L733.389 318.473C731.907 317.198 730.694 315.718 730.694 315.184C730.694 313.973 735.306 312.487 743.522 311.05C751.013 309.739 752.694 310.588 752.694 315.681C752.694 319.678 753.571 319.869 757.368 316.7C767.774 308.014 779.647 308.341 784.087 317.435L785.98 321.311L782.673 341.037C780.855 351.886 779.673 361.559 780.046 362.533C780.564 363.883 781.424 364.163 783.671 363.714C788.067 362.834 788.178 364.514 783.954 367.999C777.656 373.194 770.646 374.382 766.329 370.986ZM803.118 371.04C796.692 367.859 794.194 362.546 794.194 352.059C794.194 337.632 799.564 325.416 809.43 317.398C815.752 312.26 821.009 310.557 829.878 310.775C837.554 310.962 836.615 312.446 838.818 296.664L840.06 287.77L837.377 285.462C832.592 281.346 832.919 281.126 847.389 278.73C851.896 277.983 856.017 277.64 856.547 277.968C857.477 278.542 854.366 302.181 848.208 341.343C846.756 350.574 845.709 359.349 845.881 360.843C846.174 363.383 846.475 363.541 850.537 363.28C856.077 362.925 855.744 364.427 849.32 368.775C840.67 374.631 832.918 374.084 830.518 367.448C829.844 365.584 828.88 364.059 828.376 364.059C827.871 364.059 825.943 365.39 824.091 367.016C821.002 369.727 812.548 373.06 808.763 373.058C807.9 373.058 805.36 372.149 803.118 371.04ZM826.379 358.88C828.224 357.092 830.13 354.038 830.616 352.094C832.206 345.73 835.038 321.397 834.387 319.699C833.472 317.314 829.288 315.693 826.109 316.491C824.606 316.868 821.945 318.613 820.195 320.368C811.982 328.606 807.874 355.239 813.889 361.254C816.738 364.102 822.028 363.097 826.379 358.88ZM249.694 369.572C248.319 368.779 246.434 368.114 245.503 368.094C244.573 368.075 243.535 367.609 243.195 367.06C241.754 364.728 246.253 352.365 254.66 335.559C264.496 315.893 266.585 309.079 264.803 302.461C262.552 294.104 253.895 284.498 251.747 287.974C251.297 288.702 248.558 297.681 245.659 307.928C242.761 318.175 239.953 327.121 239.419 327.809C238.076 329.541 225.804 329.507 225.137 327.769C224.726 326.698 232.942 297.932 245.315 257.128C246.913 251.86 247.65 247.585 247.28 245.735C246.367 241.17 248.023 240.059 255.735 240.059C259.473 240.059 263.243 240.332 264.113 240.666C266.227 241.477 266.113 244.647 263.852 247.904C262.839 249.364 260.718 255.24 259.138 260.961L256.267 271.363L258.731 272.947C263.337 275.909 272.893 285.544 275.206 289.559C276.474 291.759 278.024 296.096 278.651 299.197C280.357 307.643 278.222 315.151 269.229 332.332C261.254 347.566 258.324 354.86 256.283 364.559C254.919 371.042 253.765 371.92 249.694 369.572ZM583.141 249.972C582.771 249.374 582.97 248.384 583.582 247.772C587.18 244.174 582.921 237.755 576.084 236.472C573.645 236.015 572.512 235.178 572.098 233.531C571.303 230.364 574.295 224.48 578.068 221.789C580.926 219.75 582.311 219.563 594.194 219.602C601.344 219.625 608.903 219.987 610.991 220.406L614.787 221.167L614.491 227.355L614.194 233.544L607.938 237.051C601.431 240.699 599.399 243.793 601.695 246.559C602.368 247.37 602.657 248.714 602.338 249.546C601.879 250.741 599.871 251.059 592.785 251.059C587.403 251.059 583.544 250.624 583.141 249.972ZM558.653 248.509C557.59 247.228 557.656 246.669 559.03 245.294C560.582 243.742 560.806 243.742 562.359 245.294C563.733 246.669 563.799 247.228 562.736 248.509C562.029 249.361 561.11 250.059 560.694 250.059C560.279 250.059 559.36 249.361 558.653 248.509ZM547.805 236.692C546.941 235.652 547.032 235.024 548.182 234.069C550.3 232.311 553.301 234.624 551.584 236.692C550.96 237.444 550.11 238.059 549.694 238.059C549.279 238.059 548.429 237.444 547.805 236.692ZM253.337 233.289C252.586 232.075 263.541 196.842 265.534 194.059C266.518 192.684 269.007 190.722 271.065 189.7C274.762 187.863 275.002 187.872 291.001 190.483C299.907 191.936 308.595 193.344 310.307 193.612C314.535 194.272 317.112 197.26 316.288 200.544C315.478 203.77 309.586 210.35 304.167 214.078C298.143 218.223 281.608 226.408 270.982 230.506C262.391 233.819 254.44 235.073 253.337 233.289ZM286.699 217.467C302.125 209.452 307.947 204.152 302.944 202.678C301.982 202.394 295.898 201.852 289.425 201.473C275.142 200.638 274.906 200.779 271.687 212.084C269.847 218.546 269.66 220.312 270.682 221.544C272.738 224.021 275.38 223.348 286.699 217.467ZM618.093 231.654C617.796 230.882 617.698 228.744 617.874 226.904C618.298 222.479 621.781 221.736 624.273 225.539C625.644 227.63 625.758 228.623 624.858 230.6C623.605 233.349 619.017 234.064 618.093 231.654ZM558.051 222.546C557.732 221.714 558.036 220.353 558.726 219.521C559.842 218.177 560.187 218.195 561.834 219.686C563.243 220.961 563.419 221.686 562.569 222.711C561.078 224.506 558.771 224.422 558.051 222.546Z" fill="#177D7D"/>
<path d="M241.588 419.619C237.301 417.195 235.361 413.257 235.361 406.978C235.361 400.003 237.895 395.996 243.799 393.634C248.846 391.614 252.978 392.658 257.144 397.006C262.116 402.196 261.633 412.95 256.198 418.055C253.13 420.938 245.384 421.767 241.588 419.619ZM255.86 415.401C260.884 410.587 260.747 403.266 255.537 398.056C253.151 395.67 251.677 395.059 248.304 395.059C242.413 395.059 238.569 399.056 238.01 405.762C237.514 411.708 239.133 415 243.708 417.348C248.06 419.582 252.185 418.921 255.86 415.401ZM163.29 415.214C161.799 412.801 161.648 406.433 163.038 404.567C164.36 402.792 166.449 402.454 182.249 401.46L199.977 400.345L203.532 395.952C212.869 384.411 222.993 376.946 232.643 374.485C239.885 372.639 246.232 373.082 250.745 375.748C255.101 378.321 255.398 380.251 251.166 378.482C242.827 374.998 231.745 377.791 223.333 385.496C215.901 392.303 221.336 397.342 229.247 390.978C231.418 389.232 234.642 387.186 236.412 386.431C240.605 384.643 249.519 384.734 252.694 386.596C255.058 387.983 254.914 388.029 250.055 387.447C243.256 386.632 238.634 388.277 234.327 393.044C230.611 397.157 228.709 402.266 228.7 408.159L228.694 411.758L217.944 412.425C212.031 412.792 197.744 413.75 186.194 414.554C174.644 415.359 164.883 416.026 164.503 416.038C164.123 416.049 163.577 415.678 163.29 415.214ZM568.694 382.581C550.51 380.213 550.103 379.902 551.112 369.182C553.104 348.013 555.174 341.258 557.566 348.12C558.807 351.682 560.363 351.881 561.828 348.665C562.794 346.544 563.7 346.228 569.783 345.884C575.936 345.536 577 345.155 580.039 342.209C583.37 338.981 583.492 338.949 586.813 340.429C588.672 341.258 591.751 343.266 593.654 344.893C596.66 347.462 596.936 348.062 595.765 349.474C595.023 350.368 591.439 358.397 587.799 367.316C583.613 377.576 580.633 383.586 579.688 383.676C578.866 383.754 573.919 383.261 568.694 382.581ZM572.242 366.413C575.062 363.37 575.29 362.225 573.232 361.435C572.428 361.127 571.498 360.016 571.165 358.967C570.358 356.425 566.656 356.491 565.984 359.059C565.696 360.159 565.049 361.059 564.546 361.059C562.464 361.059 562.632 364.215 564.838 366.54C567.843 369.709 569.209 369.685 572.242 366.413ZM585.38 353.885C588.117 351.313 588.299 349.385 586.039 346.888C583.963 344.594 581.305 344.555 578.706 346.781C576.106 349.007 576.166 350.72 578.944 353.651C581.73 356.589 582.472 356.616 585.38 353.885ZM609.709 381.809C609.717 381.121 611.967 375.893 614.709 370.191C617.451 364.489 619.694 358.976 619.694 357.941C619.694 356.312 620.483 356.059 625.567 356.059C629.438 356.059 633.103 356.801 636.317 358.235C642.58 361.03 649 361.01 654.324 358.179C659.477 355.438 661.268 353.479 663.179 348.493L664.687 344.559L664.126 349.059C663.315 355.564 658.317 365.264 653.564 369.558C648.095 374.498 636.974 379.594 627.486 381.506C617.98 383.422 609.688 383.563 609.709 381.809ZM633.798 369.939C635.744 367.695 635.277 365.617 632.262 363.115C630.256 361.45 628.497 362.19 626.764 365.428C625.522 367.749 625.569 368.263 627.186 370.049C629.519 372.627 631.495 372.594 633.798 369.939ZM285.118 370.198C280.113 367.882 277.845 363.559 277.058 354.833C275.678 339.527 283.737 322.221 295.437 315.364C301.47 311.828 312.615 310.993 319.363 313.57C323.303 315.075 324.533 315.157 327.428 314.111C329.307 313.431 330.968 313.029 331.12 313.217C331.271 313.405 330.348 320.084 329.068 328.059C323.53 362.57 323.539 364.053 329.295 365.068L332.181 365.576L329.188 367.704C321.895 372.888 313.135 372.512 312.026 366.967C311.029 361.983 309.175 361.43 305.192 364.927C297.794 371.422 291.397 373.102 285.118 370.198ZM306.198 360.922C308.163 359.196 310.221 356.944 310.771 355.916C311.321 354.888 312.861 346.762 314.194 337.859C316.866 320.007 316.598 317.738 311.527 315.308C308.577 313.894 304.654 314.884 301.337 317.878C294.824 323.759 289.503 344.357 291.599 355.576C293.233 364.326 299.646 366.674 306.198 360.922ZM410.694 370.771C407.153 368.988 407.048 364.186 410.134 345.24C413.406 325.156 413.398 323.757 409.988 321.075C406.958 318.692 403.838 318.96 399.694 321.959C395.282 325.152 393.949 329.11 391.237 347.059C389.783 356.684 388.356 365.796 388.065 367.309C387.553 369.968 387.324 370.059 381.115 370.059C377.584 370.059 374.694 369.649 374.694 369.149C374.694 368.649 375.607 362.236 376.722 354.899C381.009 326.697 381.116 325.352 379.312 322.598C376.982 319.042 373.675 318.518 368.911 320.948C362.513 324.213 361.24 327.393 358.264 347.559C356.803 357.459 355.394 366.571 355.132 367.809C354.697 369.868 354.094 370.059 348.036 370.059H341.416L342.043 365.309C342.387 362.696 343.976 351.798 345.574 341.09C348.54 321.211 348.477 317.957 345.104 316.662C344.074 316.267 343.736 315.641 344.277 315.133C345.494 313.991 354.903 312.059 359.243 312.059C362.594 312.059 362.694 312.173 362.694 316C362.694 318.167 363.12 320.204 363.64 320.525C364.16 320.847 366.959 319.314 369.86 317.119C379.502 309.821 389.235 309.901 393.194 317.31C394.294 319.369 395.654 321.055 396.216 321.056C396.779 321.057 398.804 319.774 400.716 318.205C408.756 311.606 417.261 309.864 422.493 313.744C427.092 317.155 427.307 321.95 423.804 342.915C420.475 362.839 420.634 365.059 425.384 365.059C427.914 365.059 427.944 365.126 426.248 366.999C424.637 368.78 416.801 372.079 414.266 372.044C413.677 372.036 412.069 371.463 410.694 370.771ZM445.349 370.65C439.857 368.621 436.875 365.407 435.176 359.686C431.222 346.371 435.983 328.578 445.961 319.381C451.485 314.289 453.433 313.237 459.43 312.105C470.242 310.064 478.694 314.921 478.694 323.175C478.694 328.144 475.643 334.247 471.786 336.993C468.092 339.624 456.453 344.059 453.243 344.059C449.123 344.059 447.382 346.772 448.024 352.194C448.334 354.81 449.253 358.238 450.066 359.81C452.988 365.462 460.431 366.614 467.588 362.523C472.943 359.462 474.013 360.073 470.223 364.029C464.257 370.256 452.647 373.346 445.349 370.65ZM458.952 338.111C464.586 334.538 467.694 328.999 467.694 322.533C467.694 316.453 466.324 314.059 462.846 314.059C459.349 314.059 455.498 317.977 452.811 324.269C450.633 329.369 448.799 337.874 449.454 339.839C450.145 341.912 454.089 341.195 458.952 338.111ZM491.194 371.189C487.226 370.154 483.48 368.104 481.976 366.146C480.063 363.654 480.444 358.309 482.694 356.059C486.81 351.943 490.694 354.473 490.694 361.271C490.694 366.855 492.995 369.059 498.828 369.059C505.334 369.059 509.694 365.251 509.694 359.57C509.694 354.385 508.452 352.639 501.42 347.942C489.321 339.86 485.669 334.337 487.162 326.378C487.886 322.518 492.67 316.64 496.843 314.482C509.148 308.119 526.3 312.557 525.494 321.895C525.098 326.472 520.979 329.817 517.819 328.126C516.165 327.241 515.694 326.048 515.694 322.746C515.694 316.674 513.547 314.059 508.561 314.059C503.146 314.059 498.694 318.304 498.694 323.466C498.694 327.916 501.821 331.53 510.68 337.32C518.777 342.612 521.7 346.768 521.678 352.957C521.653 359.85 518.356 364.905 511.675 368.294C505.807 371.27 496.533 372.581 491.194 371.189ZM685.837 370.596C680.442 368.876 676.963 365.762 674.624 360.559C670.541 351.477 671.363 338.619 676.703 328.042C682.914 315.738 695.574 309.449 708.688 312.154C718.747 314.228 723.705 322.005 723.683 335.675C723.653 355.202 712.253 369.507 695.194 371.423C692.142 371.766 688.497 371.444 685.837 370.596ZM700.447 365.809C704.747 361.365 707.332 355.075 709.155 344.622C711.709 329.975 710.848 320.213 706.629 315.994C704.123 313.487 699.641 313.526 696.39 316.084C690.048 321.072 685.186 338.901 685.875 354.643C686.232 362.799 686.588 364.317 688.663 366.526C692.105 370.19 696.465 369.924 700.447 365.809ZM767.962 370.847C764.373 369.114 764.199 364.428 767.086 347.249C769.753 331.379 770.267 324.463 768.929 322.459C765.847 317.842 759.239 318.852 753.45 324.825C749.876 328.512 749.798 328.773 747.251 345.559C745.833 354.909 744.413 364.246 744.096 366.309L743.518 370.059H736.587C729.911 370.059 729.675 369.976 730.178 367.809C731.234 363.259 736.694 324.972 736.694 322.119C736.694 320.213 735.914 318.626 734.485 317.625C733.106 316.659 732.636 315.738 733.235 315.175C734.499 313.986 743.85 312.059 748.357 312.059H751.921L751.247 316.559C750.644 320.577 750.779 321.059 752.511 321.059C753.577 321.059 755.045 320.341 755.773 319.464C756.501 318.587 759.368 316.567 762.145 314.974C766.067 312.724 768.453 312.076 772.833 312.068C784.223 312.049 785.698 317.382 781.238 342.44C779.781 350.625 778.725 358.948 778.892 360.936C779.151 364.032 779.604 364.622 782.055 365.054C784.912 365.558 784.912 365.561 782.871 367.404C780.714 369.351 774.228 371.988 771.694 371.947C770.869 371.934 769.19 371.439 767.962 370.847ZM806.636 371.086C796.766 368.186 792.955 358.053 796.106 343.089C798.173 333.268 801.946 326.032 807.906 320.458C815.125 313.706 820.372 311.711 829.394 312.29C833.445 312.55 837.006 312.363 837.309 311.874C838.153 310.507 840.686 294.023 840.69 289.866C840.693 287.169 840.087 285.745 838.444 284.587C836.632 283.311 836.466 282.833 837.593 282.13C839.47 280.959 854.611 278.642 855.378 279.409C856.066 280.098 854.336 293.15 848.594 330.559C846.4 344.859 844.737 358.359 844.899 360.559C845.174 364.287 845.433 364.596 848.694 365.098L852.194 365.637L848.694 367.863C843.372 371.249 838.699 372.406 835.419 371.151C832.594 370.07 832.32 369.653 831.259 364.809C830.491 361.306 829.376 361.351 824.676 365.073C818.505 369.961 811.15 372.412 806.636 371.086ZM824.704 361.809C830.704 357.725 831.509 355.689 834.086 338.059C835.877 325.807 836.223 321.045 835.433 319.559C831.198 311.606 820.848 314.468 815.448 325.086C809.379 337.02 807.934 356.492 812.738 361.606C815.679 364.736 820.289 364.814 824.704 361.809ZM248.944 367.874C246.607 366.834 244.694 365.292 244.694 364.447C244.694 360.694 250.316 346.812 257.709 332.31C267.03 314.026 268.423 307.873 265.168 299.351C263.114 293.972 255.31 285.059 252.655 285.059C250.888 285.059 248.882 290.322 245.033 305.059C244.243 308.084 242.44 314.271 241.027 318.809L238.459 327.059H232.576C229.341 327.059 226.694 326.635 226.694 326.117C226.694 325.599 228.233 320.086 230.113 313.867C231.994 307.648 235.104 297.159 237.024 290.559C238.945 283.959 242.548 271.584 245.032 263.059C247.753 253.723 249.339 246.5 249.021 244.895C248.494 242.233 248.499 242.231 255.616 241.895C259.534 241.71 263.179 241.709 263.717 241.892C265.236 242.41 264.875 244.557 262.83 247.174C260.824 249.739 255.694 266.387 255.694 270.331C255.694 272.106 257.106 273.698 261.147 276.481C266.884 280.433 272.125 286.204 275.293 292.059C276.752 294.754 277.188 297.631 277.19 304.58L277.194 313.601L267.427 333.08C260.468 346.956 257.064 355.004 255.59 361.059C254.453 365.734 253.449 369.605 253.358 369.662C253.268 369.719 251.282 368.914 248.944 367.874ZM254.694 232.334C254.694 231.81 255.785 227.821 257.118 223.47C258.452 219.119 260.949 210.968 262.667 205.357C267.477 189.651 270.432 188.116 289.194 191.572C293.594 192.382 300.532 193.497 304.612 194.049C316.501 195.657 318.054 198.749 310.836 206.437C304.362 213.331 289.696 221.733 271.65 228.885C263.509 232.111 254.694 233.904 254.694 232.334ZM286.53 219.05C291.845 216.295 298.359 212.446 301.005 210.496C304.972 207.573 305.762 206.478 305.505 204.255C305.209 201.688 304.858 201.527 298.194 200.89C276.312 198.801 278.132 198.771 275.343 201.259C273.64 202.779 272.024 206.131 270.579 211.14C266.368 225.745 270.07 227.581 286.53 219.05Z" fill="#177D7D"/>
<path d="M565.694 381.452C553.579 379.722 551.694 378.895 551.694 375.303C551.694 372.674 551.921 372.527 555.444 372.858C557.507 373.052 560.544 372.682 562.194 372.036C566.81 370.229 584.694 370.298 584.694 372.123C584.694 372.708 583.739 375.408 582.571 378.123C580.14 383.774 580.903 383.623 565.694 381.452ZM610.694 381.874C610.694 381.223 611.634 378.749 612.782 376.377C614.678 372.46 615.114 372.133 617.532 372.811C618.996 373.222 625.086 373.47 631.065 373.361C640.867 373.184 642.315 372.914 645.794 370.611C647.915 369.207 650.406 368.058 651.328 368.058C654.167 368.058 649.974 371.887 643.694 375.028C636.117 378.819 629.567 380.78 620.372 382.011C610.655 383.312 610.694 383.313 610.694 381.874ZM284.096 369.161C274.19 363.121 276.021 336.52 287.262 323.161C291.567 318.044 297.873 314.306 304.515 312.934C310.095 311.782 311.375 311.857 317.625 313.697C323.602 315.457 324.974 315.56 327.628 314.444L330.703 313.151L330.099 317.355C329.766 319.667 328.189 329.749 326.594 339.759C324.999 349.769 323.694 359.037 323.694 360.354C323.694 362.749 325.873 365.345 328.694 366.311C330.729 367.008 322.053 371.008 318.444 371.036C315.023 371.064 311.694 367.869 311.694 364.558C311.694 360.943 308.446 361.308 303.331 365.5C296.119 371.409 289.765 372.619 284.096 369.161ZM307.034 361.18C311.532 357.027 312.552 354.086 314.687 339.108C317.272 320.977 317.243 319.516 314.24 316.513C307.71 309.983 298.688 316.262 293.519 330.933C290.591 339.243 289.955 355.418 292.374 360.029C295.306 365.619 301.683 366.119 307.034 361.18ZM409.202 368.71C407.588 366.247 407.659 365.16 410.68 345.99C413.333 329.159 413.656 325.38 412.648 322.945C411.292 319.672 408.256 318.516 403.408 319.426L400.194 320.03L403.391 317.106C408.258 312.654 416.078 310.909 421.037 313.169C426.414 315.618 426.864 321.774 423.186 342.558C419.807 361.649 419.863 363.805 423.78 365.452L426.865 366.749L423.07 368.55C420.983 369.541 417.39 370.564 415.085 370.824C411.42 371.237 410.684 370.973 409.202 368.71ZM444.11 369.7C437.139 366.523 434.177 359.02 434.974 346.558C435.726 334.796 438.679 327.889 446.107 320.515C452.596 314.073 457.007 312.058 464.626 312.058C469.169 312.058 471.928 313.155 475.444 316.358C478.441 319.087 478.57 326.905 475.695 331.557C472.111 337.356 467.057 339.832 448.944 344.662C447.083 345.159 447.37 355.31 449.364 359.491C451.127 363.188 455.752 366.058 459.947 366.058C461.294 366.058 464.601 364.89 467.295 363.463L472.194 360.867L469.694 363.56C463.964 369.733 451.005 372.843 444.11 369.7ZM457.723 339.544C464.11 336.307 467.653 331.075 468.304 323.917C469.669 308.897 457.609 309.925 451.864 325.319C449.371 332 448.197 338.321 449.041 340.52C449.871 342.683 452.002 342.443 457.723 339.544ZM489.636 370.175C484.94 368.631 482.978 367.158 481.786 364.28C480.215 360.486 481.784 356.325 485.102 355.492C488.689 354.592 489.378 355.409 489.936 361.224C490.719 369.371 495.895 372.091 504.096 368.664C510.25 366.093 512.348 360.156 509.232 354.131C508.427 352.575 505.165 349.606 501.982 347.533C490.879 340.3 487.69 336.13 487.701 328.858C487.712 321.783 492.832 316.025 501.405 313.445C514.933 309.373 527.649 315.153 524.574 323.975C523.523 326.989 519.953 328.954 517.868 327.666C517.351 327.346 516.619 324.607 516.24 321.578C515.741 317.583 514.962 315.659 513.401 314.565C507.312 310.3 497.694 316.342 497.694 324.432C497.694 327.864 501.75 332.34 508.666 336.541C519.966 343.405 523.475 350.108 520.225 358.619C518.603 362.864 515.234 366.236 509.817 369.036C506.894 370.547 493.131 371.324 489.636 370.175ZM685.608 370.164C681.121 368.697 678.151 366.212 675.634 361.817C673.48 358.056 673.201 356.389 673.252 347.558C673.327 334.428 675.791 327.676 683.139 320.464C690.933 312.816 700.855 310.228 710.876 313.231C720.778 316.198 726.068 330.679 722.321 344.558C719.208 356.088 714.649 362.587 706.151 367.614C701.704 370.245 690.217 371.671 685.608 370.164ZM701.186 365.729C706.14 360.558 709.05 352.215 710.734 338.35C711.564 331.52 711.561 327.731 710.72 323.682C709.5 317.805 705.831 313.058 702.508 313.058C694.4 313.058 687.665 324.978 685.557 343.058C684.185 354.819 685.175 363.288 688.365 367.079C692.142 371.568 695.978 371.164 701.186 365.729ZM767.355 369.835C764.999 368.067 765.346 360.144 768.606 341.268C771.065 327.033 770.843 321.744 767.717 320.07C763.109 317.604 757.02 319.646 752.027 325.332C749.394 328.331 748.863 330.095 747.275 341.133C746.292 347.967 744.953 357.158 744.301 361.558L743.114 369.558L736.904 369.856C733.489 370.02 730.694 369.948 730.694 369.696C730.694 369.444 731.6 363.235 732.707 355.898C733.813 348.561 735.464 337.425 736.375 331.152L738.032 319.745L735.396 317.478L732.759 315.21L737.704 314.15C740.423 313.566 744.505 312.792 746.774 312.43L750.899 311.77L750.547 316.645C750.097 322.867 752.189 323.587 757.407 319.006C767.386 310.244 779.302 309.869 782.756 318.207C783.947 321.081 783.725 323.686 780.801 341.164C778.987 352.007 777.781 361.755 778.121 362.826C778.46 363.896 779.726 365.213 780.932 365.751C783.124 366.729 783.124 366.731 780.396 368.519C776.75 370.907 769.728 371.616 767.355 369.835ZM803.694 369.307C792.308 363.619 793.291 338.198 805.462 323.558C812.274 315.365 823.696 310.798 832.054 312.924C837.565 314.326 838.448 313.299 839.713 304.022C842.17 285.997 842.18 286.585 839.41 284.407L836.881 282.417L844.538 281.176C848.749 280.494 853.041 279.689 854.076 279.388C855.767 278.896 855.885 279.229 855.239 282.672C854.844 284.78 853.235 295.292 851.663 306.032C850.092 316.771 847.604 333.305 846.134 342.774C844.663 352.242 843.737 361.092 844.075 362.44C844.443 363.905 845.797 365.279 847.442 365.857L850.194 366.825L845.694 368.919C843.219 370.072 839.957 371.024 838.444 371.036C834.986 371.064 831.694 367.859 831.694 364.465C831.694 362.695 831.046 361.702 829.654 361.338C827.867 360.87 827.789 360.604 829.026 359.181C829.802 358.289 830.916 356.629 831.502 355.494C833.087 352.418 837.086 322.755 836.324 319.72C835.941 318.192 834.367 316.423 832.558 315.488C824.214 311.173 815.29 319.253 811.271 334.763C809.442 341.823 809.18 356.836 810.824 360.444C812.465 364.044 816.916 365.633 821.458 364.239C823.457 363.625 825.236 363.267 825.412 363.442C826.075 364.105 817.877 369.146 814.614 370.081C809.817 371.457 807.699 371.307 803.694 369.307ZM342.075 367.68C343.133 363.461 348.694 325.07 348.694 321.979C348.694 320.373 347.834 318.198 346.783 317.147C344.901 315.265 344.98 315.211 351.906 313.647C361.823 311.407 361.694 311.37 361.694 316.451C361.694 319.496 362.17 321.027 363.244 321.439C364.575 321.95 364.453 322.634 362.382 326.296C360.556 329.525 359.419 334.439 357.696 346.558C356.445 355.358 355.127 364.133 354.767 366.058L354.112 369.558L347.782 369.859C341.488 370.158 341.456 370.146 342.075 367.68ZM375.102 368.308C376.46 363.921 381.435 327.15 380.987 324.806C380.143 320.391 377.408 318.718 372.027 319.324L367.311 319.856L369.753 317.891C373.731 314.689 379.946 312.104 383.722 312.08C388.16 312.053 391.503 314.356 393.313 318.689C394.088 320.542 395.421 322.058 396.276 322.058C397.586 322.058 397.524 322.491 395.88 324.808C393.71 327.868 392.815 331.936 389.668 353.058C388.48 361.033 387.339 368.121 387.132 368.808C386.886 369.631 384.671 370.058 380.658 370.058C375.31 370.058 374.626 369.843 375.102 368.308ZM271.162 314.599C270.78 311.037 270.661 306.471 270.897 304.453C271.132 302.435 270.575 297.23 269.658 292.886L267.991 284.989L270.479 287.273C274.253 290.74 276.797 297.34 276.89 303.904C276.969 309.475 274.453 319.471 272.699 320.556C272.235 320.842 271.543 318.162 271.162 314.599ZM253.71 269.475C253.718 267.871 254.155 265.883 254.681 265.058C255.333 264.037 255.442 264.834 255.025 267.558C254.267 272.501 253.689 273.343 253.71 269.475ZM260.694 244.142C260.694 242.913 261.34 242.058 262.268 242.058C263.199 242.058 263.709 242.739 263.518 243.725C263.031 246.234 260.694 246.579 260.694 244.142ZM295.694 215.594C295.694 215.338 296.707 214.589 297.944 213.93C299.985 212.843 300.066 212.886 298.822 214.395C297.544 215.944 295.694 216.653 295.694 215.594ZM305.831 207.922C307.131 206.072 308.532 204.408 308.944 204.225C310.392 203.582 309.672 202.284 307.444 201.521C306.207 201.097 300.019 200.213 293.694 199.558C285.785 198.738 283.808 198.318 287.363 198.212C293.552 198.028 295.694 197.318 295.694 195.451C295.694 193.433 297.377 193.74 299.847 196.21C301.893 198.257 302.063 198.275 303.307 196.573C304.324 195.183 305.445 194.918 308.336 195.388C310.382 195.72 312.762 196.709 313.625 197.586C315.052 199.036 315.018 199.311 313.253 200.619C312.186 201.411 311.67 202.058 312.107 202.058C313.092 202.058 306.929 209.238 304.927 210.422C304.124 210.897 304.531 209.772 305.831 207.922ZM285.507 192.375C286.229 192.086 287.091 192.122 287.424 192.454C287.756 192.786 287.165 193.023 286.111 192.979C284.946 192.931 284.709 192.694 285.507 192.375ZM279.963 191.365C280.936 191.112 282.286 191.128 282.963 191.402C283.64 191.676 282.844 191.884 281.194 191.863C279.544 191.843 278.99 191.619 279.963 191.365Z" fill="#177D7D"/>
</svg>
