<svg width="722" height="340" viewBox="0 0 722 340" fill="none" xmlns="http://www.w3.org/2000/svg">
<path d="M138.8 229.32C135.347 229.32 131.94 230.813 128.58 233.8C125.313 236.693 122.373 240.613 119.76 245.56C117.147 250.413 115.047 255.92 113.46 262.08C111.967 268.147 111.22 274.353 111.22 280.7C111.22 285.74 112.2 289.38 114.16 291.62C116.213 293.767 118.873 294.84 122.14 294.84C125.033 294.84 127.927 294 130.82 292.32C133.807 290.64 136.793 287.56 139.78 283.08L142.58 284.2C140.713 287.28 138.287 290.267 135.3 293.16C132.407 296.053 128.953 298.433 124.94 300.3C121.02 302.073 116.493 302.96 111.36 302.96C104.547 302.96 98.9 301.187 94.42 297.64C89.94 294.093 87.7 288.587 87.7 281.12C87.7 276.36 88.4467 271.46 89.94 266.42C91.4333 261.38 93.58 256.48 96.38 251.72C99.2733 246.96 102.727 242.713 106.74 238.98C110.753 235.153 115.327 232.12 120.46 229.88C125.593 227.64 131.193 226.52 137.26 226.52C142.767 226.52 147.06 227.92 150.14 230.72C153.313 233.427 154.9 236.693 154.9 240.52C154.9 243.32 154.2 246.027 152.8 248.64C151.493 251.16 149.673 253.26 147.34 254.94C145.1 256.62 142.58 257.46 139.78 257.46C137.447 257.46 135.393 256.713 133.62 255.22C131.847 253.633 130.96 251.393 130.96 248.5C130.96 244.3 132.313 240.66 135.02 237.58C137.82 234.5 140.993 232.493 144.54 231.56C143.793 230.813 142.953 230.253 142.02 229.88C141.18 229.507 140.107 229.32 138.8 229.32ZM184.949 289.1C184.202 291.433 184.109 293.113 184.669 294.14C185.322 295.073 186.162 295.54 187.189 295.54C187.935 295.54 189.009 294.98 190.409 293.86C191.902 292.74 193.442 289.987 195.029 285.6L197.689 278.32H200.349L196.849 288.54C195.449 292.46 193.675 295.447 191.529 297.5C189.382 299.553 187.095 300.953 184.669 301.7C182.242 302.54 179.862 302.96 177.529 302.96C174.542 302.96 172.022 302.4 169.969 301.28C167.915 300.253 166.375 298.76 165.349 296.8C164.322 294.84 163.809 292.46 163.809 289.66C163.809 286.767 164.369 283.453 165.489 279.72L187.189 207.62C188.122 204.447 188.029 202.113 186.909 200.62C185.789 199.127 182.942 198.38 178.369 198.38L179.349 195.44C186.535 195.347 192.882 194.833 198.389 193.9C203.895 192.873 209.215 191.473 214.349 189.7L184.949 289.1ZM236.415 271.18C239.868 269.687 243.182 268.007 246.355 266.14C249.528 264.18 252.328 262.08 254.755 259.84C258.395 256.387 261.382 252.42 263.715 247.94C266.048 243.367 267.215 238.467 267.215 233.24C267.215 231.653 267.028 230.58 266.655 230.02C266.282 229.46 265.722 229.18 264.975 229.18C263.015 229.18 260.868 230.253 258.535 232.4C256.202 234.453 253.915 237.253 251.675 240.8C249.435 244.253 247.382 248.22 245.515 252.7C243.742 257.087 242.295 261.66 241.175 266.42C240.055 271.087 239.495 275.66 239.495 280.14C239.495 285.46 240.522 289.053 242.575 290.92C244.722 292.787 247.475 293.72 250.835 293.72C252.982 293.72 255.922 292.973 259.655 291.48C263.388 289.893 267.075 287.093 270.715 283.08L272.955 284.2C270.995 287.28 268.382 290.267 265.115 293.16C261.848 296.053 258.022 298.433 253.635 300.3C249.248 302.073 244.395 302.96 239.075 302.96C234.782 302.96 230.862 302.213 227.315 300.72C223.862 299.227 221.108 297.033 219.055 294.14C217.002 291.153 215.975 287.513 215.975 283.22C215.975 277.993 216.815 272.72 218.495 267.4C220.175 262.08 222.555 256.993 225.635 252.14C228.715 247.193 232.402 242.807 236.695 238.98C241.082 235.153 245.888 232.12 251.115 229.88C256.342 227.64 261.988 226.52 268.055 226.52C272.535 226.52 276.315 227.5 279.395 229.46C282.475 231.327 284.015 234.267 284.015 238.28C284.015 241.827 283.035 245.187 281.075 248.36C279.115 251.44 276.455 254.287 273.095 256.9C269.828 259.513 266.095 261.847 261.895 263.9C257.788 265.953 253.542 267.727 249.155 269.22C244.768 270.713 240.475 271.88 236.275 272.72L236.415 271.18ZM320.051 294.42C321.171 294.42 322.431 293.86 323.831 292.74C325.231 291.527 326.677 289.707 328.171 287.28C329.664 284.853 331.204 281.727 332.791 277.9C334.377 274.073 335.917 269.453 337.411 264.04L333.911 279.16C332.044 285.133 329.851 289.893 327.331 293.44C324.811 296.893 322.011 299.367 318.931 300.86C315.944 302.26 312.771 302.96 309.411 302.96C303.811 302.96 299.657 301.42 296.951 298.34C294.244 295.26 292.891 291.013 292.891 285.6C292.891 280.373 293.777 275.007 295.551 269.5C297.324 263.9 299.704 258.58 302.691 253.54C305.771 248.407 309.177 243.833 312.911 239.82C316.737 235.713 320.704 232.493 324.811 230.16C329.011 227.733 333.117 226.52 337.131 226.52C340.211 226.52 342.544 227.593 344.131 229.74C345.811 231.887 346.371 235.433 345.811 240.38L344.271 241.22C344.737 238.327 344.644 236.18 343.991 234.78C343.431 233.287 342.404 232.54 340.911 232.54C339.137 232.54 337.177 233.613 335.031 235.76C332.884 237.813 330.691 240.66 328.451 244.3C326.304 247.847 324.297 251.953 322.431 256.62C320.657 261.193 319.211 266.047 318.091 271.18C316.971 276.313 316.411 281.353 316.411 286.3C316.411 289.193 316.691 291.293 317.251 292.6C317.811 293.813 318.744 294.42 320.051 294.42ZM347.771 228.62C352.344 228.527 356.404 228.34 359.951 228.06C363.591 227.687 367.137 227.173 370.591 226.52L351.971 289.1C351.597 290.407 351.364 291.573 351.271 292.6C351.271 293.533 351.457 294.28 351.831 294.84C352.297 295.307 352.951 295.54 353.791 295.54C354.817 295.54 356.031 294.933 357.431 293.72C358.831 292.507 360.324 289.8 361.911 285.6L364.571 278.32H367.231L363.731 288.54C362.424 292.367 360.697 295.353 358.551 297.5C356.404 299.553 354.117 300.953 351.691 301.7C349.264 302.54 346.837 302.96 344.411 302.96C339.184 302.96 335.451 301.42 333.211 298.34C331.811 296.287 331.111 293.72 331.111 290.64C331.111 287.56 331.717 283.92 332.931 279.72L347.771 228.62ZM406.615 301H384.355L401.435 240.38C401.901 238.98 402.181 237.813 402.275 236.88C402.368 235.947 402.228 235.247 401.855 234.78C401.575 234.22 400.968 233.94 400.035 233.94C398.448 233.94 397.001 234.64 395.695 236.04C394.481 237.44 393.128 240.053 391.635 243.88L388.695 251.72H386.035L389.955 240.94C391.728 235.807 394.155 232.12 397.235 229.88C400.315 227.64 404.095 226.52 408.575 226.52C412.028 226.52 414.735 227.127 416.695 228.34C418.748 229.46 420.148 231 420.895 232.96C421.641 234.92 421.968 237.067 421.875 239.4C421.781 241.64 421.455 243.88 420.895 246.12L406.615 301ZM410.535 279.16C414.268 268.333 417.721 259.513 420.895 252.7C424.068 245.887 427.148 240.567 430.135 236.74C433.215 232.82 436.341 230.16 439.515 228.76C442.781 227.267 446.235 226.52 449.875 226.52C454.448 226.52 457.761 227.5 459.815 229.46C461.868 231.327 462.941 233.893 463.035 237.16C463.128 240.333 462.521 243.833 461.215 247.66L447.355 289.1C446.515 291.713 446.375 293.44 446.935 294.28C447.495 295.12 448.241 295.54 449.175 295.54C450.201 295.54 451.415 294.98 452.815 293.86C454.215 292.647 455.708 289.893 457.295 285.6L459.955 278.32H462.615L459.115 288.54C457.808 292.46 456.081 295.447 453.935 297.5C451.881 299.553 449.595 300.953 447.075 301.7C444.648 302.54 442.221 302.96 439.795 302.96C436.995 302.96 434.568 302.54 432.515 301.7C430.555 300.86 429.015 299.647 427.895 298.06C426.588 296.193 425.888 293.813 425.795 290.92C425.795 288.027 426.541 284.293 428.035 279.72L440.355 242.76C440.915 241.173 441.288 239.773 441.475 238.56C441.661 237.253 441.615 236.227 441.335 235.48C441.055 234.733 440.448 234.36 439.515 234.36C437.835 234.36 435.921 235.573 433.775 238C431.628 240.427 429.388 243.74 427.055 247.94C424.721 252.14 422.341 256.993 419.915 262.5C417.488 268.007 415.155 273.887 412.915 280.14C410.768 286.3 408.901 292.507 407.315 298.76L410.535 279.16ZM502.7 205.8C502.794 201.32 504.334 197.913 507.32 195.58C510.4 193.247 514.087 192.08 518.38 192.08C522.207 192.08 525.054 192.92 526.92 194.6C528.88 196.187 529.814 198.52 529.72 201.6C529.627 205.52 528.04 208.74 524.96 211.26C521.974 213.78 518.287 215.04 513.9 215.04C510.26 215.04 507.46 214.247 505.5 212.66C503.54 210.98 502.607 208.693 502.7 205.8ZM497.1 240.38C498.594 236.087 498.127 233.94 495.7 233.94C494.207 233.94 492.807 234.687 491.5 236.18C490.194 237.673 488.794 240.24 487.3 243.88L484.36 251.72H481.7L485.62 240.94C486.927 237.3 488.56 234.453 490.52 232.4C492.574 230.253 494.907 228.76 497.52 227.92C500.134 226.987 502.887 226.52 505.78 226.52C509.234 226.52 511.94 227.127 513.9 228.34C515.86 229.553 517.26 231.14 518.1 233.1C518.94 234.967 519.314 237.067 519.22 239.4C519.127 241.64 518.707 243.88 517.96 246.12L503.26 289.1C502.514 291.527 502.327 293.207 502.7 294.14C503.167 295.073 503.96 295.54 505.08 295.54C506.107 295.54 507.32 294.933 508.72 293.72C510.12 292.507 511.614 289.8 513.2 285.6L515.86 278.32H518.52L515.02 288.54C513.62 292.367 511.894 295.353 509.84 297.5C507.787 299.553 505.5 300.953 502.98 301.7C500.46 302.54 497.987 302.96 495.56 302.96C491.454 302.96 488.234 302.073 485.9 300.3C483.567 298.527 482.214 295.913 481.84 292.46C481.467 289.007 482.12 284.76 483.8 279.72L497.1 240.38ZM557.875 301H535.615L552.695 240.38C553.161 238.98 553.441 237.813 553.535 236.88C553.628 235.947 553.488 235.247 553.115 234.78C552.835 234.22 552.228 233.94 551.295 233.94C549.708 233.94 548.261 234.64 546.955 236.04C545.741 237.44 544.388 240.053 542.895 243.88L539.955 251.72H537.295L541.215 240.94C542.988 235.807 545.415 232.12 548.495 229.88C551.575 227.64 555.355 226.52 559.835 226.52C563.288 226.52 565.995 227.127 567.955 228.34C570.008 229.46 571.408 231 572.155 232.96C572.901 234.92 573.228 237.067 573.135 239.4C573.041 241.64 572.715 243.88 572.155 246.12L557.875 301ZM561.795 279.16C565.528 268.333 568.981 259.513 572.155 252.7C575.328 245.887 578.408 240.567 581.395 236.74C584.475 232.82 587.601 230.16 590.775 228.76C594.041 227.267 597.495 226.52 601.135 226.52C605.708 226.52 609.021 227.5 611.075 229.46C613.128 231.327 614.201 233.893 614.295 237.16C614.388 240.333 613.781 243.833 612.475 247.66L598.615 289.1C597.775 291.713 597.635 293.44 598.195 294.28C598.755 295.12 599.501 295.54 600.435 295.54C601.461 295.54 602.675 294.98 604.075 293.86C605.475 292.647 606.968 289.893 608.555 285.6L611.215 278.32H613.875L610.375 288.54C609.068 292.46 607.341 295.447 605.195 297.5C603.141 299.553 600.855 300.953 598.335 301.7C595.908 302.54 593.481 302.96 591.055 302.96C588.255 302.96 585.828 302.54 583.775 301.7C581.815 300.86 580.275 299.647 579.155 298.06C577.848 296.193 577.148 293.813 577.055 290.92C577.055 288.027 577.801 284.293 579.295 279.72L591.615 242.76C592.175 241.173 592.548 239.773 592.735 238.56C592.921 237.253 592.875 236.227 592.595 235.48C592.315 234.733 591.708 234.36 590.775 234.36C589.095 234.36 587.181 235.573 585.035 238C582.888 240.427 580.648 243.74 578.315 247.94C575.981 252.14 573.601 256.993 571.175 262.5C568.748 268.007 566.415 273.887 564.175 280.14C562.028 286.3 560.161 292.507 558.575 298.76L561.795 279.16ZM661.381 269.22L668.801 268.38C664.974 269.873 661.754 271.273 659.141 272.58C656.527 273.793 654.521 274.913 653.121 275.94C651.721 276.873 651.021 277.853 651.021 278.88C651.021 279.627 651.487 280.327 652.421 280.98C653.354 281.54 654.754 282.1 656.621 282.66L668.801 287C671.414 287.933 673.934 289.053 676.361 290.36C678.787 291.667 680.794 293.347 682.381 295.4C683.967 297.453 684.761 300.02 684.761 303.1C684.761 306.927 683.501 310.333 680.981 313.32C678.554 316.4 675.241 318.967 671.041 321.02C666.841 323.167 662.174 324.753 657.041 325.78C652.001 326.9 646.821 327.46 641.501 327.46C636.834 327.46 632.494 326.993 628.481 326.06C624.467 325.22 621.247 324.007 618.821 322.42C616.301 320.833 615.041 318.967 615.041 316.82C615.041 314.953 615.974 313.32 617.841 311.92C619.614 310.52 621.947 309.353 624.841 308.42C627.641 307.487 630.581 306.787 633.661 306.32C636.834 305.853 639.821 305.573 642.621 305.48L642.901 307.58C639.821 309.26 637.627 310.987 636.321 312.76C635.107 314.533 634.501 316.26 634.501 317.94C634.501 320.273 635.387 322.047 637.161 323.26C638.934 324.473 641.407 325.08 644.581 325.08C647.007 325.08 649.527 324.753 652.141 324.1C654.847 323.447 657.321 322.467 659.561 321.16C661.894 319.947 663.761 318.5 665.161 316.82C666.654 315.14 667.401 313.32 667.401 311.36C667.401 309.493 666.701 308.187 665.301 307.44C663.901 306.787 662.034 306.133 659.701 305.48L640.241 299.6C637.907 298.853 635.854 297.733 634.081 296.24C632.401 294.653 631.561 292.647 631.561 290.22C631.561 287.42 632.774 284.947 635.201 282.8C637.721 280.56 641.221 278.367 645.701 276.22C650.274 273.98 655.501 271.647 661.381 269.22ZM666.981 229.18C665.674 229.18 664.414 229.787 663.201 231C661.987 232.213 660.867 233.893 659.841 236.04C658.907 238.093 658.114 240.427 657.461 243.04C656.807 245.653 656.294 248.453 655.921 251.44C655.547 254.333 655.361 257.227 655.361 260.12C655.361 263.2 655.641 265.347 656.201 266.56C656.854 267.68 657.787 268.24 659.001 268.24C660.867 268.24 662.501 267.353 663.901 265.58C665.394 263.713 666.654 261.287 667.681 258.3C668.707 255.313 669.454 252 669.921 248.36C670.387 244.72 670.621 241.08 670.621 237.44C670.621 235.293 670.387 233.38 669.921 231.7C669.547 230.02 668.567 229.18 666.981 229.18ZM670.061 226.66C676.407 226.66 681.634 227.92 685.741 230.44C689.941 232.867 692.041 236.88 692.041 242.48C692.041 246.96 690.594 251.393 687.701 255.78C684.807 260.167 680.654 263.76 675.241 266.56C669.921 269.36 663.621 270.76 656.341 270.76C650.087 270.76 644.814 269.5 640.521 266.98C636.321 264.46 634.221 260.447 634.221 254.94C634.221 251.767 635.014 248.547 636.601 245.28C638.187 241.92 640.474 238.84 643.461 236.04C646.541 233.147 650.274 230.86 654.661 229.18C659.141 227.5 664.274 226.66 670.061 226.66ZM681.401 234.08L678.601 233.1C680.001 229.273 682.287 226.193 685.461 223.86C688.634 221.433 692.041 220.22 695.681 220.22C698.761 220.22 701.094 221.06 702.681 222.74C704.267 224.42 705.061 226.613 705.061 229.32C705.061 232.027 704.361 234.08 702.961 235.48C701.561 236.88 700.021 237.58 698.341 237.58C696.847 237.58 695.401 237.02 694.001 235.9C692.694 234.687 691.854 232.913 691.481 230.58C691.107 228.247 691.667 225.213 693.161 221.48L694.001 222.46C690.641 223.673 688.027 225.167 686.161 226.94C684.294 228.713 682.707 231.093 681.401 234.08Z" fill="#0085C9"/>
<path d="M84.705 234.883C71.8733 231.17 70.7282 211.323 83.0093 205.495C88.1909 203.036 93.7493 203.972 97.9077 208.002C106.124 215.966 104.101 229.487 94.0073 234.071C89.4122 236.158 89.1807 236.178 84.705 234.883ZM95.4667 227.062C103.01 219.519 94.6347 205.704 85.4108 210.474C81.7631 212.36 80.3898 214.794 80.3898 219.372C80.3898 229.052 89.056 233.472 95.4667 227.062ZM2.87389 229.959C2.52523 229.395 1.99755 226.582 1.70128 223.709C1.26285 219.457 1.53301 218.028 3.153 216.028C5.07236 213.658 5.76346 213.54 22.5166 212.711L39.8898 211.851L42.8121 208.168C48.8682 200.535 58.8255 191.896 65.1609 188.777C75.9371 183.472 87.625 183.618 93.9111 189.138C99.0383 193.639 98.369 196.983 93.0396 193.491C86.1332 188.966 74.7045 191.199 66.3555 198.705C61.8435 202.762 61.4318 203.455 62.7513 204.775C64.0707 206.094 64.83 205.832 69.399 202.478C78.4545 195.831 85.4987 194.489 93.1398 197.958C95.4802 199.02 97.3898 200.583 97.3898 201.436C97.3898 203.252 96.2287 203.345 91.1553 201.936C86.0329 200.514 80.5959 202.126 76.7247 206.215C72.4056 210.778 71.3225 213.268 71.2785 218.737C71.2152 226.595 70.924 226.983 65.0724 227C62.222 227.008 48.1898 227.902 33.8898 228.985C3.40946 231.293 3.69314 231.285 2.87389 229.959ZM406.651 196.443C401.019 195.719 395.466 194.826 394.31 194.459C391.59 193.596 389.348 188.177 389.926 183.866C390.176 182.006 391.316 171.71 392.46 160.985C394.763 139.388 397.202 126.634 401.37 114.379C403.939 106.827 405.963 102.671 415.732 84.8939C418.242 80.3279 419.437 76.795 419.622 73.3939L419.89 68.4847L433.042 68.2064L446.195 67.928L446.542 77.2064C446.97 88.624 450.803 99.2393 456.64 105.173C459.813 108.399 461.041 108.985 464.625 108.985C474.292 108.985 488.138 97.5929 492.465 86.0796C495.45 78.1347 494.911 67.882 491.214 62.2956C488.146 57.6599 480.774 52.4512 474.937 50.7957C469.681 49.3046 469.009 48.6376 469.758 45.6525C470.328 43.3833 470.74 43.2191 474.635 43.71C476.975 44.0049 480.407 44.8624 482.262 45.6155C486.141 47.1905 488.765 47.4003 487.942 46.0697C486.953 44.4689 473.768 39.9023 472.045 40.5636C470.894 41.0052 470.39 40.6666 470.39 39.4524C470.39 37.9385 471.073 37.7871 475.525 38.3143C478.349 38.6488 483.411 40.2184 486.775 41.8024C500.003 48.0324 507.794 57.1961 511.037 70.3398C515.202 87.2157 506.629 105.637 489.425 116.781L483.96 120.321L486.898 122.403C493.974 127.416 501.281 135.305 503.392 140.21C513.495 163.696 501.19 186.644 474.39 194.298C467.442 196.282 451.835 198.369 449.796 197.587C447.909 196.863 448.353 195.192 453.147 184.985C455.084 180.86 457.218 175.464 457.888 172.994C459.041 168.743 459.341 168.461 463.498 167.717C468.752 166.776 472.889 167.401 478.626 170.005C484.609 172.721 489.636 172.511 495.086 169.317C502.088 165.214 505.57 155.542 501.921 150.333C500.115 147.754 495.428 145.8 459.203 132.524C424.973 119.979 422.377 119.214 419.108 120.704C416.343 121.963 412.387 129.637 412.395 133.724C412.404 137.973 414.322 143.916 416.333 145.927C417.33 146.925 421.013 148.7 424.518 149.873C428.763 151.294 432.303 153.358 435.125 156.057L439.361 160.108L437.001 164.796C435.703 167.375 432.064 175.56 428.914 182.985C425.765 190.41 422.671 196.815 422.039 197.219C420.604 198.137 419.314 198.071 406.651 196.443ZM473.659 181.735C474.368 179.701 473.308 177.985 471.342 177.985C469.137 177.985 468.007 179.544 468.77 181.533C469.452 183.31 473.058 183.459 473.659 181.735ZM411.743 178.147C413.3 176.427 413.278 176.193 411.398 174.492C409.457 172.736 409.322 172.736 407.382 174.492C405.502 176.193 405.48 176.427 407.037 178.147C407.951 179.158 409.01 179.985 409.39 179.985C409.769 179.985 410.828 179.158 411.743 178.147ZM425.202 163.72C425.587 161.723 422.735 160.24 421.29 161.685C419.89 163.084 421.358 166.138 423.254 165.772C424.141 165.602 425.018 164.678 425.202 163.72ZM415.277 106.215C419.829 94.8483 420.354 92.2333 417.331 95.9847C411.44 103.295 405.061 120.958 403.913 133.137L403.314 139.485L407.239 127.985C409.398 121.66 413.015 111.863 415.277 106.215ZM125.89 184.582C119.612 181.811 116.39 175.308 116.39 165.411C116.39 144.217 128.114 127.261 145.134 123.842C150.861 122.691 151.954 122.773 158.346 124.831C164.932 126.952 165.486 126.986 168.467 125.445C170.244 124.526 171.997 124.192 172.486 124.681C172.974 125.169 172.487 131.205 171.368 138.516C165.737 175.318 165.914 173.706 167.33 175.412C168.319 176.604 169.574 176.853 172.157 176.369C176.943 175.471 176.149 177.549 170.153 181.609C160.5 188.147 153.447 186.7 150.053 177.485C149.85 176.935 147.749 178.024 145.383 179.905C138.224 185.599 131.726 187.158 125.89 184.582ZM144.555 174.235C149.574 171.28 151.13 167.448 153.336 152.604C155.821 135.886 155.87 133.173 153.735 130.813C149.661 126.312 142.254 130.313 138.055 139.281C134.799 146.237 133.39 153.424 133.39 163.079C133.39 170.236 133.648 171.333 135.844 173.53C138.756 176.441 140.558 176.587 144.555 174.235ZM250.765 185C246.298 183.196 246.113 179.222 249.525 158.274C253.161 135.953 252.948 133.985 246.897 133.985C244.294 133.985 242.433 134.843 239.848 137.235C236.54 140.296 236.227 141.154 234.46 151.985C233.428 158.31 232.021 167.535 231.333 172.485C229.598 184.959 229.58 184.985 222.055 184.985C218.609 184.985 215.335 184.53 214.779 183.974C214.099 183.294 214.642 177.173 216.444 165.224C217.916 155.468 219.432 145.353 219.814 142.748C220.43 138.548 220.229 137.733 218.039 135.543C215.903 133.407 215.13 133.199 212.319 134.005C208.398 135.13 204.911 138.238 203.538 141.833C202.981 143.292 201.348 152.585 199.909 162.485C198.47 172.385 196.874 181.497 196.363 182.735C195.535 184.737 194.727 184.985 189.034 184.985C185.12 184.985 182.242 184.499 181.624 183.735C180.642 182.519 181.074 178.95 185.853 148.78C187.971 135.407 187.869 132.547 185.215 130.784C181.29 128.179 183.538 126.361 192.812 124.64C197.532 123.765 202.067 123.307 202.891 123.624C203.868 123.998 204.39 125.555 204.39 128.092C204.39 132.607 205.18 132.867 209.063 129.625C218.765 121.527 230.859 121.19 234.849 128.906C235.725 130.599 236.876 131.985 237.407 131.985C237.938 131.985 240.412 130.428 242.905 128.525C247.211 125.238 252.772 123.002 256.672 122.99C260.249 122.979 265.291 125.893 266.823 128.856C268.969 133.005 268.804 137.337 265.831 154.949C264.424 163.285 263.411 171.541 263.581 173.295C263.872 176.305 264.101 176.472 267.64 176.265C269.702 176.144 271.39 176.403 271.39 176.84C271.39 178.333 266.898 181.857 262.39 183.901C257.602 186.071 254.212 186.392 250.765 185ZM286.303 185.088C278.31 182.482 274.324 176.316 273.615 165.458C272.206 143.907 284.882 125.372 302.451 123.291C308.448 122.581 315.432 124.951 318.379 128.698C320.795 131.769 321.11 139.705 318.979 143.784C315.723 150.017 308.152 154.766 297.011 157.565L290.39 159.228V164.156C290.39 175.71 297.525 179.945 307.794 174.485C312.377 172.048 315.39 171.316 315.39 172.64C315.39 174.598 309.963 179.899 305.439 182.362C299.895 185.379 291.056 186.638 286.303 185.088ZM297.372 150.994C303.217 148.012 306.648 142.916 307.187 136.414C308.581 119.601 294.141 130.243 291.827 147.735C291.031 153.749 291.468 154.006 297.372 150.994ZM330.665 185.076C320.481 182.459 316.453 172.556 323.549 167.586C328.488 164.126 332.39 166.693 332.39 173.401C332.39 178.646 334.626 180.985 339.642 180.985C344.753 180.985 349.39 176.925 349.39 172.452C349.39 168.225 346.913 165.373 337.918 159.239C333.502 156.227 330.117 153.019 328.684 150.485C326.058 145.839 325.695 139.23 327.839 135.083C334.03 123.111 355.525 118.966 364.561 128.002C368.285 131.726 368.443 137.022 364.935 140.53C360.391 145.075 355.39 142.772 355.39 136.136C355.39 128.038 348.964 125.256 343.313 130.908C339.726 134.494 339.473 138.71 342.64 142.106C343.877 143.433 348.126 146.666 352.082 149.29C360.691 155.001 363.621 159.21 363.621 165.866C363.621 173.618 358.914 180.197 351.006 183.501C346.46 185.4 335.289 186.265 330.665 185.076ZM525.482 184.755C511.022 179.875 506.972 157.398 517.173 138.637C524.608 124.961 543.304 119.056 555.863 126.416C563.432 130.852 567.631 142.821 565.555 154.047C561.999 173.275 551.329 184.37 535.341 185.464C531.793 185.706 527.356 185.388 525.482 184.755ZM540.687 177.62C544.705 173.602 547.832 164.458 549.452 151.985C551.872 133.348 546.617 123.299 537.997 130.079C532.945 134.053 529.161 144.695 527.829 158.672C526.009 177.764 531.885 186.422 540.687 177.62ZM607.025 183.912C604.784 182.15 604.39 181.064 604.39 176.66C604.39 173.811 605.287 166.77 606.384 161.012C610.586 138.96 610.188 133.985 604.223 133.985C600.626 133.985 595.244 137.033 593.122 140.271C591.693 142.451 590.034 151.202 586.933 172.909C586.096 178.771 584.885 183.688 584.167 184.144C582.49 185.208 572.261 185.19 570.574 184.12C569.508 183.444 569.972 178.578 573.019 158.501L576.779 133.717L574.085 131.399C572.602 130.124 571.39 128.644 571.39 128.11C571.39 126.899 576.001 125.412 584.217 123.975C591.708 122.665 593.39 123.514 593.39 128.607C593.39 132.604 594.266 132.795 598.063 129.625C608.469 120.94 620.342 121.267 624.782 130.361L626.675 134.237L623.369 153.963C621.55 164.812 620.368 174.485 620.741 175.459C621.259 176.808 622.12 177.089 624.366 176.639C628.763 175.76 628.874 177.44 624.649 180.925C618.351 186.12 611.342 187.308 607.025 183.912ZM643.813 183.965C637.388 180.784 634.89 175.472 634.89 164.985C634.89 150.558 640.26 138.342 650.125 130.324C656.447 125.186 661.705 123.483 670.574 123.7C678.25 123.888 677.31 125.371 679.513 109.59L680.755 100.695L678.072 98.388C673.287 94.2721 673.614 94.0522 688.084 91.6555C692.591 90.9089 696.712 90.566 697.242 90.8935C698.172 91.4682 695.062 115.107 688.903 154.268C687.451 163.499 686.404 172.274 686.577 173.768C686.87 176.309 687.17 176.467 691.233 176.206C696.772 175.851 696.439 177.353 690.016 181.701C681.365 187.557 673.613 187.01 671.213 180.374C670.539 178.51 669.575 176.985 669.071 176.985C668.566 176.985 666.638 178.315 664.786 179.942C661.698 182.653 653.244 185.986 649.458 185.984C648.596 185.983 646.055 185.075 643.813 183.965ZM667.074 171.806C668.919 170.018 670.826 166.964 671.311 165.02C672.901 158.655 675.733 134.323 675.082 132.625C674.167 130.24 669.984 128.619 666.805 129.417C665.302 129.794 662.64 131.539 660.891 133.294C652.677 141.532 648.57 168.165 654.585 174.179C657.433 177.028 662.724 176.022 667.074 171.806ZM90.3898 182.498C89.0148 181.705 87.1288 181.04 86.1988 181.02C85.2688 181.001 84.2301 180.535 83.8906 179.986C82.4492 177.654 86.9486 165.291 95.3548 148.485C105.191 128.819 107.28 122.004 105.498 115.387C103.248 107.03 94.5907 97.4235 92.4422 100.9C91.9926 101.627 89.2532 110.606 86.3546 120.854C83.4561 131.101 80.6481 140.047 80.1147 140.735C78.7712 142.466 66.4988 142.432 65.8322 140.695C65.4209 139.623 73.6377 110.858 86.0108 70.0535C87.608 64.7861 88.345 60.5109 87.9749 58.6603C87.0621 54.0961 88.7179 52.9846 96.4304 52.9846C100.168 52.9846 103.938 53.2578 104.808 53.5916C106.922 54.4029 106.808 57.5732 104.547 60.8302C103.534 62.2902 101.413 68.1656 99.8338 73.8869L96.9627 84.2891L99.4262 85.8731C104.032 88.8345 113.589 98.4698 115.902 102.485C117.169 104.685 118.719 109.022 119.346 112.123C121.053 120.569 118.918 128.077 109.924 145.258C101.949 160.492 99.0194 167.786 96.9783 177.485C95.6138 183.968 94.46 184.846 90.3898 182.498ZM423.836 62.8976C423.466 62.2997 423.665 61.3097 424.277 60.6976C427.875 57.0994 423.616 50.6806 416.779 49.398C414.34 48.9405 413.207 48.104 412.793 46.4564C411.999 43.2901 414.99 37.4062 418.763 34.715C421.621 32.6762 423.006 32.4884 434.89 32.5273C442.04 32.5507 449.598 32.9126 451.686 33.3313L455.482 34.0927L455.186 40.2811L454.89 46.4694L448.633 49.9771C442.126 53.625 440.095 56.7193 442.39 59.485C443.063 60.2958 443.352 61.64 443.033 62.472C442.575 63.6668 440.567 63.9847 433.48 63.9847C428.098 63.9847 424.239 63.5497 423.836 62.8976ZM399.348 61.4345C398.285 60.154 398.351 59.5949 399.726 58.2203C401.278 56.6681 401.502 56.6681 403.054 58.2203C404.429 59.5949 404.494 60.154 403.431 61.4345C402.724 62.2871 401.805 62.9847 401.39 62.9847C400.974 62.9847 400.056 62.2871 399.348 61.4345ZM388.5 49.6174C387.637 48.5774 387.727 47.9496 388.877 46.995C390.996 45.2369 393.996 47.5494 392.28 49.6174C391.656 50.3694 390.805 50.9847 390.39 50.9847C389.974 50.9847 389.124 50.3694 388.5 49.6174ZM94.032 46.2148C93.2818 45.001 104.236 9.76803 106.229 6.98472C107.213 5.60972 109.703 3.64807 111.761 2.62549C115.457 0.788595 115.697 0.797994 131.696 3.40873C140.603 4.8621 149.29 6.27006 151.002 6.53753C155.23 7.19798 157.807 10.1854 156.983 13.4696C156.173 16.6963 150.281 23.2756 144.862 27.0037C138.838 31.1484 122.303 39.3339 111.677 43.4319C103.086 46.7453 95.1348 47.9992 94.032 46.2148ZM127.395 30.3929C142.821 22.378 148.642 17.0782 143.64 15.6037C142.677 15.3199 136.593 14.7779 130.12 14.3991C115.838 13.5634 115.602 13.7045 112.383 25.0093C110.543 31.4715 110.355 33.238 111.377 34.4699C113.433 36.9466 116.075 36.2741 127.395 30.3929ZM458.788 44.5799C458.491 43.8073 458.393 41.6698 458.569 39.8299C458.993 35.4049 462.477 34.6616 464.968 38.4644C466.339 40.5561 466.454 41.5491 465.553 43.5257C464.3 46.2751 459.713 46.99 458.788 44.5799ZM398.747 35.472C398.427 34.64 398.731 33.2786 399.421 32.4468C400.537 31.1025 400.883 31.1208 402.53 32.6113C403.939 33.8866 404.115 34.6113 403.264 35.6365C401.774 37.432 399.466 37.348 398.747 35.472Z" fill="#0085C9"/>
<path d="M82.2831 232.545C77.9962 230.121 76.0565 226.183 76.0565 219.904C76.0565 212.929 78.5905 208.922 84.4943 206.56C89.542 204.54 93.6737 205.584 97.8392 209.932C102.812 215.122 102.329 225.875 96.8935 230.981C93.8256 233.863 86.08 234.693 82.2831 232.545ZM96.5551 228.326C101.579 223.513 101.443 216.192 96.2328 210.981C93.847 208.596 92.3723 207.985 89 207.985C83.1088 207.985 79.2645 211.982 78.7053 218.688C78.2096 224.633 79.829 227.926 84.4038 230.274C88.756 232.508 92.8808 231.847 96.5551 228.326ZM3.98541 228.139C2.49449 225.727 2.34376 219.359 3.73341 217.493C5.0555 215.717 7.1442 215.38 22.9448 214.386L40.6728 213.271L44.2272 208.878C53.5647 197.337 63.6888 189.871 73.3385 187.411C80.5801 185.565 86.9276 186.008 91.4409 188.674C95.797 191.247 96.0936 193.177 91.8613 191.408C83.5228 187.924 72.4402 190.717 64.0287 198.421C56.5966 205.229 62.0319 210.268 69.9427 203.904C72.1136 202.158 75.3379 200.112 77.1077 199.357C81.3007 197.569 90.2144 197.659 93.3898 199.522C95.7533 200.908 95.6091 200.955 90.7507 200.373C83.9518 199.557 79.3293 201.202 75.0224 205.97C71.3064 210.083 69.4046 215.191 69.3954 221.084L69.3894 224.684L58.6394 225.351C52.7269 225.718 38.4394 226.676 26.8894 227.48C15.3394 228.284 5.57849 228.952 5.19845 228.964C4.81841 228.975 4.27277 228.604 3.98541 228.139ZM409.39 195.507C391.206 193.138 390.798 192.828 391.807 182.108C393.8 160.938 395.869 154.184 398.261 161.045C399.503 164.607 401.058 164.806 402.523 161.591C403.49 159.47 404.395 159.154 410.479 158.81C416.631 158.462 417.695 158.081 420.735 155.135C424.065 151.907 424.187 151.875 427.508 153.355C429.368 154.183 432.447 156.192 434.349 157.818C437.355 160.388 437.632 160.988 436.46 162.4C435.719 163.293 432.134 171.322 428.495 180.242C424.308 190.502 421.328 196.512 420.384 196.602C419.562 196.68 414.615 196.187 409.39 195.507ZM412.938 179.339C415.758 176.296 415.985 175.15 413.928 174.361C413.124 174.052 412.194 172.941 411.861 171.892C411.054 169.351 407.351 169.417 406.68 171.985C406.392 173.085 405.745 173.985 405.242 173.985C403.16 173.985 403.327 177.14 405.533 179.466C408.539 182.634 409.905 182.611 412.938 179.339ZM426.075 166.81C428.813 164.239 428.995 162.31 426.735 159.813C424.659 157.52 422.001 157.481 419.401 159.707C416.802 161.932 416.862 163.645 419.64 166.576C422.425 169.515 423.168 169.542 426.075 166.81ZM450.404 194.735C450.412 194.047 452.662 188.819 455.404 183.117C458.146 177.415 460.39 171.902 460.39 170.867C460.39 169.238 461.179 168.985 466.263 168.985C470.134 168.985 473.798 169.727 477.013 171.161C483.275 173.956 489.696 173.936 495.019 171.104C500.173 168.364 501.964 166.405 503.875 161.418L505.382 157.485L504.821 161.985C504.01 168.49 499.013 178.189 494.259 182.484C488.791 187.424 477.67 192.519 468.182 194.431C458.675 196.347 450.384 196.489 450.404 194.735ZM474.494 182.865C476.44 180.621 475.972 178.543 472.957 176.041C470.951 174.376 469.193 175.116 467.46 178.354C466.218 180.674 466.265 181.189 467.881 182.975C470.214 185.553 472.191 185.52 474.494 182.865ZM125.814 183.124C120.808 180.808 118.54 176.485 117.754 167.759C116.374 152.453 124.432 135.146 136.133 128.289C142.165 124.754 153.31 123.919 160.059 126.496C163.999 128.001 165.229 128.083 168.124 127.036C170.002 126.357 171.664 125.955 171.815 126.143C171.967 126.331 171.044 133.01 169.764 140.985C164.225 175.496 164.235 176.979 169.99 177.993L172.876 178.502L169.883 180.63C162.59 185.814 153.83 185.438 152.721 179.893C151.725 174.909 149.87 174.356 145.887 177.853C138.489 184.348 132.092 186.028 125.814 183.124ZM146.893 173.848C148.858 172.122 150.916 169.87 151.466 168.842C152.016 167.814 153.557 159.688 154.89 150.785C157.562 132.932 157.293 130.664 152.223 128.233C149.273 126.82 145.349 127.809 142.032 130.804C135.519 136.685 130.198 157.283 132.294 168.502C133.929 177.252 140.342 179.6 146.893 173.848ZM251.39 183.697C247.849 181.914 247.743 177.111 250.83 158.166C254.102 138.082 254.093 136.683 250.683 134.001C247.653 131.618 244.533 131.885 240.39 134.884C235.978 138.078 234.644 142.036 231.933 159.985C230.479 169.61 229.051 178.722 228.76 180.235C228.248 182.894 228.02 182.985 221.81 182.985C218.279 182.985 215.39 182.575 215.39 182.075C215.39 181.574 216.302 175.162 217.418 167.825C221.704 139.623 221.812 138.278 220.007 135.524C217.678 131.968 214.371 131.444 209.606 133.874C203.208 137.138 201.936 140.319 198.96 160.485C197.499 170.385 196.089 179.497 195.828 180.735C195.392 182.794 194.789 182.985 188.732 182.985H182.111L182.738 178.235C183.083 175.622 184.672 164.724 186.27 154.016C189.235 134.137 189.173 130.883 185.799 129.588C184.77 129.193 184.431 128.567 184.973 128.059C186.189 126.917 195.599 124.985 199.939 124.985C203.29 124.985 203.39 125.099 203.39 128.926C203.39 131.093 203.816 133.13 204.336 133.451C204.856 133.773 207.655 132.24 210.555 130.044C220.197 122.747 229.931 122.827 233.89 130.236C234.99 132.295 236.35 133.98 236.912 133.982C237.474 133.983 239.499 132.7 241.412 131.13C249.452 124.532 257.956 122.79 263.188 126.67C267.787 130.081 268.003 134.876 264.5 155.841C261.171 175.765 261.329 177.985 266.08 177.985C268.61 177.985 268.639 178.051 266.944 179.925C265.333 181.706 257.496 185.005 254.962 184.97C254.372 184.962 252.765 184.389 251.39 183.697ZM286.045 183.576C280.552 181.546 277.571 178.333 275.872 172.612C271.918 159.297 276.679 141.504 286.656 132.307C292.181 127.214 294.128 126.162 300.126 125.03C310.938 122.99 319.39 127.847 319.39 136.101C319.39 141.07 316.339 147.173 312.482 149.919C308.787 152.55 297.148 156.985 293.938 156.985C289.818 156.985 288.077 159.698 288.719 165.119C289.029 167.736 289.948 171.164 290.761 172.736C293.684 178.388 301.127 179.54 308.283 175.449C313.639 172.388 314.708 172.999 310.919 176.955C304.953 183.182 293.343 186.272 286.045 183.576ZM299.647 151.036C305.281 147.463 308.39 141.924 308.39 135.459C308.39 129.379 307.02 126.985 303.542 126.985C300.045 126.985 296.194 130.903 293.507 137.195C291.329 142.295 289.495 150.8 290.15 152.764C290.841 154.838 294.784 154.12 299.647 151.036ZM331.89 184.114C327.922 183.08 324.175 181.03 322.672 179.071C320.759 176.58 321.14 171.235 323.39 168.985C327.506 164.868 331.39 167.399 331.39 174.196C331.39 179.781 333.691 181.985 339.523 181.985C346.029 181.985 350.39 178.177 350.39 172.496C350.39 167.311 349.147 165.565 342.116 160.868C330.016 152.785 326.365 147.263 327.858 139.304C328.582 135.444 333.366 129.566 337.539 127.408C349.844 121.045 366.996 125.483 366.189 134.821C365.794 139.398 361.674 142.742 358.515 141.051C356.861 140.166 356.39 138.974 356.39 135.672C356.39 129.6 354.242 126.985 349.256 126.985C343.842 126.985 339.39 131.229 339.39 136.392C339.39 140.842 342.517 144.456 351.376 150.246C359.472 155.537 362.396 159.694 362.373 165.883C362.349 172.776 359.052 177.831 352.371 181.22C346.503 184.196 337.229 185.507 331.89 184.114ZM526.533 183.522C521.138 181.802 517.659 178.687 515.32 173.485C511.237 164.403 512.059 151.545 517.398 140.967C523.609 128.664 536.27 122.375 549.383 125.08C559.443 127.154 564.401 134.93 564.379 148.601C564.348 168.128 552.948 182.433 535.89 184.349C532.837 184.692 529.193 184.37 526.533 183.522ZM541.142 178.735C545.443 174.291 548.028 168.001 549.851 157.547C552.405 142.901 551.544 133.138 547.325 128.92C544.818 126.413 540.336 126.452 537.086 129.009C530.744 133.998 525.882 151.827 526.57 167.568C526.927 175.724 527.283 177.242 529.359 179.452C532.801 183.115 537.16 182.85 541.142 178.735ZM608.658 183.772C605.068 182.04 604.894 177.353 607.781 160.174C610.449 144.305 610.963 137.389 609.625 135.384C606.542 130.768 599.934 131.778 594.145 137.75C590.571 141.438 590.493 141.699 587.947 158.485C586.529 167.835 585.108 177.172 584.791 179.235L584.214 182.985H577.283C570.607 182.985 570.371 182.902 570.874 180.735C571.93 176.184 577.39 137.898 577.39 135.045C577.39 133.139 576.61 131.552 575.181 130.551C573.802 129.585 573.332 128.664 573.931 128.101C575.195 126.911 584.545 124.985 589.053 124.985H592.617L591.942 129.485C591.34 133.503 591.475 133.985 593.206 133.985C594.272 133.985 595.74 133.267 596.468 132.39C597.196 131.513 600.064 129.492 602.841 127.9C606.763 125.65 609.148 125.001 613.529 124.994C624.918 124.975 626.394 130.308 621.934 155.366C620.477 163.551 619.421 171.874 619.587 173.862C619.846 176.958 620.3 177.548 622.75 177.98C625.607 178.484 625.608 178.487 623.566 180.33C621.409 182.277 614.923 184.913 612.39 184.873C611.565 184.86 609.886 184.365 608.658 183.772ZM647.331 184.012C637.462 181.112 633.65 170.979 636.801 156.015C638.869 146.194 642.642 138.958 648.602 133.383C655.82 126.631 661.067 124.637 670.09 125.216C674.14 125.476 677.702 125.289 678.004 124.8C678.849 123.433 681.382 106.949 681.386 102.791C681.389 100.095 680.783 98.6704 679.14 97.5132C677.327 96.2364 677.162 95.7587 678.288 95.0556C680.165 93.8845 695.306 91.568 696.073 92.3346C696.762 93.0236 695.031 106.076 689.29 143.485C687.095 157.785 685.433 171.285 685.595 173.485C685.87 177.212 686.128 177.521 689.39 178.024L692.89 178.563L689.39 180.789C684.067 184.175 679.395 185.332 676.114 184.077C673.289 182.996 673.016 182.579 671.954 177.735C671.187 174.232 670.071 174.277 665.372 177.999C659.201 182.887 651.846 185.338 647.331 184.012ZM665.4 174.735C671.4 170.651 672.204 168.615 674.781 150.985C676.572 138.733 676.919 133.971 676.128 132.485C671.894 124.531 661.543 127.394 656.143 138.012C650.075 149.946 648.63 169.418 653.434 174.532C656.375 177.662 660.984 177.74 665.4 174.735ZM89.6398 180.8C87.3023 179.76 85.3898 178.218 85.3898 177.373C85.3898 173.62 91.012 159.737 98.4048 145.236C107.726 126.952 109.118 120.799 105.863 112.276C103.809 106.897 96.0057 97.9847 93.3504 97.9847C91.5838 97.9847 89.578 103.248 85.7284 117.985C84.9382 121.01 83.1358 127.197 81.7229 131.735L79.1541 139.985H73.272C70.0368 139.985 67.3898 139.561 67.3898 139.043C67.3898 138.525 68.9284 133.012 70.8088 126.793C72.6893 120.573 75.7991 110.085 77.7196 103.485C79.6401 96.8847 83.2438 84.5097 85.7277 75.9847C88.4481 66.6485 90.0344 59.4253 89.7168 57.8207C89.1899 55.1585 89.1944 55.1564 96.3119 54.8207C100.229 54.6359 103.874 54.6347 104.412 54.8177C105.931 55.3356 105.571 57.483 103.525 60.0995C101.52 62.6651 96.3898 79.3131 96.3898 83.2563C96.3898 85.0317 97.8014 86.6241 101.842 89.4072C107.58 93.3587 112.821 99.1297 115.988 104.984C117.447 107.68 117.883 110.557 117.886 117.506L117.89 126.527L108.122 146.006C101.164 159.881 97.7592 167.929 96.286 173.984C95.1486 178.659 94.1442 182.531 94.054 182.588C93.9638 182.644 91.9773 181.84 89.6398 180.8ZM95.3898 45.2595C95.3898 44.7357 96.4807 40.7472 97.814 36.396C99.1473 32.0448 101.644 23.8938 103.363 18.2827C108.172 2.57716 111.127 1.04171 129.89 4.4975C134.29 5.30791 141.228 6.42258 145.307 6.97454C157.197 8.5831 158.75 11.6746 151.531 19.3628C145.058 26.2572 130.392 34.6588 112.346 41.8106C104.205 45.0371 95.3898 46.83 95.3898 45.2595ZM127.225 31.9758C132.541 29.221 139.055 25.3716 141.701 23.4217C145.668 20.4985 146.458 19.4034 146.201 17.1805C145.905 14.6141 145.554 14.4526 138.89 13.8162C117.007 11.7264 118.828 11.697 116.039 14.1853C114.336 15.7045 112.719 19.0571 111.275 24.0661C107.063 38.6704 110.766 40.5065 127.225 31.9758Z" fill="#0085C9"/>
<path d="M406.39 194.378C394.274 192.648 392.39 191.821 392.39 188.23C392.39 185.601 392.616 185.453 396.14 185.784C398.203 185.978 401.24 185.608 402.89 184.962C407.505 183.155 425.39 183.224 425.39 185.049C425.39 185.635 424.435 188.335 423.267 191.049C420.836 196.7 421.599 196.549 406.39 194.378ZM451.39 194.8C451.39 194.149 452.33 191.675 453.478 189.303C455.374 185.386 455.81 185.059 458.228 185.738C459.692 186.148 465.782 186.396 471.761 186.288C481.562 186.11 483.01 185.84 486.489 183.538C488.611 182.133 491.102 180.985 492.024 180.985C494.863 180.985 490.67 184.813 484.39 187.955C476.813 191.745 470.262 193.707 461.068 194.937C451.35 196.238 451.39 196.239 451.39 194.8ZM124.791 182.088C114.885 176.047 116.716 149.446 127.957 136.087C132.263 130.97 138.568 127.233 145.211 125.861C150.79 124.708 152.07 124.783 158.321 126.624C164.298 128.384 165.67 128.486 168.323 127.371L171.399 126.077L170.794 130.281C170.462 132.593 168.885 142.675 167.29 152.685C165.695 162.696 164.39 171.963 164.39 173.28C164.39 175.676 166.568 178.271 169.39 179.237C171.425 179.934 162.749 183.934 159.14 183.963C155.718 183.99 152.39 180.796 152.39 177.485C152.39 173.869 149.142 174.235 144.026 178.426C136.815 184.336 130.461 185.545 124.791 182.088ZM147.729 174.106C152.228 169.953 153.247 167.012 155.383 152.034C157.968 133.904 157.939 132.443 154.935 129.439C148.406 122.909 139.384 129.188 134.214 143.859C131.287 152.169 130.65 168.344 133.069 172.956C136.001 178.545 142.379 179.045 147.729 174.106ZM249.897 181.636C248.284 179.174 248.355 178.086 251.376 158.917C254.029 142.086 254.352 138.306 253.343 135.871C251.987 132.598 248.951 131.442 244.103 132.353L240.89 132.956L244.087 130.032C248.954 125.58 256.773 123.835 261.733 126.095C267.109 128.545 267.559 134.7 263.881 155.485C260.503 174.575 260.559 176.732 264.475 178.378L267.561 179.676L263.765 181.477C261.678 182.467 258.085 183.49 255.781 183.75C252.115 184.163 251.38 183.899 249.897 181.636ZM284.805 182.626C277.835 179.449 274.873 171.946 275.67 159.485C276.422 147.723 279.374 140.815 286.802 133.441C293.292 126.999 297.703 124.985 305.322 124.985C309.865 124.985 312.623 126.081 316.14 129.284C319.137 132.013 319.266 139.831 316.391 144.483C312.807 150.282 307.752 152.759 289.64 157.588C287.779 158.085 288.066 168.237 290.059 172.417C291.822 176.115 296.447 178.985 300.642 178.985C301.99 178.985 305.297 177.817 307.991 176.389L312.89 173.793L310.39 176.486C304.66 182.659 291.701 185.769 284.805 182.626ZM298.419 152.47C304.806 149.234 308.349 144.001 308.999 136.843C310.365 121.823 298.304 122.851 292.56 138.245C290.067 144.926 288.893 151.247 289.737 153.446C290.567 155.609 292.697 155.369 298.419 152.47ZM330.332 183.101C325.635 181.557 323.674 180.084 322.482 177.207C320.91 173.412 322.48 169.251 325.798 168.418C329.384 167.518 330.073 168.335 330.632 174.15C331.415 182.298 336.59 185.017 344.791 181.59C350.945 179.019 353.043 173.082 349.927 167.057C349.123 165.501 345.861 162.532 342.677 160.459C331.575 153.227 328.385 149.056 328.397 141.784C328.407 134.71 333.527 128.951 342.101 126.371C355.629 122.3 368.345 128.079 365.269 136.901C364.219 139.915 360.648 141.88 358.564 140.592C358.047 140.272 357.314 137.533 356.936 134.505C356.437 130.509 355.658 128.585 354.096 127.492C348.008 123.227 338.39 129.268 338.39 137.358C338.39 140.79 342.445 145.266 349.361 149.467C360.662 156.332 364.17 163.034 360.92 171.545C359.299 175.79 355.93 179.163 350.513 181.962C347.589 183.474 333.827 184.25 330.332 183.101ZM526.304 183.09C521.816 181.624 518.846 179.138 516.329 174.743C514.175 170.983 513.897 169.315 513.948 160.485C514.023 147.354 516.487 140.602 523.835 133.391C531.628 125.742 541.55 123.155 551.572 126.157C561.474 129.124 566.764 143.605 563.016 157.485C559.903 169.014 555.345 175.513 546.847 180.54C542.4 183.171 530.913 184.597 526.304 183.09ZM541.881 178.655C546.835 173.485 549.745 165.141 551.43 151.276C552.26 144.446 552.256 140.657 551.416 136.609C550.196 130.732 546.526 125.985 543.204 125.985C535.096 125.985 528.361 137.904 526.252 155.985C524.881 167.745 525.871 176.214 529.061 180.005C532.838 184.494 536.674 184.09 541.881 178.655ZM608.05 182.761C605.694 180.993 606.042 173.07 609.302 154.195C611.761 139.959 611.539 134.67 608.413 132.997C603.804 130.53 597.715 132.572 592.723 138.258C590.089 141.258 589.559 143.021 587.971 154.06C586.988 160.893 585.649 170.085 584.996 174.485L583.809 182.485L577.6 182.782C574.184 182.946 571.39 182.874 571.39 182.622C571.39 182.371 572.295 176.162 573.402 168.825C574.509 161.488 576.16 150.352 577.071 144.078L578.728 132.672L576.091 130.404L573.455 128.136L578.399 127.076C581.119 126.493 585.2 125.719 587.469 125.356L591.595 124.696L591.242 129.571C590.793 135.793 592.885 136.513 598.103 131.932C608.081 123.171 619.998 122.795 623.451 131.133C624.642 134.008 624.42 136.612 621.496 154.09C619.682 164.934 618.476 174.681 618.816 175.752C619.156 176.823 620.421 178.139 621.628 178.677C623.82 179.655 623.819 179.657 621.091 181.445C617.446 183.833 610.423 184.542 608.05 182.761ZM644.39 182.233C633.004 176.545 633.986 151.124 646.158 136.485C652.969 128.291 664.391 123.724 672.75 125.85C678.26 127.252 679.144 126.225 680.409 116.948C682.866 98.9232 682.875 99.5113 680.106 97.3328L677.576 95.3433L685.233 94.1027C689.444 93.4204 693.737 92.6155 694.772 92.3141C696.463 91.8218 696.581 92.1552 695.935 95.5987C695.539 97.7066 693.93 108.218 692.359 118.958C690.788 129.698 688.299 146.231 686.829 155.7C685.359 165.168 684.433 174.018 684.771 175.366C685.139 176.831 686.493 178.206 688.138 178.784L690.89 179.751L686.39 181.846C683.915 182.998 680.653 183.951 679.14 183.963C675.682 183.99 672.39 180.785 672.39 177.391C672.39 175.621 671.742 174.628 670.35 174.264C668.562 173.796 668.484 173.53 669.721 172.107C670.498 171.215 671.612 169.556 672.197 168.42C673.783 165.345 677.782 135.681 677.02 132.646C676.636 131.118 675.063 129.35 673.254 128.414C664.91 124.099 655.985 132.18 651.967 147.689C650.137 154.749 649.876 169.762 651.52 173.37C653.16 176.971 657.611 178.559 662.154 177.165C664.153 176.552 665.932 176.193 666.107 176.368C666.77 177.031 658.573 182.072 655.31 183.008C650.512 184.383 648.394 184.233 644.39 182.233ZM182.77 180.606C183.829 176.387 189.39 137.996 189.39 134.905C189.39 133.299 188.53 131.124 187.479 130.073C185.597 128.191 185.676 128.137 192.601 126.573C202.518 124.333 202.39 124.297 202.39 129.378C202.39 132.422 202.866 133.953 203.939 134.365C205.27 134.876 205.149 135.561 203.078 139.222C201.251 142.451 200.115 147.365 198.392 159.485C197.14 168.285 195.822 177.06 195.462 178.985L194.808 182.485L188.478 182.785C182.183 183.085 182.151 183.072 182.77 180.606ZM215.797 181.235C217.156 176.847 222.13 140.076 221.682 137.733C220.838 133.317 218.104 131.644 212.723 132.251L208.007 132.782L210.449 130.817C214.426 127.616 220.642 125.03 224.417 125.007C228.856 124.979 232.199 127.282 234.009 131.615C234.783 133.468 236.116 134.985 236.972 134.985C238.282 134.985 238.22 135.417 236.576 137.735C234.405 140.794 233.511 144.862 230.364 165.985C229.175 173.96 228.034 181.047 227.828 181.735C227.581 182.557 225.366 182.985 221.354 182.985C216.006 182.985 215.322 182.769 215.797 181.235ZM111.857 127.525C111.476 123.963 111.357 119.397 111.592 117.379C111.828 115.361 111.27 110.156 110.354 105.813L108.687 97.9149L111.174 100.2C114.948 103.666 117.493 110.267 117.586 116.831C117.665 122.402 115.149 132.398 113.394 133.482C112.93 133.769 112.239 131.088 111.857 127.525ZM94.4053 82.4013C94.4133 80.7971 94.851 78.8096 95.377 77.9846C96.0282 76.9631 96.1377 77.7606 95.7201 80.4846C94.9623 85.4277 94.385 86.2694 94.4053 82.4013ZM101.39 57.0679C101.39 55.8396 102.036 54.9846 102.963 54.9846C103.895 54.9846 104.405 55.665 104.213 56.6517C103.727 59.1605 101.39 59.505 101.39 57.0679ZM136.39 28.5198C136.39 28.2641 137.402 27.5155 138.64 26.8561C140.68 25.7689 140.762 25.8123 139.518 27.3209C138.24 28.8699 136.39 29.579 136.39 28.5198ZM146.526 20.8479C147.826 18.9981 149.227 17.3346 149.64 17.1513C151.088 16.5079 150.368 15.2103 148.14 14.4469C146.902 14.0229 140.715 13.1396 134.39 12.4841C126.481 11.6643 124.504 11.2441 128.058 11.1384C134.248 10.9542 136.39 10.2444 136.39 8.3776C136.39 6.3592 138.072 6.66675 140.542 9.13675C142.589 11.1835 142.758 11.2013 144.003 9.49952C145.019 8.10916 146.141 7.84474 149.031 8.31382C151.077 8.64585 153.458 9.6351 154.321 10.5122C155.748 11.9621 155.714 12.2374 153.949 13.5457C152.881 14.3371 152.365 14.9846 152.802 14.9846C153.788 14.9846 147.624 22.164 145.622 23.3479C144.819 23.8228 145.226 22.6978 146.526 20.8479ZM126.202 5.30149C126.924 5.01262 127.787 5.04812 128.119 5.38037C128.451 5.71266 127.861 5.94903 126.807 5.9056C125.642 5.8576 125.405 5.62071 126.202 5.30149ZM120.659 4.2916C121.632 4.03806 122.982 4.05472 123.659 4.32869C124.336 4.60261 123.54 4.81006 121.89 4.78968C120.24 4.76928 119.686 4.54514 120.659 4.2916Z" fill="#0085C9"/>
</svg>
